SplineFontDB: 3.2
FontName: NotoKufiArabic
FullName: Noto Kufi Arabic
FamilyName: Noto Kufi Arabic
Weight: Book
Copyright: Copyright 2010 Google Inc. All Rights Reserved.
Version: 1.04
ItalicAngle: 0
UnderlinePosition: -205
UnderlineWidth: 102
Ascent: 1638
Descent: 410
InvalidEm: 0
sfntRevision: 0x00010a3d
LayerCount: 2
Layer: 0 1 "Back" 1
Layer: 1 1 "Fore" 0
XUID: [1021 690 -1627512456 20775]
StyleMap: 0x0040
FSType: 0
OS2Version: 4
OS2_WeightWidthSlopeOnly: 0
OS2_UseTypoMetrics: 0
CreationTime: 1291372694
ModificationTime: 1594833657
PfmFamily: 17
TTFWeight: 400
TTFWidth: 5
LineGap: 0
VLineGap: 0
Panose: 2 11 5 6 3 8 4 2 2 4
OS2TypoAscent: 2605
OS2TypoAOffset: 0
OS2TypoDescent: -1123
OS2TypoDOffset: 0
OS2TypoLinegap: 0
OS2WinAscent: 2625
OS2WinAOffset: 0
OS2WinDescent: 1260
OS2WinDOffset: 0
HheadAscent: 2625
HheadAOffset: 0
HheadDescent: -1260
HheadDOffset: 0
OS2SubXSize: 1434
OS2SubYSize: 1331
OS2SubXOff: 0
OS2SubYOff: 287
OS2SupXSize: 1434
OS2SupYSize: 1331
OS2SupXOff: 0
OS2SupYOff: 977
OS2StrikeYSize: 102
OS2StrikeYPos: 860
OS2CapHeight: 2605
OS2XHeight: 1823
OS2Vendor: 'GOOG'
OS2CodePages: 00000001.00000000
OS2UnicodeRanges: 00002000.00000000.00000008.00000000
Lookup: 4 1 0 "'ccmp' Glyph Composition/Decomposition in Arabic lookup 0" { "'ccmp' Glyph Composition/Decomposition in Arabic lookup 0 subtable"  } ['ccmp' ('arab' <'FAR ' 'URD ' 'dflt' > ) ]
Lookup: 1 1 0 "'locl' Localized Forms in Arabic lookup 1" { "'locl' Localized Forms in Arabic lookup 1 subtable"  } ['locl' ('arab' <'URD ' > ) ]
Lookup: 1 9 0 "'fina' Terminal Forms in Arabic lookup 2" { "'fina' Terminal Forms in Arabic lookup 2 subtable"  } ['fina' ('arab' <'FAR ' 'URD ' 'dflt' > ) ]
Lookup: 1 9 0 "'init' Initial Forms in Arabic lookup 3" { "'init' Initial Forms in Arabic lookup 3 subtable"  } ['init' ('arab' <'FAR ' 'URD ' 'dflt' > ) ]
Lookup: 1 9 0 "'medi' Medial Forms in Arabic lookup 4" { "'medi' Medial Forms in Arabic lookup 4 subtable"  } ['medi' ('arab' <'FAR ' 'URD ' 'dflt' > ) ]

StartChar: .notdef
Encoding: 65536 -1 0
Width: 600
VWidth: 1000
GlyphClass: 2
Flags: W
LayerCount: 2
Fore
SplineSet
94 0 m 1,0,-1
 94 714 l 1,1,-1
 505 714 l 1,2,-1
 505 0 l 1,3,-1
 94 0 l 1,0,-1
145 51 m 1,4,-1
 454 51 l 1,5,-1
 454 663 l 1,6,-1
 145 663 l 1,7,-1
 145 51 l 1,4,-1
EndSplineSet
EndChar

StartChar: uni0621
Encoding: 1569 1569 4
AltUni2: 00fe80.ffffffff.0
Width: 1004
GlyphClass: 2
Flags: W
AnchorPoint: "Anchor-1" 520 -160 basechar 0
AnchorPoint: "Anchor-0" 510 1000 basechar 0
LayerCount: 2
Fore
SplineSet
133 131 m 1,0,1
 175 136 175 136 199 143 c 2,2,-1
 315 164 l 1,3,4
 258 202 258 202 221 278 c 128,-1,5
 184 354 184 354 184 444 c 0,6,7
 184 568 184 568 236.5 656 c 128,-1,8
 289 744 289 744 385.5 791 c 128,-1,9
 482 838 482 838 608 838 c 0,10,11
 755 838 755 838 856 778 c 1,12,-1
 811 625 l 1,13,14
 710 678 710 678 612 678 c 0,15,16
 493 678 493 678 431 615 c 128,-1,17
 369 552 369 552 369 432 c 0,18,19
 369 355 369 355 404.5 292 c 128,-1,20
 440 229 440 229 498 201 c 1,21,-1
 543 206 l 1,22,23
 853 246 853 246 922 246 c 1,24,-1
 922 80 l 1,25,26
 822 80 822 80 528 42 c 128,-1,27
 234 4 234 4 133 -18 c 1,28,-1
 133 131 l 1,0,1
EndSplineSet
EndChar

StartChar: uni0627
Encoding: 1575 1575 5
AltUni2: 00fe8d.ffffffff.0
Width: 592
GlyphClass: 2
Flags: W
AnchorPoint: "Anchor-1" 300 -140 basechar 0
AnchorPoint: "Anchor-0" 300 1680 basechar 0
LayerCount: 2
Fore
SplineSet
205 1556 m 1,0,-1
 387 1556 l 1,1,-1
 387 0 l 1,2,-1
 205 0 l 1,3,-1
 205 1556 l 1,0,-1
EndSplineSet
Substitution2: "'fina' Terminal Forms in Arabic lookup 2 subtable" uni0627.fina
EndChar

StartChar: uni0627.fina
Encoding: 65166 65166 6
Width: 647
GlyphClass: 2
Flags: W
AnchorPoint: "Anchor-1" 400 -140 basechar 0
AnchorPoint: "Anchor-0" 300 1680 basechar 0
LayerCount: 2
Fore
SplineSet
205 1556 m 1,0,-1
 387 1556 l 1,1,-1
 387 160 l 1,2,-1
 657 160 l 2,3,4
 668 160 668 160 668 152 c 2,5,-1
 668 10 l 2,6,7
 668 0 668 0 657 0 c 2,8,-1
 205 0 l 1,9,-1
 205 1556 l 1,0,-1
EndSplineSet
EndChar

StartChar: uni062D
Encoding: 1581 1581 7
AltUni2: 00fea1.ffffffff.0
Width: 1319
GlyphClass: 2
Flags: W
AnchorPoint: "Anchor-1" 400 -750 basechar 0
AnchorPoint: "Anchor-0" 400 1160 basechar 0
LayerCount: 2
Fore
SplineSet
1077 25 m 1,0,1
 1022 69 1022 69 983 110 c 128,-1,2
 944 151 944 151 915 205 c 1,3,4
 572 112 572 112 425.5 4 c 128,-1,5
 279 -104 279 -104 279 -246 c 0,6,7
 279 -377 279 -377 355 -438.5 c 128,-1,8
 431 -500 431 -500 592 -500 c 0,9,10
 695 -500 695 -500 893 -467 c 1,11,-1
 915 -608 l 1,12,13
 770 -639 770 -639 685 -648 c 128,-1,14
 600 -657 600 -657 518 -657 c 0,15,16
 320 -657 320 -657 206 -553.5 c 128,-1,17
 92 -450 92 -450 92 -262 c 0,18,19
 92 -133 92 -133 167 -25 c 128,-1,20
 242 83 242 83 403 172.5 c 128,-1,21
 564 262 564 262 860 350 c 1,22,23
 844 404 844 404 821 535 c 0,24,25
 794 697 794 697 720.5 775.5 c 128,-1,26
 647 854 647 854 522 854 c 0,27,28
 449 854 449 854 346 824.5 c 128,-1,29
 243 795 243 795 164 752 c 1,30,-1
 92 893 l 1,31,32
 171 944 171 944 290 979 c 128,-1,33
 409 1014 409 1014 524 1014 c 0,34,35
 916 1014 916 1014 983 582 c 0,36,37
 1008 422 1008 422 1056 321.5 c 128,-1,38
 1104 221 1104 221 1186 166 c 1,39,-1
 1077 25 l 1,0,1
EndSplineSet
Substitution2: "'medi' Medial Forms in Arabic lookup 4 subtable" uni062D.medi
Substitution2: "'init' Initial Forms in Arabic lookup 3 subtable" uni062D.init
Substitution2: "'fina' Terminal Forms in Arabic lookup 2 subtable" uni062D.fina
EndChar

StartChar: uni062D.init
Encoding: 65187 65187 8
Width: 1188
GlyphClass: 2
Flags: W
AnchorPoint: "Anchor-1" 500 -160 basechar 0
AnchorPoint: "Anchor-0" 420 1180 basechar 0
LayerCount: 2
Fore
SplineSet
-10 0 m 2,0,1
 -20 0 -20 0 -20 10 c 2,2,-1
 -20 152 l 2,3,4
 -20 160 -20 160 -10 160 c 2,5,-1
 868 160 l 1,6,7
 793 235 793 235 739 535 c 0,8,9
 709 712 709 712 652 783 c 128,-1,10
 595 854 595 854 481 854 c 0,11,12
 339 854 339 854 184 772 c 1,13,-1
 113 913 l 1,14,15
 201 970 201 970 290.5 992 c 128,-1,16
 380 1014 380 1014 483 1014 c 0,17,18
 608 1014 608 1014 692 969 c 128,-1,19
 776 924 776 924 825.5 835.5 c 128,-1,20
 875 747 875 747 901 582 c 0,21,22
 931 399 931 399 968.5 299.5 c 128,-1,23
 1006 200 1006 200 1055 156 c 1,24,-1
 1055 0 l 1,25,-1
 -10 0 l 2,0,1
EndSplineSet
EndChar

StartChar: uni062D.medi
Encoding: 65188 65188 9
Width: 1176
GlyphClass: 2
Flags: W
AnchorPoint: "Anchor-1" 500 -160 basechar 0
AnchorPoint: "Anchor-0" 420 1180 basechar 0
LayerCount: 2
Fore
SplineSet
-10 0 m 2,0,1
 -20 0 -20 0 -20 10 c 2,2,-1
 -20 152 l 2,3,4
 -20 160 -20 160 -10 160 c 2,5,-1
 868 160 l 1,6,7
 789 239 789 239 739 535 c 0,8,9
 710 709 710 709 652 781.5 c 128,-1,10
 594 854 594 854 481 854 c 0,11,12
 339 854 339 854 184 772 c 1,13,-1
 113 913 l 1,14,15
 201 970 201 970 290.5 992 c 128,-1,16
 380 1014 380 1014 483 1014 c 0,17,18
 608 1014 608 1014 692 969 c 128,-1,19
 776 924 776 924 825.5 835.5 c 128,-1,20
 875 747 875 747 901 582 c 0,21,22
 948 261 948 261 1049 160 c 1,23,-1
 1186 160 l 2,24,25
 1196 160 1196 160 1196 152 c 2,26,-1
 1196 10 l 2,27,28
 1196 0 1196 0 1186 0 c 2,29,-1
 -10 0 l 2,0,1
EndSplineSet
EndChar

StartChar: uni062D.fina
Encoding: 65186 65186 10
Width: 1257
GlyphClass: 2
Flags: W
AnchorPoint: "Anchor-1" 400 -750 basechar 0
AnchorPoint: "Anchor-0" 400 1160 basechar 0
LayerCount: 2
Fore
SplineSet
518 -657 m 0,0,1
 320 -657 320 -657 206 -553.5 c 128,-1,2
 92 -450 92 -450 92 -262 c 0,3,4
 92 -132 92 -132 169 -23 c 128,-1,5
 246 86 246 86 410 176 c 128,-1,6
 574 266 574 266 862 350 c 1,7,8
 840 420 840 420 821 535 c 0,9,10
 794 697 794 697 720.5 775.5 c 128,-1,11
 647 854 647 854 522 854 c 0,12,13
 449 854 449 854 346 824.5 c 128,-1,14
 243 795 243 795 164 752 c 1,15,-1
 92 893 l 1,16,17
 171 944 171 944 290 979 c 128,-1,18
 409 1014 409 1014 524 1014 c 0,19,20
 916 1014 916 1014 983 582 c 0,21,22
 1015 386 1015 386 1046 311 c 128,-1,23
 1077 236 1077 236 1127 198 c 128,-1,24
 1177 160 1177 160 1257 160 c 2,25,-1
 1268 160 l 2,26,27
 1278 160 1278 160 1278 152 c 2,28,-1
 1278 10 l 2,29,30
 1278 0 1278 0 1268 0 c 2,31,-1
 1257 0 l 2,32,33
 1145 0 1145 0 1061.5 48.5 c 128,-1,34
 978 97 978 97 920 205 c 1,35,36
 675 138 675 138 540 71.5 c 128,-1,37
 405 5 405 5 342 -74 c 128,-1,38
 279 -153 279 -153 279 -246 c 0,39,40
 279 -377 279 -377 355 -438.5 c 128,-1,41
 431 -500 431 -500 592 -500 c 0,42,43
 695 -500 695 -500 893 -467 c 1,44,-1
 915 -608 l 1,45,46
 770 -639 770 -639 685 -648 c 128,-1,47
 600 -657 600 -657 518 -657 c 0,0,1
EndSplineSet
EndChar

StartChar: uni062F
Encoding: 1583 1583 11
AltUni2: 00fea9.ffffffff.0
Width: 1042
GlyphClass: 2
Flags: W
AnchorPoint: "Anchor-1" 450 -160 basechar 0
AnchorPoint: "Anchor-0" 350 1200 basechar 0
LayerCount: 2
Fore
SplineSet
92 160 m 1,0,-1
 774 160 l 1,1,2
 734 435 734 435 621 628.5 c 128,-1,3
 508 822 508 822 299 963 c 1,4,-1
 365 1118 l 1,5,6
 601 995 601 995 749.5 753 c 128,-1,7
 898 511 898 511 950 156 c 1,8,-1
 950 0 l 1,9,-1
 92 0 l 1,10,-1
 92 160 l 1,0,-1
EndSplineSet
Substitution2: "'fina' Terminal Forms in Arabic lookup 2 subtable" uni062F.fina
EndChar

StartChar: uni0631
Encoding: 1585 1585 12
AltUni2: 00fead.ffffffff.0
Width: 666
GlyphClass: 2
Flags: W
AnchorPoint: "Anchor-1" 200 -600 basechar 0
AnchorPoint: "Anchor-0" 360 1120 basechar 0
LayerCount: 2
Fore
SplineSet
127 -492 m 0,0,1
 29 -492 29 -492 -82 -434 c 1,2,-1
 -29 -297 l 1,3,4
 21 -319 21 -319 53 -325.5 c 128,-1,5
 85 -332 85 -332 123 -332 c 0,6,7
 215 -332 215 -332 267 -257 c 128,-1,8
 319 -182 319 -182 319 -59 c 2,9,-1
 319 993 l 1,10,-1
 492 993 l 1,11,-1
 492 -49 l 2,12,13
 492 -256 492 -256 398 -374 c 128,-1,14
 304 -492 304 -492 127 -492 c 0,0,1
EndSplineSet
Substitution2: "'fina' Terminal Forms in Arabic lookup 2 subtable" uni0631.fina
EndChar

StartChar: uni0631.fina
Encoding: 65198 65198 13
Width: 735
GlyphClass: 2
Flags: W
AnchorPoint: "Anchor-1" 200 -600 basechar 0
AnchorPoint: "Anchor-0" 360 1120 basechar 0
LayerCount: 2
Fore
SplineSet
492 0 m 1,0,-1
 492 -49 l 2,1,2
 492 -256 492 -256 398 -374 c 128,-1,3
 304 -492 304 -492 127 -492 c 0,4,5
 29 -492 29 -492 -82 -434 c 1,6,-1
 -29 -297 l 1,7,8
 21 -319 21 -319 53 -325.5 c 128,-1,9
 85 -332 85 -332 123 -332 c 0,10,11
 215 -332 215 -332 267 -257 c 128,-1,12
 319 -182 319 -182 319 -59 c 2,13,-1
 319 993 l 1,14,-1
 492 993 l 1,15,-1
 492 160 l 1,16,-1
 745 160 l 2,17,18
 756 160 756 160 756 152 c 2,19,-1
 756 10 l 2,20,21
 756 0 756 0 745 0 c 2,22,-1
 492 0 l 1,0,-1
EndSplineSet
EndChar

StartChar: uni0633
Encoding: 1587 1587 14
AltUni2: 00feb1.ffffffff.0
Width: 2544
GlyphClass: 2
Flags: W
AnchorPoint: "Anchor-1" 1680 -240 basechar 0
AnchorPoint: "Anchor-0" 1680 1000 basechar 0
LayerCount: 2
Fore
SplineSet
2071 0 m 2,0,1
 1979 0 1979 0 1901.5 30.5 c 128,-1,2
 1824 61 1824 61 1741 141 c 1,3,4
 1694 78 1694 78 1619 39 c 128,-1,5
 1544 0 1544 0 1442 0 c 2,6,-1
 1202 0 l 1,7,8
 1202 -242 1202 -242 1079 -367 c 128,-1,9
 956 -492 956 -492 692 -492 c 2,10,-1
 545 -492 l 2,11,12
 355 -492 355 -492 244 -352 c 128,-1,13
 133 -212 133 -212 133 33 c 0,14,15
 133 159 133 159 155 288.5 c 128,-1,16
 177 418 177 418 217 516 c 1,17,-1
 387 516 l 1,18,19
 317 339 317 339 317 33 c 0,20,21
 317 -142 317 -142 387 -237 c 128,-1,22
 457 -332 457 -332 584 -332 c 2,23,-1
 684 -332 l 2,24,25
 862 -332 862 -332 945 -251 c 128,-1,26
 1028 -170 1028 -170 1028 -6 c 2,27,-1
 1028 834 l 1,28,-1
 1202 834 l 1,29,-1
 1202 160 l 1,30,-1
 1423 160 l 2,31,32
 1522 160 1522 160 1577 225.5 c 128,-1,33
 1632 291 1632 291 1632 397 c 2,34,-1
 1632 834 l 1,35,-1
 1806 834 l 1,36,-1
 1806 342 l 1,37,-1
 1804 319 l 1,38,39
 1855 230 1855 230 1917 195 c 128,-1,40
 1979 160 1979 160 2071 160 c 2,41,-1
 2195 160 l 1,42,-1
 2195 993 l 1,43,-1
 2370 993 l 1,44,-1
 2370 0 l 1,45,-1
 2071 0 l 2,0,1
EndSplineSet
Substitution2: "'medi' Medial Forms in Arabic lookup 4 subtable" uni0633.medi
Substitution2: "'init' Initial Forms in Arabic lookup 3 subtable" uni0633.init
Substitution2: "'fina' Terminal Forms in Arabic lookup 2 subtable" uni0633.fina
EndChar

StartChar: uni0633.init
Encoding: 65203 65203 15
Width: 1798
GlyphClass: 2
Flags: W
AnchorPoint: "Anchor-1" 920 -160 basechar 0
AnchorPoint: "Anchor-0" 900 1000 basechar 0
LayerCount: 2
Fore
SplineSet
1325 0 m 2,0,1
 1233 0 1233 0 1155.5 30.5 c 128,-1,2
 1078 61 1078 61 995 143 c 1,3,4
 950 80 950 80 875 40 c 128,-1,5
 800 0 800 0 696 0 c 2,6,-1
 -10 0 l 2,7,8
 -20 0 -20 0 -20 10 c 2,9,-1
 -20 152 l 2,10,11
 -20 160 -20 160 -10 160 c 2,12,-1
 283 160 l 1,13,-1
 283 834 l 1,14,-1
 457 834 l 1,15,-1
 457 160 l 1,16,-1
 678 160 l 2,17,18
 777 160 777 160 832 225.5 c 128,-1,19
 887 291 887 291 887 397 c 2,20,-1
 887 834 l 1,21,-1
 1061 834 l 1,22,-1
 1061 342 l 1,23,-1
 1059 319 l 1,24,25
 1110 231 1110 231 1170.5 195.5 c 128,-1,26
 1231 160 1231 160 1325 160 c 2,27,-1
 1450 160 l 1,28,-1
 1450 993 l 1,29,-1
 1624 993 l 1,30,-1
 1624 0 l 1,31,-1
 1325 0 l 2,0,1
EndSplineSet
EndChar

StartChar: uni0633.medi
Encoding: 65204 65204 16
Width: 1888
GlyphClass: 2
Flags: W
AnchorPoint: "Anchor-1" 920 -160 basechar 0
AnchorPoint: "Anchor-0" 900 1000 basechar 0
LayerCount: 2
Fore
SplineSet
1325 0 m 2,0,1
 1233 0 1233 0 1155.5 30.5 c 128,-1,2
 1078 61 1078 61 995 143 c 1,3,4
 950 80 950 80 875 40 c 128,-1,5
 800 0 800 0 696 0 c 2,6,-1
 -10 0 l 2,7,8
 -20 0 -20 0 -20 10 c 2,9,-1
 -20 152 l 2,10,11
 -20 160 -20 160 -10 160 c 2,12,-1
 283 160 l 1,13,-1
 283 834 l 1,14,-1
 457 834 l 1,15,-1
 457 160 l 1,16,-1
 678 160 l 2,17,18
 777 160 777 160 832 225.5 c 128,-1,19
 887 291 887 291 887 397 c 2,20,-1
 887 834 l 1,21,-1
 1061 834 l 1,22,-1
 1061 342 l 1,23,-1
 1059 319 l 1,24,25
 1110 231 1110 231 1170.5 195.5 c 128,-1,26
 1231 160 1231 160 1325 160 c 2,27,-1
 1450 160 l 1,28,-1
 1450 993 l 1,29,-1
 1624 993 l 1,30,-1
 1624 160 l 1,31,-1
 1898 160 l 2,32,33
 1909 160 1909 160 1909 152 c 2,34,-1
 1909 10 l 2,35,36
 1909 0 1909 0 1898 0 c 2,37,-1
 1325 0 l 2,0,1
EndSplineSet
EndChar

StartChar: uni0633.fina
Encoding: 65202 65202 17
Width: 2634
GlyphClass: 2
Flags: W
AnchorPoint: "Anchor-1" 1680 -240 basechar 0
AnchorPoint: "Anchor-0" 1680 1000 basechar 0
LayerCount: 2
Fore
SplineSet
2071 0 m 2,0,1
 1979 0 1979 0 1901.5 30.5 c 128,-1,2
 1824 61 1824 61 1741 141 c 1,3,4
 1694 78 1694 78 1619 39 c 128,-1,5
 1544 0 1544 0 1442 0 c 2,6,-1
 1202 0 l 1,7,8
 1202 -242 1202 -242 1079 -367 c 128,-1,9
 956 -492 956 -492 692 -492 c 2,10,-1
 545 -492 l 2,11,12
 355 -492 355 -492 244 -352 c 128,-1,13
 133 -212 133 -212 133 33 c 0,14,15
 133 159 133 159 155 288.5 c 128,-1,16
 177 418 177 418 217 516 c 1,17,-1
 387 516 l 1,18,19
 317 339 317 339 317 33 c 0,20,21
 317 -142 317 -142 387 -237 c 128,-1,22
 457 -332 457 -332 584 -332 c 2,23,-1
 684 -332 l 2,24,25
 862 -332 862 -332 945 -251 c 128,-1,26
 1028 -170 1028 -170 1028 -6 c 2,27,-1
 1028 834 l 1,28,-1
 1202 834 l 1,29,-1
 1202 160 l 1,30,-1
 1423 160 l 2,31,32
 1522 160 1522 160 1577 225.5 c 128,-1,33
 1632 291 1632 291 1632 397 c 2,34,-1
 1632 834 l 1,35,-1
 1806 834 l 1,36,-1
 1806 342 l 1,37,-1
 1804 319 l 1,38,39
 1855 230 1855 230 1917 195 c 128,-1,40
 1979 160 1979 160 2071 160 c 2,41,-1
 2195 160 l 1,42,-1
 2195 993 l 1,43,-1
 2370 993 l 1,44,-1
 2370 160 l 1,45,-1
 2644 160 l 2,46,47
 2654 160 2654 160 2654 152 c 2,48,-1
 2654 10 l 2,49,50
 2654 0 2654 0 2644 0 c 2,51,-1
 2071 0 l 2,0,1
EndSplineSet
EndChar

StartChar: uni0635
Encoding: 1589 1589 18
AltUni2: 00feb9.ffffffff.0
Width: 2392
GlyphClass: 2
Flags: W
AnchorPoint: "Anchor-1" 1660 -160 basechar 0
AnchorPoint: "Anchor-0" 1700 1200 basechar 0
LayerCount: 2
Fore
SplineSet
545 -492 m 2,0,1
 355 -492 355 -492 244 -352 c 128,-1,2
 133 -212 133 -212 133 33 c 0,3,4
 133 159 133 159 155 288.5 c 128,-1,5
 177 418 177 418 217 516 c 1,6,-1
 387 516 l 1,7,8
 317 339 317 339 317 33 c 0,9,10
 317 -142 317 -142 387 -237 c 128,-1,11
 457 -332 457 -332 584 -332 c 2,12,-1
 684 -332 l 2,13,14
 862 -332 862 -332 945 -251 c 128,-1,15
 1028 -170 1028 -170 1028 -6 c 2,16,-1
 1028 993 l 1,17,-1
 1202 993 l 1,18,-1
 1202 553 l 1,19,20
 1298 782 1298 782 1443 898 c 128,-1,21
 1588 1014 1588 1014 1769 1014 c 0,22,23
 2001 1014 2001 1014 2119.5 888 c 128,-1,24
 2238 762 2238 762 2238 494 c 2,25,-1
 2238 0 l 1,26,-1
 1202 0 l 1,27,28
 1202 -248 1202 -248 1079 -370 c 128,-1,29
 956 -492 956 -492 692 -492 c 2,30,-1
 545 -492 l 2,0,1
2064 160 m 1,31,-1
 2064 485 l 2,32,33
 2064 674 2064 674 1982 763 c 128,-1,34
 1900 852 1900 852 1733 852 c 0,35,36
 1416 852 1416 852 1202 332 c 1,37,-1
 1202 160 l 1,38,-1
 2064 160 l 1,31,-1
EndSplineSet
Substitution2: "'medi' Medial Forms in Arabic lookup 4 subtable" uni0635.medi
Substitution2: "'init' Initial Forms in Arabic lookup 3 subtable" uni0635.init
Substitution2: "'fina' Terminal Forms in Arabic lookup 2 subtable" uni0635.fina
EndChar

StartChar: uni0635.init
Encoding: 65211 65211 19
Width: 1604
GlyphClass: 2
Flags: W
AnchorPoint: "Anchor-1" 800 -160 basechar 0
AnchorPoint: "Anchor-0" 860 1200 basechar 0
LayerCount: 2
Fore
SplineSet
-10 0 m 2,0,1
 -20 0 -20 0 -20 10 c 2,2,-1
 -20 152 l 2,3,4
 -20 160 -20 160 -10 160 c 2,5,-1
 240 160 l 1,6,-1
 240 932 l 1,7,-1
 414 932 l 1,8,-1
 414 553 l 1,9,10
 510 782 510 782 655 898 c 128,-1,11
 800 1014 800 1014 981 1014 c 0,12,13
 1213 1014 1213 1014 1331.5 888 c 128,-1,14
 1450 762 1450 762 1450 494 c 2,15,-1
 1450 0 l 1,16,-1
 -10 0 l 2,0,1
1276 160 m 1,17,-1
 1276 485 l 2,18,19
 1276 674 1276 674 1193.5 763 c 128,-1,20
 1111 852 1111 852 944 852 c 0,21,22
 629 852 629 852 414 328 c 1,23,-1
 414 160 l 1,24,-1
 1276 160 l 1,17,-1
EndSplineSet
EndChar

StartChar: uni0635.medi
Encoding: 65212 65212 20
Width: 1710
GlyphClass: 2
Flags: W
AnchorPoint: "Anchor-1" 800 -160 basechar 0
AnchorPoint: "Anchor-0" 860 1200 basechar 0
LayerCount: 2
Fore
SplineSet
-10 0 m 2,0,1
 -20 0 -20 0 -20 10 c 2,2,-1
 -20 152 l 2,3,4
 -20 160 -20 160 -10 160 c 2,5,-1
 240 160 l 1,6,-1
 240 932 l 1,7,-1
 414 932 l 1,8,-1
 414 553 l 1,9,10
 510 782 510 782 655 898 c 128,-1,11
 800 1014 800 1014 981 1014 c 0,12,13
 1213 1014 1213 1014 1331.5 888 c 128,-1,14
 1450 762 1450 762 1450 494 c 2,15,-1
 1450 160 l 1,16,-1
 1720 160 l 2,17,18
 1731 160 1731 160 1731 152 c 2,19,-1
 1731 10 l 2,20,21
 1731 0 1731 0 1720 0 c 2,22,-1
 -10 0 l 2,0,1
1276 160 m 1,23,-1
 1276 485 l 2,24,25
 1276 674 1276 674 1193.5 763 c 128,-1,26
 1111 852 1111 852 944 852 c 0,27,28
 629 852 629 852 414 328 c 1,29,-1
 414 160 l 1,30,-1
 1276 160 l 1,23,-1
EndSplineSet
EndChar

StartChar: uni0635.fina
Encoding: 65210 65210 21
Width: 2503
GlyphClass: 2
Flags: W
AnchorPoint: "Anchor-1" 1660 -160 basechar 0
AnchorPoint: "Anchor-0" 1700 1200 basechar 0
LayerCount: 2
Fore
SplineSet
1202 0 m 1,0,1
 1202 -248 1202 -248 1079 -370 c 128,-1,2
 956 -492 956 -492 692 -492 c 2,3,-1
 545 -492 l 2,4,5
 355 -492 355 -492 244 -352 c 128,-1,6
 133 -212 133 -212 133 33 c 0,7,8
 133 159 133 159 155 288.5 c 128,-1,9
 177 418 177 418 217 516 c 1,10,-1
 387 516 l 1,11,12
 317 339 317 339 317 33 c 0,13,14
 317 -142 317 -142 387 -237 c 128,-1,15
 457 -332 457 -332 584 -332 c 2,16,-1
 684 -332 l 2,17,18
 862 -332 862 -332 945 -251 c 128,-1,19
 1028 -170 1028 -170 1028 -6 c 2,20,-1
 1028 993 l 1,21,-1
 1202 993 l 1,22,-1
 1202 553 l 1,23,24
 1298 782 1298 782 1443 898 c 128,-1,25
 1588 1014 1588 1014 1769 1014 c 0,26,27
 2001 1014 2001 1014 2119.5 888 c 128,-1,28
 2238 762 2238 762 2238 494 c 2,29,-1
 2238 160 l 1,30,-1
 2513 160 l 2,31,32
 2523 160 2523 160 2523 152 c 2,33,-1
 2523 10 l 2,34,35
 2523 0 2523 0 2513 0 c 2,36,-1
 1202 0 l 1,0,1
2064 160 m 1,37,-1
 2064 485 l 2,38,39
 2064 674 2064 674 1982 763 c 128,-1,40
 1900 852 1900 852 1733 852 c 0,41,42
 1416 852 1416 852 1202 332 c 1,43,-1
 1202 160 l 1,44,-1
 2064 160 l 1,37,-1
EndSplineSet
EndChar

StartChar: uni0637
Encoding: 1591 1591 22
AltUni2: 00fec1.ffffffff.0
Width: 1645
GlyphClass: 2
Flags: W
AnchorPoint: "Anchor-1" 800 -160 basechar 0
AnchorPoint: "Anchor-0" 860 1500 basechar 0
LayerCount: 2
Fore
SplineSet
51 0 m 2,0,1
 41 0 41 0 41 10 c 2,2,-1
 41 152 l 2,3,4
 41 160 41 160 51 160 c 2,5,-1
 301 160 l 1,6,-1
 301 1556 l 1,7,-1
 475 1556 l 1,8,-1
 475 553 l 1,9,10
 571 782 571 782 716 898 c 128,-1,11
 861 1014 861 1014 1042 1014 c 0,12,13
 1274 1014 1274 1014 1392.5 888 c 128,-1,14
 1511 762 1511 762 1511 494 c 2,15,-1
 1511 0 l 1,16,-1
 51 0 l 2,0,1
1337 160 m 1,17,-1
 1337 485 l 2,18,19
 1337 674 1337 674 1255 763 c 128,-1,20
 1173 852 1173 852 1006 852 c 0,21,22
 851 852 851 852 717 721.5 c 128,-1,23
 583 591 583 591 475 328 c 1,24,-1
 475 160 l 1,25,-1
 1337 160 l 1,17,-1
EndSplineSet
Substitution2: "'medi' Medial Forms in Arabic lookup 4 subtable" uni0637.medi
Substitution2: "'init' Initial Forms in Arabic lookup 3 subtable" uni0637.init
Substitution2: "'fina' Terminal Forms in Arabic lookup 2 subtable" uni0637.fina
EndChar

StartChar: uni0637.init
Encoding: 65219 65219 23
Width: 1583
GlyphClass: 2
Flags: W
AnchorPoint: "Anchor-1" 740 -160 basechar 0
AnchorPoint: "Anchor-0" 800 1500 basechar 0
LayerCount: 2
Fore
SplineSet
-10 0 m 2,0,1
 -20 0 -20 0 -20 10 c 2,2,-1
 -20 152 l 2,3,4
 -20 160 -20 160 -10 160 c 2,5,-1
 240 160 l 1,6,-1
 240 1556 l 1,7,-1
 414 1556 l 1,8,-1
 414 553 l 1,9,10
 510 782 510 782 655 898 c 128,-1,11
 800 1014 800 1014 981 1014 c 0,12,13
 1213 1014 1213 1014 1331.5 888 c 128,-1,14
 1450 762 1450 762 1450 494 c 2,15,-1
 1450 0 l 1,16,-1
 -10 0 l 2,0,1
1276 160 m 1,17,-1
 1276 485 l 2,18,19
 1276 674 1276 674 1193.5 763 c 128,-1,20
 1111 852 1111 852 944 852 c 0,21,22
 629 852 629 852 414 328 c 1,23,-1
 414 160 l 1,24,-1
 1276 160 l 1,17,-1
EndSplineSet
EndChar

StartChar: uni0637.medi
Encoding: 65220 65220 24
Width: 1710
GlyphClass: 2
Flags: W
AnchorPoint: "Anchor-1" 740 -160 basechar 0
AnchorPoint: "Anchor-0" 800 1500 basechar 0
LayerCount: 2
Fore
SplineSet
-10 0 m 2,0,1
 -20 0 -20 0 -20 10 c 2,2,-1
 -20 152 l 2,3,4
 -20 160 -20 160 -10 160 c 2,5,-1
 240 160 l 1,6,-1
 240 1556 l 1,7,-1
 414 1556 l 1,8,-1
 414 553 l 1,9,10
 510 782 510 782 655 898 c 128,-1,11
 800 1014 800 1014 981 1014 c 0,12,13
 1213 1014 1213 1014 1331.5 888 c 128,-1,14
 1450 762 1450 762 1450 494 c 2,15,-1
 1450 160 l 1,16,-1
 1720 160 l 2,17,18
 1731 160 1731 160 1731 152 c 2,19,-1
 1731 10 l 2,20,21
 1731 0 1731 0 1720 0 c 2,22,-1
 -10 0 l 2,0,1
1276 160 m 1,23,-1
 1276 485 l 2,24,25
 1276 674 1276 674 1193.5 763 c 128,-1,26
 1111 852 1111 852 944 852 c 0,27,28
 629 852 629 852 414 328 c 1,29,-1
 414 160 l 1,30,-1
 1276 160 l 1,23,-1
EndSplineSet
EndChar

StartChar: uni0637.fina
Encoding: 65218 65218 25
Width: 1731
GlyphClass: 2
Flags: W
AnchorPoint: "Anchor-1" 800 -160 basechar 0
AnchorPoint: "Anchor-0" 860 1500 basechar 0
LayerCount: 2
Fore
SplineSet
61 160 m 1,0,-1
 260 160 l 1,1,-1
 260 1556 l 1,2,-1
 434 1556 l 1,3,-1
 434 553 l 1,4,5
 530 782 530 782 675 898 c 128,-1,6
 820 1014 820 1014 1001 1014 c 0,7,8
 1233 1014 1233 1014 1351.5 888 c 128,-1,9
 1470 762 1470 762 1470 494 c 2,10,-1
 1470 160 l 1,11,-1
 1741 160 l 2,12,13
 1751 160 1751 160 1751 152 c 2,14,-1
 1751 10 l 2,15,16
 1751 0 1751 0 1741 0 c 2,17,-1
 61 0 l 1,18,-1
 61 160 l 1,0,-1
1296 160 m 1,19,-1
 1296 485 l 2,20,21
 1296 674 1296 674 1214 763 c 128,-1,22
 1132 852 1132 852 965 852 c 0,23,24
 810 852 810 852 676 721.5 c 128,-1,25
 542 591 542 591 434 328 c 1,26,-1
 434 160 l 1,27,-1
 1296 160 l 1,19,-1
EndSplineSet
EndChar

StartChar: uni0639
Encoding: 1593 1593 26
AltUni2: 00fec9.ffffffff.0
Width: 1096
GlyphClass: 2
Flags: W
AnchorPoint: "Anchor-1" 400 -780 basechar 0
AnchorPoint: "Anchor-0" 600 1200 basechar 0
LayerCount: 2
Fore
SplineSet
559 -657 m 0,0,1
 361 -657 361 -657 247 -553.5 c 128,-1,2
 133 -450 133 -450 133 -262 c 0,3,4
 133 -35 133 -35 397 141 c 1,5,6
 215 300 215 300 215 549 c 0,7,8
 215 691 215 691 280 796 c 128,-1,9
 345 901 345 901 460.5 957.5 c 128,-1,10
 576 1014 576 1014 719 1014 c 0,11,12
 807 1014 807 1014 881.5 996.5 c 128,-1,13
 956 979 956 979 1004 954 c 1,14,-1
 948 801 l 1,15,16
 821 854 821 854 709 854 c 0,17,18
 562 854 562 854 481.5 775.5 c 128,-1,19
 401 697 401 697 401 551 c 0,20,21
 401 445 401 445 434.5 356.5 c 128,-1,22
 468 268 468 268 526 217 c 1,23,24
 697 302 697 302 879 356 c 1,25,-1
 928 205 l 1,26,27
 747 160 747 160 602.5 86.5 c 128,-1,28
 458 13 458 13 388.5 -71 c 128,-1,29
 319 -155 319 -155 319 -246 c 0,30,31
 319 -378 319 -378 396 -439 c 128,-1,32
 473 -500 473 -500 633 -500 c 0,33,34
 736 -500 736 -500 934 -467 c 1,35,-1
 956 -608 l 1,36,37
 811 -639 811 -639 726 -648 c 128,-1,38
 641 -657 641 -657 559 -657 c 0,0,1
EndSplineSet
Substitution2: "'medi' Medial Forms in Arabic lookup 4 subtable" uni0639.medi
Substitution2: "'init' Initial Forms in Arabic lookup 3 subtable" uni0639.init
Substitution2: "'fina' Terminal Forms in Arabic lookup 2 subtable" uni0639.fina
EndChar

StartChar: uni0639.init
Encoding: 65227 65227 27
Width: 1055
GlyphClass: 2
Flags: W
AnchorPoint: "Anchor-1" 500 -160 basechar 0
AnchorPoint: "Anchor-0" 560 1200 basechar 0
LayerCount: 2
Fore
SplineSet
-10 0 m 2,0,1
 -20 0 -20 0 -20 10 c 2,2,-1
 -20 152 l 2,3,4
 -20 160 -20 160 -10 160 c 2,5,-1
 305 160 l 1,6,7
 240 215 240 215 200 311 c 128,-1,8
 160 407 160 407 160 524 c 0,9,10
 160 755 160 755 292.5 884.5 c 128,-1,11
 425 1014 425 1014 647 1014 c 0,12,13
 735 1014 735 1014 809.5 996.5 c 128,-1,14
 884 979 884 979 932 954 c 1,15,-1
 877 801 l 1,16,17
 750 854 750 854 637 854 c 0,18,19
 346 854 346 854 346 516 c 0,20,21
 346 357 346 357 415.5 258.5 c 128,-1,22
 485 160 485 160 598 160 c 2,23,-1
 963 160 l 1,24,-1
 963 0 l 1,25,-1
 -10 0 l 2,0,1
EndSplineSet
EndChar

StartChar: uni0639.medi
Encoding: 65228 65228 28
Width: 1217
GlyphClass: 2
Flags: W
AnchorPoint: "Anchor-1" 500 -160 basechar 0
AnchorPoint: "Anchor-0" 560 1200 basechar 0
LayerCount: 2
Fore
SplineSet
987 0 m 2,0,1
 901 0 901 0 802 25.5 c 128,-1,2
 703 51 703 51 608 102 c 1,3,4
 428 0 428 0 227 0 c 2,5,-1
 -10 0 l 2,6,7
 -20 0 -20 0 -20 10 c 2,8,-1
 -20 152 l 2,9,10
 -20 160 -20 160 -10 160 c 2,11,-1
 225 160 l 2,12,13
 372 160 372 160 469 201 c 1,14,15
 390 258 390 258 307.5 365.5 c 128,-1,16
 225 473 225 473 167.5 597.5 c 128,-1,17
 110 722 110 722 92 834 c 1,18,19
 204 939 204 939 344.5 999 c 128,-1,20
 485 1059 485 1059 631 1059 c 0,21,22
 760 1059 760 1059 891 1018 c 128,-1,23
 1022 977 1022 977 1120 909 c 1,24,25
 1120 697 1120 697 1022 509 c 128,-1,26
 924 321 924 321 752 203 c 1,27,28
 866 160 866 160 979 160 c 2,29,-1
 1227 160 l 2,30,31
 1237 160 1237 160 1237 152 c 2,32,-1
 1237 10 l 2,33,34
 1237 0 1237 0 1227 0 c 2,35,-1
 987 0 l 2,0,1
610 293 m 1,36,37
 768 400 768 400 845 528 c 128,-1,38
 922 656 922 656 932 823 c 1,39,40
 789 899 789 899 637 899 c 0,41,42
 463 899 463 899 289 780 c 1,43,44
 320 640 320 640 405 512 c 128,-1,45
 490 384 490 384 610 293 c 1,36,37
EndSplineSet
EndChar

StartChar: uni0639.fina
Encoding: 65226 65226 29
Width: 1257
GlyphClass: 2
Flags: W
AnchorPoint: "Anchor-1" 400 -780 basechar 0
AnchorPoint: "Anchor-0" 600 1200 basechar 0
LayerCount: 2
Fore
SplineSet
193 -262 m 0,0,1
 193 -134 193 -134 267 -20.5 c 128,-1,2
 341 93 341 93 504 205 c 1,3,4
 359 344 359 344 257 515.5 c 128,-1,5
 155 687 155 687 133 834 c 1,6,7
 245 939 245 939 385.5 999 c 128,-1,8
 526 1059 526 1059 672 1059 c 0,9,10
 801 1059 801 1059 932 1018 c 128,-1,11
 1063 977 1063 977 1161 909 c 1,12,13
 1157 712 1157 712 1062 529.5 c 128,-1,14
 967 347 967 347 788 207 c 1,15,16
 899 160 899 160 1020 160 c 2,17,-1
 1268 160 l 2,18,19
 1278 160 1278 160 1278 152 c 2,20,-1
 1278 10 l 2,21,22
 1278 0 1278 0 1268 0 c 2,23,-1
 1028 0 l 2,24,25
 950 0 950 0 840 31 c 128,-1,26
 730 62 730 62 643 109 c 1,27,28
 497 16 497 16 438 -68.5 c 128,-1,29
 379 -153 379 -153 379 -246 c 0,30,31
 379 -377 379 -377 455 -438.5 c 128,-1,32
 531 -500 531 -500 692 -500 c 0,33,34
 773 -500 773 -500 847 -489.5 c 128,-1,35
 921 -479 921 -479 993 -467 c 1,36,-1
 1016 -608 l 1,37,38
 868 -639 868 -639 788 -648 c 128,-1,39
 708 -657 708 -657 618 -657 c 0,40,41
 420 -657 420 -657 306.5 -553 c 128,-1,42
 193 -449 193 -449 193 -262 c 0,0,1
330 780 m 1,43,44
 355 662 355 662 440 530 c 128,-1,45
 525 398 525 398 645 299 c 1,46,47
 802 407 802 407 881.5 534 c 128,-1,48
 961 661 961 661 973 823 c 1,49,50
 830 899 830 899 678 899 c 0,51,52
 504 899 504 899 330 780 c 1,43,44
EndSplineSet
EndChar

StartChar: uni0643.init
Encoding: 65243 65243 30
Width: 1180
GlyphClass: 2
Flags: W
AnchorPoint: "Anchor-1" 500 -160 basechar 0
AnchorPoint: "Anchor-0" 260 1550 basechar 0
LayerCount: 2
Fore
SplineSet
-10 0 m 2,0,1
 -20 0 -20 0 -20 10 c 2,2,-1
 -20 152 l 2,3,4
 -20 160 -20 160 -10 160 c 2,5,-1
 852 160 l 1,6,-1
 852 537 l 2,7,8
 852 690 852 690 760 762 c 128,-1,9
 668 834 668 834 475 834 c 2,10,-1
 127 834 l 1,11,-1
 127 1001 l 1,12,13
 193 1139 193 1139 309 1272.5 c 128,-1,14
 425 1406 425 1406 568.5 1510.5 c 128,-1,15
 712 1615 712 1615 848 1667 c 1,16,-1
 913 1511 l 1,17,18
 725 1437 725 1437 545 1286.5 c 128,-1,19
 365 1136 365 1136 297 993 c 1,20,-1
 475 993 l 2,21,22
 743 993 743 993 884.5 883 c 128,-1,23
 1026 773 1026 773 1026 567 c 2,24,-1
 1026 0 l 1,25,-1
 -10 0 l 2,0,1
EndSplineSet
EndChar

StartChar: uni0643.medi
Encoding: 65244 65244 31
Width: 1282
GlyphClass: 2
Flags: W
AnchorPoint: "Anchor-1" 500 -160 basechar 0
AnchorPoint: "Anchor-0" 260 1550 basechar 0
LayerCount: 2
Fore
SplineSet
-10 0 m 2,0,1
 -20 0 -20 0 -20 10 c 2,2,-1
 -20 152 l 2,3,4
 -20 160 -20 160 -10 160 c 2,5,-1
 852 160 l 1,6,-1
 852 537 l 2,7,8
 852 690 852 690 760 762 c 128,-1,9
 668 834 668 834 475 834 c 2,10,-1
 127 834 l 1,11,-1
 127 1001 l 1,12,13
 193 1139 193 1139 309 1272.5 c 128,-1,14
 425 1406 425 1406 568.5 1510.5 c 128,-1,15
 712 1615 712 1615 848 1667 c 1,16,-1
 913 1511 l 1,17,18
 725 1437 725 1437 545 1286.5 c 128,-1,19
 365 1136 365 1136 297 993 c 1,20,-1
 475 993 l 2,21,22
 743 993 743 993 884.5 883 c 128,-1,23
 1026 773 1026 773 1026 567 c 2,24,-1
 1026 160 l 1,25,-1
 1292 160 l 2,26,27
 1303 160 1303 160 1303 152 c 2,28,-1
 1303 10 l 2,29,30
 1303 0 1303 0 1292 0 c 2,31,-1
 -10 0 l 2,0,1
EndSplineSet
EndChar

StartChar: uni0643
Encoding: 1603 1603 32
AltUni2: 00fed9.ffffffff.0
Width: 1624
GlyphClass: 2
Flags: W
AnchorPoint: "Anchor-1" 800 -160 basechar 0
AnchorPoint: "Anchor-0" 700 1100 basechar 0
LayerCount: 2
Fore
SplineSet
586 731 m 1,0,-1
 682 745 l 1,1,2
 610 792 610 792 610 874 c 0,3,4
 610 961 610 961 667 1010 c 128,-1,5
 724 1059 724 1059 819 1059 c 0,6,7
 895 1059 895 1059 954 1028 c 1,8,-1
 924 936 l 1,9,10
 881 961 881 961 821 961 c 0,11,12
 776 961 776 961 745.5 935.5 c 128,-1,13
 715 910 715 910 715 856 c 0,14,15
 715 821 715 821 732.5 796.5 c 128,-1,16
 750 772 750 772 776 760 c 1,17,18
 800 765 800 765 876 775.5 c 128,-1,19
 952 786 952 786 981 786 c 1,20,-1
 981 686 l 1,21,22
 964 686 964 686 891 678.5 c 128,-1,23
 818 671 818 671 783 666 c 0,24,25
 606 641 606 641 586 637 c 1,26,-1
 586 731 l 1,0,-1
516 0 m 2,27,28
 330 0 330 0 231.5 95 c 128,-1,29
 133 190 133 190 133 367 c 0,30,31
 133 503 133 503 184 643 c 1,32,-1
 338 643 l 1,33,34
 307 497 307 497 307 381 c 0,35,36
 307 278 307 278 361.5 219 c 128,-1,37
 416 160 416 160 510 160 c 2,38,-1
 1245 160 l 1,39,-1
 1245 1556 l 1,40,-1
 1419 1556 l 1,41,-1
 1419 0 l 1,42,-1
 516 0 l 2,27,28
EndSplineSet
Substitution2: "'medi' Medial Forms in Arabic lookup 4 subtable" uni0643.medi
Substitution2: "'init' Initial Forms in Arabic lookup 3 subtable" uni0643.init
Substitution2: "'fina' Terminal Forms in Arabic lookup 2 subtable" uni0643.fina
EndChar

StartChar: uni0643.fina
Encoding: 65242 65242 33
Width: 1681
GlyphClass: 2
Flags: W
AnchorPoint: "Anchor-1" 800 -160 basechar 0
AnchorPoint: "Anchor-0" 700 1100 basechar 0
LayerCount: 2
Fore
SplineSet
516 0 m 2,0,1
 330 0 330 0 231.5 95 c 128,-1,2
 133 190 133 190 133 367 c 0,3,4
 133 503 133 503 184 643 c 1,5,-1
 338 643 l 1,6,7
 307 497 307 497 307 381 c 0,8,9
 307 278 307 278 361.5 219 c 128,-1,10
 416 160 416 160 510 160 c 2,11,-1
 1245 160 l 1,12,-1
 1245 1556 l 1,13,-1
 1419 1556 l 1,14,-1
 1419 160 l 1,15,-1
 1692 160 l 2,16,17
 1702 160 1702 160 1702 152 c 2,18,-1
 1702 10 l 2,19,20
 1702 0 1702 0 1692 0 c 2,21,-1
 516 0 l 2,0,1
586 731 m 1,22,-1
 682 745 l 1,23,24
 610 792 610 792 610 874 c 0,25,26
 610 961 610 961 667 1010 c 128,-1,27
 724 1059 724 1059 819 1059 c 0,28,29
 895 1059 895 1059 954 1028 c 1,30,-1
 924 936 l 1,31,32
 881 961 881 961 821 961 c 0,33,34
 776 961 776 961 745.5 935.5 c 128,-1,35
 715 910 715 910 715 856 c 0,36,37
 715 821 715 821 732.5 796.5 c 128,-1,38
 750 772 750 772 776 760 c 1,39,40
 800 765 800 765 876 775.5 c 128,-1,41
 952 786 952 786 981 786 c 1,42,-1
 981 686 l 1,43,44
 964 686 964 686 891 678.5 c 128,-1,45
 818 671 818 671 783 666 c 0,46,47
 606 641 606 641 586 637 c 1,48,-1
 586 731 l 1,22,-1
EndSplineSet
EndChar

StartChar: uni0644
Encoding: 1604 1604 34
AltUni2: 00fedd.ffffffff.0
Width: 1407
GlyphClass: 2
Flags: W
AnchorPoint: "Anchor-1" 700 -660 basechar 0
AnchorPoint: "Anchor-0" 500 1500 basechar 0
LayerCount: 2
Fore
SplineSet
545 -492 m 2,0,1
 355 -492 355 -492 244 -352 c 128,-1,2
 133 -212 133 -212 133 33 c 0,3,4
 133 159 133 159 155 288.5 c 128,-1,5
 177 418 177 418 217 516 c 1,6,-1
 387 516 l 1,7,8
 317 339 317 339 317 33 c 0,9,10
 317 -142 317 -142 387 -237 c 128,-1,11
 457 -332 457 -332 584 -332 c 2,12,-1
 684 -332 l 2,13,14
 862 -332 862 -332 945 -251 c 128,-1,15
 1028 -170 1028 -170 1028 -6 c 2,16,-1
 1028 1556 l 1,17,-1
 1202 1556 l 1,18,-1
 1202 8 l 2,19,20
 1202 -240 1202 -240 1079 -366 c 128,-1,21
 956 -492 956 -492 692 -492 c 2,22,-1
 545 -492 l 2,0,1
EndSplineSet
Substitution2: "'medi' Medial Forms in Arabic lookup 4 subtable" uni0644.medi
Substitution2: "'init' Initial Forms in Arabic lookup 3 subtable" uni0644.init
Substitution2: "'fina' Terminal Forms in Arabic lookup 2 subtable" uni0644.fina
EndChar

StartChar: uni0644.init
Encoding: 65247 65247 35
Width: 647
GlyphClass: 2
Flags: W
AnchorPoint: "Anchor-1" 230 -160 basechar 0
AnchorPoint: "Anchor-0" 320 1700 basechar 0
LayerCount: 2
Fore
SplineSet
-10 0 m 2,0,1
 -20 0 -20 0 -20 10 c 2,2,-1
 -20 152 l 2,3,4
 -20 160 -20 160 -10 160 c 2,5,-1
 260 160 l 1,6,-1
 260 1556 l 1,7,-1
 442 1556 l 1,8,-1
 442 0 l 1,9,-1
 -10 0 l 2,0,1
EndSplineSet
EndChar

StartChar: uni0644.medi
Encoding: 65248 65248 36
Width: 698
GlyphClass: 2
Flags: W
AnchorPoint: "Anchor-1" 300 -160 basechar 0
AnchorPoint: "Anchor-0" 320 1700 basechar 0
LayerCount: 2
Fore
SplineSet
-10 0 m 2,0,1
 -20 0 -20 0 -20 10 c 2,2,-1
 -20 152 l 2,3,4
 -20 160 -20 160 -10 160 c 2,5,-1
 260 160 l 1,6,-1
 260 1556 l 1,7,-1
 442 1556 l 1,8,-1
 442 160 l 1,9,-1
 709 160 l 2,10,11
 719 160 719 160 719 152 c 2,12,-1
 719 10 l 2,13,14
 719 0 719 0 709 0 c 2,15,-1
 -10 0 l 2,0,1
EndSplineSet
EndChar

StartChar: uni0644.fina
Encoding: 65246 65246 37
Width: 1417
GlyphClass: 2
Flags: W
AnchorPoint: "Anchor-1" 700 -660 basechar 0
AnchorPoint: "Anchor-0" 500 1500 basechar 0
LayerCount: 2
Fore
SplineSet
1202 0 m 1,0,1
 1199 -243 1199 -243 1076 -367.5 c 128,-1,2
 953 -492 953 -492 692 -492 c 2,3,-1
 545 -492 l 2,4,5
 355 -492 355 -492 244 -352 c 128,-1,6
 133 -212 133 -212 133 33 c 0,7,8
 133 159 133 159 155 288.5 c 128,-1,9
 177 418 177 418 217 516 c 1,10,-1
 387 516 l 1,11,12
 317 339 317 339 317 33 c 0,13,14
 317 -142 317 -142 387 -237 c 128,-1,15
 457 -332 457 -332 584 -332 c 2,16,-1
 684 -332 l 2,17,18
 862 -332 862 -332 945 -251 c 128,-1,19
 1028 -170 1028 -170 1028 -6 c 2,20,-1
 1028 1556 l 1,21,-1
 1202 1556 l 1,22,-1
 1202 160 l 1,23,-1
 1427 160 l 2,24,25
 1438 160 1438 160 1438 152 c 2,26,-1
 1438 10 l 2,27,28
 1438 0 1438 0 1427 0 c 2,29,-1
 1202 0 l 1,0,1
EndSplineSet
EndChar

StartChar: uni0645
Encoding: 1605 1605 38
AltUni2: 00fee1.ffffffff.0
Width: 1329
GlyphClass: 2
Flags: W
AnchorPoint: "Anchor-1" 740 -200 basechar 0
AnchorPoint: "Anchor-0" 700 1160 basechar 0
LayerCount: 2
Fore
SplineSet
451 0 m 2,0,1
 305 0 305 0 305 -150 c 2,2,-1
 305 -655 l 1,3,-1
 133 -655 l 1,4,-1
 133 -119 l 2,5,6
 133 -30 133 -30 166 32 c 128,-1,7
 199 94 199 94 255.5 127 c 128,-1,8
 312 160 312 160 383 160 c 2,9,-1
 397 160 l 1,10,11
 322 355 322 355 322 510 c 0,12,13
 322 692 322 692 395 836 c 1,14,15
 471 899 471 899 568 936 c 128,-1,16
 665 973 665 973 770 973 c 0,17,18
 898 973 898 973 995 916.5 c 128,-1,19
 1092 860 1092 860 1144 756 c 128,-1,20
 1196 652 1196 652 1196 520 c 0,21,22
 1196 359 1196 359 1137.5 242 c 128,-1,23
 1079 125 1079 125 972.5 62.5 c 128,-1,24
 866 0 866 0 729 0 c 2,25,-1
 451 0 l 2,0,1
506 545 m 0,26,27
 506 450 506 450 522.5 358.5 c 128,-1,28
 539 267 539 267 584 160 c 1,29,-1
 729 160 l 2,30,31
 866 160 866 160 939 253 c 128,-1,32
 1012 346 1012 346 1012 522 c 0,33,34
 1012 651 1012 651 941.5 733 c 128,-1,35
 871 815 871 815 770 815 c 0,36,37
 641 815 641 815 530 731 c 1,38,39
 513 688 513 688 509.5 643.5 c 128,-1,40
 506 599 506 599 506 545 c 0,26,27
EndSplineSet
Substitution2: "'medi' Medial Forms in Arabic lookup 4 subtable" uni0645.medi
Substitution2: "'init' Initial Forms in Arabic lookup 3 subtable" uni0645.init
Substitution2: "'fina' Terminal Forms in Arabic lookup 2 subtable" uni0645.fina
EndChar

StartChar: uni0645.init
Encoding: 65251 65251 39
Width: 1176
GlyphClass: 2
Flags: W
AnchorPoint: "Anchor-1" 520 -160 basechar 0
AnchorPoint: "Anchor-0" 560 1160 basechar 0
LayerCount: 2
Fore
SplineSet
-10 0 m 2,0,1
 -20 0 -20 0 -20 10 c 2,2,-1
 -20 152 l 2,3,4
 -20 160 -20 160 -10 160 c 2,5,-1
 244 160 l 1,6,7
 168 358 168 358 168 510 c 0,8,9
 168 693 168 693 242 836 c 1,10,11
 317 899 317 899 414 936 c 128,-1,12
 511 973 511 973 616 973 c 0,13,14
 744 973 744 973 841 916.5 c 128,-1,15
 938 860 938 860 990 756 c 128,-1,16
 1042 652 1042 652 1042 520 c 0,17,18
 1042 359 1042 359 983.5 242 c 128,-1,19
 925 125 925 125 818.5 62.5 c 128,-1,20
 712 0 712 0 575 0 c 2,21,-1
 -10 0 l 2,0,1
352 545 m 0,22,23
 352 450 352 450 369 358.5 c 128,-1,24
 386 267 386 267 430 160 c 1,25,-1
 575 160 l 2,26,27
 712 160 712 160 785 253 c 128,-1,28
 858 346 858 346 858 522 c 0,29,30
 858 651 858 651 787.5 733 c 128,-1,31
 717 815 717 815 616 815 c 0,32,33
 551 815 551 815 488.5 792 c 128,-1,34
 426 769 426 769 377 731 c 1,35,36
 360 688 360 688 356 643.5 c 128,-1,37
 352 599 352 599 352 545 c 0,22,23
EndSplineSet
EndChar

StartChar: uni0645.medi
Encoding: 65252 65252 40
Width: 1241
GlyphClass: 2
Flags: W
AnchorPoint: "Anchor-1" 520 -160 basechar 0
AnchorPoint: "Anchor-0" 560 1160 basechar 0
LayerCount: 2
Fore
SplineSet
-10 0 m 2,0,1
 -20 0 -20 0 -20 10 c 2,2,-1
 -20 152 l 2,3,4
 -20 160 -20 160 -10 160 c 2,5,-1
 244 160 l 1,6,7
 168 358 168 358 168 510 c 0,8,9
 168 693 168 693 242 836 c 1,10,11
 317 899 317 899 414 936 c 128,-1,12
 511 973 511 973 616 973 c 0,13,14
 744 973 744 973 841 916.5 c 128,-1,15
 938 860 938 860 990 756 c 128,-1,16
 1042 652 1042 652 1042 520 c 0,17,18
 1042 389 1042 389 999 279 c 1,19,20
 1043 212 1043 212 1097.5 186 c 128,-1,21
 1152 160 1152 160 1241 160 c 2,22,-1
 1251 160 l 2,23,24
 1262 160 1262 160 1262 152 c 2,25,-1
 1262 10 l 2,26,27
 1262 0 1262 0 1251 0 c 2,28,-1
 1241 0 l 2,29,30
 1132 0 1132 0 1055 30 c 128,-1,31
 978 60 978 60 907 133 c 1,32,33
 842 65 842 65 755.5 32.5 c 128,-1,34
 669 0 669 0 575 0 c 2,35,-1
 -10 0 l 2,0,1
352 545 m 0,36,37
 352 450 352 450 369 358.5 c 128,-1,38
 386 267 386 267 430 160 c 1,39,-1
 575 160 l 2,40,41
 712 160 712 160 785 253 c 128,-1,42
 858 346 858 346 858 522 c 0,43,44
 858 651 858 651 787.5 733 c 128,-1,45
 717 815 717 815 616 815 c 0,46,47
 551 815 551 815 488.5 792 c 128,-1,48
 426 769 426 769 377 731 c 1,49,50
 360 688 360 688 356 643.5 c 128,-1,51
 352 599 352 599 352 545 c 0,36,37
EndSplineSet
EndChar

StartChar: uni0645.fina
Encoding: 65250 65250 41
Width: 1395
GlyphClass: 2
Flags: W
AnchorPoint: "Anchor-1" 740 -200 basechar 0
AnchorPoint: "Anchor-0" 700 1160 basechar 0
LayerCount: 2
Fore
SplineSet
451 0 m 2,0,1
 305 0 305 0 305 -150 c 2,2,-1
 305 -655 l 1,3,-1
 133 -655 l 1,4,-1
 133 -119 l 2,5,6
 133 -30 133 -30 166 32 c 128,-1,7
 199 94 199 94 255.5 127 c 128,-1,8
 312 160 312 160 383 160 c 2,9,-1
 397 160 l 1,10,11
 322 355 322 355 322 510 c 0,12,13
 322 692 322 692 395 836 c 1,14,15
 471 899 471 899 568 936 c 128,-1,16
 665 973 665 973 770 973 c 0,17,18
 898 973 898 973 995 916.5 c 128,-1,19
 1092 860 1092 860 1144 756 c 128,-1,20
 1196 652 1196 652 1196 520 c 0,21,22
 1196 389 1196 389 1153 279 c 1,23,24
 1198 210 1198 210 1253 185 c 128,-1,25
 1308 160 1308 160 1395 160 c 2,26,-1
 1405 160 l 2,27,28
 1415 160 1415 160 1415 152 c 2,29,-1
 1415 10 l 2,30,31
 1415 0 1415 0 1405 0 c 2,32,-1
 1395 0 l 2,33,34
 1286 0 1286 0 1209 30 c 128,-1,35
 1132 60 1132 60 1061 133 c 1,36,37
 996 65 996 65 909.5 32.5 c 128,-1,38
 823 0 823 0 729 0 c 2,39,-1
 451 0 l 2,0,1
506 545 m 0,40,41
 506 450 506 450 522.5 358.5 c 128,-1,42
 539 267 539 267 584 160 c 1,43,-1
 729 160 l 2,44,45
 866 160 866 160 939 253 c 128,-1,46
 1012 346 1012 346 1012 522 c 0,47,48
 1012 651 1012 651 941.5 733 c 128,-1,49
 871 815 871 815 770 815 c 0,50,51
 641 815 641 815 530 731 c 1,52,53
 513 688 513 688 509.5 643.5 c 128,-1,54
 506 599 506 599 506 545 c 0,40,41
EndSplineSet
EndChar

StartChar: uni0647
Encoding: 1607 1607 42
AltUni2: 00fee9.ffffffff.0
Width: 1223
GlyphClass: 2
Flags: W
AnchorPoint: "Anchor-1" 600 -160 basechar 0
AnchorPoint: "Anchor-0" 540 1160 basechar 0
LayerCount: 2
Fore
SplineSet
608 -20 m 0,0,1
 382 -20 382 -20 257.5 103.5 c 128,-1,2
 133 227 133 227 133 455 c 0,3,4
 133 605 133 605 195.5 735 c 128,-1,5
 258 865 258 865 368.5 939.5 c 128,-1,6
 479 1014 479 1014 614 1014 c 0,7,8
 741 1014 741 1014 851.5 937.5 c 128,-1,9
 962 861 962 861 1026 729 c 128,-1,10
 1090 597 1090 597 1090 455 c 0,11,12
 1090 223 1090 223 968.5 101.5 c 128,-1,13
 847 -20 847 -20 608 -20 c 0,0,1
612 137 m 0,14,15
 905 137 905 137 905 453 c 0,16,17
 905 639 905 639 827 747.5 c 128,-1,18
 749 856 749 856 610 856 c 0,19,20
 485 856 485 856 401 744 c 128,-1,21
 317 632 317 632 317 453 c 0,22,23
 317 137 317 137 612 137 c 0,14,15
EndSplineSet
Substitution2: "'medi' Medial Forms in Arabic lookup 4 subtable" uni0647.medi
Substitution2: "'init' Initial Forms in Arabic lookup 3 subtable" uni0647.init
Substitution2: "'fina' Terminal Forms in Arabic lookup 2 subtable" uni0647.fina
EndChar

StartChar: uni0647.init
Encoding: 65259 65259 43
Width: 1589
GlyphClass: 2
Flags: W
AnchorPoint: "Anchor-1" 600 -160 basechar 0
AnchorPoint: "Anchor-0" 700 1460 basechar 0
LayerCount: 2
Fore
SplineSet
799 160 m 1,0,-1
 799 399 l 2,1,2
 799 550 799 550 740.5 620 c 128,-1,3
 682 690 682 690 567 690 c 0,4,5
 463 690 463 690 404.5 626.5 c 128,-1,6
 346 563 346 563 346 446 c 0,7,8
 346 315 346 315 425 237.5 c 128,-1,9
 504 160 504 160 631 160 c 2,10,-1
 799 160 l 1,0,-1
-10 0 m 2,11,12
 -20 0 -20 0 -20 10 c 2,13,-1
 -20 152 l 2,14,15
 -20 160 -20 160 -10 160 c 2,16,-1
 307 160 l 1,17,18
 242 201 242 201 203 279 c 128,-1,19
 164 357 164 357 164 453 c 0,20,21
 164 578 164 578 219 672.5 c 128,-1,22
 274 767 274 767 368.5 818.5 c 128,-1,23
 463 870 463 870 575 870 c 0,24,25
 973 870 973 870 973 430 c 2,26,-1
 973 160 l 1,27,-1
 1241 160 l 1,28,-1
 1241 561 l 2,29,30
 1241 840 1241 840 1115 972 c 128,-1,31
 989 1104 989 1104 719 1104 c 0,32,33
 520 1104 520 1104 340 1044 c 1,34,-1
 293 1202 l 1,35,36
 485 1266 485 1266 719 1266 c 0,37,38
 1053 1266 1053 1266 1234 1085.5 c 128,-1,39
 1415 905 1415 905 1415 578 c 2,40,-1
 1415 0 l 1,41,-1
 -10 0 l 2,11,12
EndSplineSet
EndChar

StartChar: uni0647.medi
Encoding: 65260 65260 44
Width: 1671
GlyphClass: 2
Flags: W
AnchorPoint: "Anchor-1" 600 -160 basechar 0
AnchorPoint: "Anchor-0" 700 1460 basechar 0
LayerCount: 2
Fore
SplineSet
-10 0 m 2,0,1
 -20 0 -20 0 -20 10 c 2,2,-1
 -20 152 l 2,3,4
 -20 160 -20 160 -10 160 c 2,5,-1
 307 160 l 1,6,7
 242 201 242 201 203 279 c 128,-1,8
 164 357 164 357 164 453 c 0,9,10
 164 578 164 578 219 672.5 c 128,-1,11
 274 767 274 767 368.5 818.5 c 128,-1,12
 463 870 463 870 575 870 c 0,13,14
 973 870 973 870 973 430 c 2,15,-1
 973 160 l 1,16,-1
 1241 160 l 1,17,-1
 1241 561 l 2,18,19
 1241 840 1241 840 1115 972 c 128,-1,20
 989 1104 989 1104 719 1104 c 0,21,22
 520 1104 520 1104 340 1044 c 1,23,-1
 293 1202 l 1,24,25
 485 1266 485 1266 719 1266 c 0,26,27
 1053 1266 1053 1266 1234 1085.5 c 128,-1,28
 1415 905 1415 905 1415 578 c 2,29,-1
 1415 160 l 1,30,-1
 1681 160 l 2,31,32
 1692 160 1692 160 1692 152 c 2,33,-1
 1692 10 l 2,34,35
 1692 0 1692 0 1681 0 c 2,36,-1
 -10 0 l 2,0,1
799 160 m 1,37,-1
 799 399 l 2,38,39
 799 550 799 550 740.5 620 c 128,-1,40
 682 690 682 690 567 690 c 0,41,42
 463 690 463 690 404.5 626.5 c 128,-1,43
 346 563 346 563 346 446 c 0,44,45
 346 315 346 315 425 237.5 c 128,-1,46
 504 160 504 160 631 160 c 2,47,-1
 799 160 l 1,37,-1
EndSplineSet
EndChar

StartChar: uni0647.fina
Encoding: 65258 65258 45
Width: 1227
GlyphClass: 2
Flags: W
AnchorPoint: "Anchor-1" 700 -160 basechar 0
AnchorPoint: "Anchor-0" 600 1260 basechar 0
LayerCount: 2
Fore
SplineSet
653 0 m 2,0,1
 407 0 407 0 270 124.5 c 128,-1,2
 133 249 133 249 133 473 c 0,3,4
 133 715 133 715 285 854 c 128,-1,5
 437 993 437 993 694 993 c 2,6,-1
 829 993 l 1,7,-1
 829 1122 l 1,8,-1
 1004 1122 l 1,9,-1
 1004 160 l 1,10,-1
 1237 160 l 2,11,12
 1247 160 1247 160 1247 152 c 2,13,-1
 1247 10 l 2,14,15
 1247 0 1247 0 1237 0 c 2,16,-1
 653 0 l 2,0,1
829 160 m 1,17,-1
 829 834 l 1,18,-1
 700 834 l 2,19,20
 516 834 516 834 415.5 739.5 c 128,-1,21
 315 645 315 645 315 475 c 0,22,23
 315 322 315 322 402 241 c 128,-1,24
 489 160 489 160 649 160 c 2,25,-1
 829 160 l 1,17,-1
EndSplineSet
EndChar

StartChar: uni0648
Encoding: 1608 1608 46
AltUni2: 00feed.ffffffff.0
Width: 1149
GlyphClass: 2
Flags: W
AnchorPoint: "Anchor-1" 500 -600 basechar 0
AnchorPoint: "Anchor-0" 560 1160 basechar 0
LayerCount: 2
Fore
SplineSet
502 -492 m 0,0,1
 293 -492 293 -492 133 -387 c 1,2,-1
 215 -250 l 1,3,4
 281 -285 281 -285 351 -308.5 c 128,-1,5
 421 -332 421 -332 506 -332 c 0,6,7
 645 -332 645 -332 724 -257.5 c 128,-1,8
 803 -183 803 -183 803 -59 c 2,9,-1
 803 0 l 1,10,-1
 602 0 l 2,11,12
 384 0 384 0 264.5 120 c 128,-1,13
 145 240 145 240 145 467 c 0,14,15
 145 708 145 708 298 850.5 c 128,-1,16
 451 993 451 993 707 993 c 2,17,-1
 975 993 l 1,18,-1
 975 -49 l 2,19,20
 975 -258 975 -258 851.5 -375 c 128,-1,21
 728 -492 728 -492 502 -492 c 0,0,1
801 160 m 1,22,-1
 801 834 l 1,23,-1
 713 834 l 2,24,25
 531 834 531 834 429.5 738 c 128,-1,26
 328 642 328 642 328 469 c 0,27,28
 328 309 328 309 397.5 234.5 c 128,-1,29
 467 160 467 160 608 160 c 2,30,-1
 801 160 l 1,22,-1
EndSplineSet
Substitution2: "'fina' Terminal Forms in Arabic lookup 2 subtable" uni0648.fina
EndChar

StartChar: uni0648.fina
Encoding: 65262 65262 47
Width: 1133
GlyphClass: 2
Flags: W
AnchorPoint: "Anchor-1" 500 -600 basechar 0
AnchorPoint: "Anchor-0" 560 1160 basechar 0
LayerCount: 2
Fore
SplineSet
801 160 m 1,0,-1
 801 834 l 1,1,-1
 713 834 l 2,2,3
 531 834 531 834 429.5 738 c 128,-1,4
 328 642 328 642 328 469 c 0,5,6
 328 309 328 309 397.5 234.5 c 128,-1,7
 467 160 467 160 608 160 c 2,8,-1
 801 160 l 1,0,-1
975 -49 m 2,9,10
 975 -258 975 -258 851.5 -375 c 128,-1,11
 728 -492 728 -492 502 -492 c 0,12,13
 293 -492 293 -492 133 -387 c 1,14,-1
 215 -250 l 1,15,16
 281 -285 281 -285 351 -308.5 c 128,-1,17
 421 -332 421 -332 506 -332 c 0,18,19
 645 -332 645 -332 724 -257.5 c 128,-1,20
 803 -183 803 -183 803 -59 c 2,21,-1
 803 0 l 1,22,-1
 602 0 l 2,23,24
 384 0 384 0 264.5 120 c 128,-1,25
 145 240 145 240 145 467 c 0,26,27
 145 708 145 708 298 850.5 c 128,-1,28
 451 993 451 993 707 993 c 2,29,-1
 975 993 l 1,30,-1
 975 160 l 1,31,-1
 1143 160 l 2,32,33
 1153 160 1153 160 1153 152 c 2,34,-1
 1153 10 l 2,35,36
 1153 0 1153 0 1143 0 c 2,37,-1
 975 0 l 1,38,-1
 975 -49 l 2,9,10
EndSplineSet
EndChar

StartChar: uni0649
Encoding: 1609 1609 48
AltUni2: 00feef.ffffffff.0
Width: 1718
GlyphClass: 2
Flags: W
AnchorPoint: "Anchor-1" 800 -660 basechar 0
AnchorPoint: "Anchor-0" 460 660 basechar 0
LayerCount: 2
Fore
SplineSet
545 -492 m 2,0,1
 353 -492 353 -492 243 -359 c 128,-1,2
 133 -226 133 -226 133 2 c 0,3,4
 133 109 133 109 150.5 195 c 128,-1,5
 168 281 168 281 205 371 c 1,6,-1
 375 371 l 1,7,8
 352 314 352 314 339.5 261.5 c 128,-1,9
 327 209 327 209 322 160 c 128,-1,10
 317 111 317 111 317 14 c 0,11,12
 317 -152 317 -152 386 -242 c 128,-1,13
 455 -332 455 -332 584 -332 c 2,14,-1
 985 -332 l 2,15,16
 1142 -332 1142 -332 1233.5 -275 c 128,-1,17
 1325 -218 1325 -218 1325 -123 c 0,18,19
 1325 -85 1325 -85 1299 -49 c 128,-1,20
 1273 -13 1273 -13 1229 22 c 128,-1,21
 1185 57 1185 57 1079 121 c 0,22,23
 956 194 956 194 907 236.5 c 128,-1,24
 858 279 858 279 832.5 324.5 c 128,-1,25
 807 370 807 370 807 424 c 0,26,27
 807 546 807 546 897.5 681.5 c 128,-1,28
 988 817 988 817 1122 905 c 128,-1,29
 1256 993 1256 993 1382 993 c 0,30,31
 1431 993 1431 993 1519.5 965 c 128,-1,32
 1608 937 1608 937 1647 911 c 1,33,-1
 1573 774 l 1,34,35
 1543 789 1543 789 1487.5 799 c 128,-1,36
 1432 809 1432 809 1389 809 c 0,37,38
 1320 809 1320 809 1228.5 753 c 128,-1,39
 1137 697 1137 697 1073.5 615 c 128,-1,40
 1010 533 1010 533 1010 459 c 0,41,42
 1010 390 1010 390 1163 297 c 0,43,44
 1314 205 1314 205 1377.5 145 c 128,-1,45
 1441 85 1441 85 1476 15.5 c 128,-1,46
 1511 -54 1511 -54 1511 -127 c 0,47,48
 1511 -298 1511 -298 1374 -395 c 128,-1,49
 1237 -492 1237 -492 985 -492 c 2,50,-1
 545 -492 l 2,0,1
EndSplineSet
Substitution2: "'medi' Medial Forms in Arabic lookup 4 subtable" uni0649.medi
Substitution2: "'init' Initial Forms in Arabic lookup 3 subtable" uni0649.init
Substitution2: "'fina' Terminal Forms in Arabic lookup 2 subtable" uni0649.fina
EndChar

StartChar: uni0649.fina
Encoding: 65264 65264 49
Width: 1974
GlyphClass: 2
Flags: W
AnchorPoint: "Anchor-1" 800 -660 basechar 0
AnchorPoint: "Anchor-0" 460 660 basechar 0
LayerCount: 2
Fore
SplineSet
545 -492 m 2,0,1
 353 -492 353 -492 243 -359 c 128,-1,2
 133 -226 133 -226 133 2 c 0,3,4
 133 109 133 109 150.5 195 c 128,-1,5
 168 281 168 281 205 371 c 1,6,-1
 375 371 l 1,7,8
 352 314 352 314 339.5 261.5 c 128,-1,9
 327 209 327 209 322 160 c 128,-1,10
 317 111 317 111 317 14 c 0,11,12
 317 -152 317 -152 386 -242 c 128,-1,13
 455 -332 455 -332 584 -332 c 2,14,-1
 965 -332 l 2,15,16
 1111 -332 1111 -332 1207 -277.5 c 128,-1,17
 1303 -223 1303 -223 1303 -147 c 0,18,19
 1303 -105 1303 -105 1265 -75 c 128,-1,20
 1227 -45 1227 -45 1150 -23 c 0,21,22
 995 21 995 21 937.5 54 c 128,-1,23
 880 87 880 87 849.5 136 c 128,-1,24
 819 185 819 185 819 252 c 0,25,26
 819 370 819 370 889.5 480 c 128,-1,27
 960 590 960 590 1072 658.5 c 128,-1,28
 1184 727 1184 727 1296 727 c 0,29,30
 1365 727 1365 727 1418.5 702 c 128,-1,31
 1472 677 1472 677 1519 629.5 c 128,-1,32
 1566 582 1566 582 1636 472 c 0,33,34
 1724 330 1724 330 1766.5 281 c 128,-1,35
 1809 232 1809 232 1839 208.5 c 128,-1,36
 1869 185 1869 185 1902 172.5 c 128,-1,37
 1935 160 1935 160 1974 160 c 2,38,-1
 1985 160 l 2,39,40
 1995 160 1995 160 1995 152 c 2,41,-1
 1995 10 l 2,42,43
 1995 0 1995 0 1985 0 c 2,44,-1
 1974 0 l 2,45,46
 1888 0 1888 0 1808.5 38.5 c 128,-1,47
 1729 77 1729 77 1645 166 c 0,48,49
 1621 191 1621 191 1540 307 c 0,50,51
 1441 447 1441 447 1383 495 c 128,-1,52
 1325 543 1325 543 1274 543 c 0,53,54
 1218 543 1218 543 1154 500 c 128,-1,55
 1090 457 1090 457 1047 392.5 c 128,-1,56
 1004 328 1004 328 1004 276 c 0,57,58
 1004 242 1004 242 1040.5 215 c 128,-1,59
 1077 188 1077 188 1158 164 c 0,60,61
 1305 121 1305 121 1366.5 89 c 128,-1,62
 1428 57 1428 57 1459.5 13.5 c 128,-1,63
 1491 -30 1491 -30 1491 -86 c 0,64,65
 1491 -492 1491 -492 965 -492 c 2,66,-1
 545 -492 l 2,0,1
EndSplineSet
EndChar

StartChar: uni06440627.isol
Encoding: 65275 65275 50
Width: 1380
GlyphClass: 3
Flags: W
AnchorPoint: "Anchor-3" 1160 -160 baselig 0
AnchorPoint: "Anchor-2" 1060 1700 baselig 0
AnchorPoint: "Anchor-3" 460 -160 baselig 1
AnchorPoint: "Anchor-2" 300 1460 baselig 1
LayerCount: 2
Fore
SplineSet
92 160 m 1,0,-1
 551 160 l 1,1,-1
 287 1280 l 1,2,-1
 477 1280 l 1,3,-1
 741 160 l 1,4,-1
 797 160 l 2,5,6
 1014 160 1014 160 1014 397 c 2,7,-1
 1014 1556 l 1,8,-1
 1196 1556 l 1,9,-1
 1196 373 l 2,10,11
 1196 203 1196 203 1093 101.5 c 128,-1,12
 990 0 990 0 817 0 c 2,13,-1
 92 0 l 1,14,-1
 92 160 l 1,0,-1
EndSplineSet
Ligature2: "'rlig' Required Ligatures in Arabic lookup 5 subtable" uni0644.init uni0627.fina
EndChar

StartChar: uni06440627.fina
Encoding: 65276 65276 51
Width: 1452
GlyphClass: 3
Flags: W
AnchorPoint: "Anchor-3" 1160 -160 baselig 0
AnchorPoint: "Anchor-2" 1060 1700 baselig 0
AnchorPoint: "Anchor-3" 460 -160 baselig 1
AnchorPoint: "Anchor-2" 300 1460 baselig 1
LayerCount: 2
Fore
SplineSet
92 160 m 1,0,-1
 551 160 l 1,1,-1
 287 1280 l 1,2,-1
 477 1280 l 1,3,-1
 741 160 l 1,4,-1
 1014 160 l 1,5,-1
 1014 1556 l 1,6,-1
 1196 1556 l 1,7,-1
 1196 160 l 1,8,-1
 1462 160 l 2,9,10
 1473 160 1473 160 1473 152 c 2,11,-1
 1473 10 l 2,12,13
 1473 0 1473 0 1462 0 c 2,14,-1
 92 0 l 1,15,-1
 92 160 l 1,0,-1
EndSplineSet
Ligature2: "'rlig' Required Ligatures in Arabic lookup 5 subtable" uni0644.medi uni0627.fina
EndChar

StartChar: uni0640
Encoding: 1600 1600 52
Width: 350
GlyphClass: 2
Flags: W
AnchorPoint: "Anchor-1" 180 -160 basechar 0
AnchorPoint: "Anchor-0" 180 800 basechar 0
LayerCount: 2
Fore
SplineSet
360 160 m 2,0,1
 371 160 371 160 371 152 c 2,2,-1
 371 10 l 2,3,4
 371 0 371 0 360 0 c 2,5,-1
 -10 0 l 2,6,7
 -20 0 -20 0 -20 10 c 2,8,-1
 -20 152 l 2,9,10
 -20 160 -20 160 -10 160 c 2,11,-1
 360 160 l 2,0,1
EndSplineSet
EndChar

StartChar: uni066E
Encoding: 1646 1646 53
Width: 1593
GlyphClass: 2
Flags: W
AnchorPoint: "Anchor-1" 800 -160 basechar 0
AnchorPoint: "Anchor-0" 800 1000 basechar 0
LayerCount: 2
Fore
SplineSet
516 0 m 2,0,1
 339 0 339 0 236 106.5 c 128,-1,2
 133 213 133 213 133 397 c 0,3,4
 133 465 133 465 147.5 554 c 128,-1,5
 162 643 162 643 184 705 c 1,6,-1
 348 705 l 1,7,8
 317 557 317 557 317 412 c 0,9,10
 317 300 317 300 370 230 c 128,-1,11
 423 160 423 160 510 160 c 2,12,-1
 1245 160 l 1,13,-1
 1245 993 l 1,14,-1
 1419 993 l 1,15,-1
 1419 0 l 1,16,-1
 516 0 l 2,0,1
EndSplineSet
Substitution2: "'medi' Medial Forms in Arabic lookup 4 subtable" uni066E.medi
Substitution2: "'init' Initial Forms in Arabic lookup 3 subtable" uni066E.init
Substitution2: "'fina' Terminal Forms in Arabic lookup 2 subtable" uni066E.fina
EndChar

StartChar: uni066E.fina
Encoding: 65537 -1 54
Width: 577
VWidth: 1000
GlyphClass: 2
Flags: W
LayerCount: 2
Fore
SplineSet
474 758 m 1,0,1
 467 683 467 683 423.5 644.5 c 128,-1,2
 380 606 380 606 285 606 c 0,3,4
 187 606 187 606 146.5 644 c 128,-1,5
 106 682 106 682 101 758 c 1,6,-1
 183 758 l 1,7,8
 188 704 188 704 211 685.5 c 128,-1,9
 234 667 234 667 287 667 c 0,10,11
 333 667 333 667 359.5 686.5 c 128,-1,12
 386 706 386 706 391 758 c 1,13,-1
 474 758 l 1,0,1
EndSplineSet
EndChar

StartChar: uni066F.init
Encoding: 65538 -1 55
Width: 500
VWidth: 1000
GlyphClass: 2
Flags: W
LayerCount: 2
Fore
SplineSet
310 760 m 1,0,-1
 310 751 l 1,1,2
 306 733 306 733 294.5 706 c 128,-1,3
 283 679 283 679 268 650.5 c 128,-1,4
 253 622 253 622 238 600 c 1,5,-1
 190 600 l 1,6,-1
 190 612 l 1,7,8
 196 631 196 631 203 657.5 c 128,-1,9
 210 684 210 684 215 711 c 128,-1,10
 220 738 220 738 223 760 c 1,11,-1
 310 760 l 1,0,-1
EndSplineSet
EndChar

StartChar: uni066F.medi
Encoding: 65539 -1 56
Width: 500
VWidth: 1000
GlyphClass: 2
Flags: W
LayerCount: 2
Fore
SplineSet
314 766 m 1,0,-1
 314 754 l 1,1,2
 306 737 306 737 297.5 710.5 c 128,-1,3
 289 684 289 684 282 656 c 128,-1,4
 275 628 275 628 272 606 c 1,5,-1
 185 606 l 1,6,-1
 185 615 l 1,7,8
 190 633 190 633 202 660 c 128,-1,9
 214 687 214 687 230.5 715.5 c 128,-1,10
 247 744 247 744 265 766 c 1,11,-1
 314 766 l 1,0,-1
EndSplineSet
EndChar

StartChar: feh_dotless.isol
Encoding: 65540 -1 57
Width: 0
VWidth: 1000
GlyphClass: 2
Flags: W
LayerCount: 2
Fore
SplineSet
-192 730 m 0,0,1
 -192 692 -192 692 -215 671.5 c 128,-1,2
 -238 651 -238 651 -273 643 c 1,3,-1
 -278 590 l 1,4,-1
 -332 590 l 1,5,-1
 -339 675 l 1,6,7
 -303 681 -303 681 -281.5 692.5 c 128,-1,8
 -260 704 -260 704 -260 727 c 0,9,10
 -260 751 -260 751 -278.5 759 c 128,-1,11
 -297 767 -297 767 -325 767 c 0,12,13
 -338 767 -338 767 -351.5 765.5 c 128,-1,14
 -365 764 -365 764 -373 763 c 1,15,-1
 -373 815 l 1,16,17
 -355 821 -355 821 -318 821 c 0,18,19
 -258 821 -258 821 -225 798.5 c 128,-1,20
 -192 776 -192 776 -192 730 c 0,0,1
EndSplineSet
EndChar

StartChar: uni06A1.fina
Encoding: 65541 -1 58
Width: 0
VWidth: 1000
GlyphClass: 2
Flags: W
LayerCount: 2
Fore
SplineSet
-183 713 m 1,0,1
 -164 738 -164 738 -150.5 759 c 128,-1,2
 -137 780 -137 780 -121 812 c 1,3,-1
 -33 812 l 1,4,-1
 -33 802 l 1,5,6
 -55 773 -55 773 -81 747.5 c 128,-1,7
 -107 722 -107 722 -133 701 c 1,8,-1
 -183 701 l 1,9,-1
 -183 713 l 1,0,1
-144 606 m 1,10,-1
 -193 606 l 1,11,12
 -218 622 -218 622 -244 643 c 128,-1,13
 -270 664 -270 664 -296 687 c 1,14,15
 -322 664 -322 664 -348 643 c 128,-1,16
 -374 622 -374 622 -399 606 c 1,17,-1
 -448 606 l 1,18,-1
 -448 618 l 1,19,20
 -423 646 -423 646 -394 679 c 128,-1,21
 -365 712 -365 712 -342 746 c 1,22,-1
 -250 746 l 1,23,24
 -227 712 -227 712 -198.5 679 c 128,-1,25
 -170 646 -170 646 -144 618 c 1,26,-1
 -144 606 l 1,10,-1
EndSplineSet
EndChar

StartChar: uni066F
Encoding: 1647 1647 59
Width: 1794
GlyphClass: 2
Flags: W
AnchorPoint: "Anchor-1" 900 -640 basechar 0
AnchorPoint: "Anchor-0" 1200 1160 basechar 0
LayerCount: 2
Fore
SplineSet
618 -492 m 2,0,1
 393 -492 393 -492 263 -359 c 128,-1,2
 133 -226 133 -226 133 2 c 0,3,4
 133 263 133 263 217 485 c 1,5,-1
 387 485 l 1,6,7
 317 289 317 289 317 14 c 0,8,9
 317 -152 317 -152 405.5 -242 c 128,-1,10
 494 -332 494 -332 655 -332 c 2,11,-1
 1069 -332 l 2,12,13
 1269 -332 1269 -332 1357.5 -254.5 c 128,-1,14
 1446 -177 1446 -177 1446 -14 c 2,15,-1
 1446 0 l 1,16,-1
 1257 0 l 2,17,18
 1030 0 1030 0 910.5 120 c 128,-1,19
 791 240 791 240 791 467 c 0,20,21
 791 710 791 710 944 851.5 c 128,-1,22
 1097 993 1097 993 1352 993 c 2,23,-1
 1620 993 l 1,24,-1
 1620 -12 l 2,25,26
 1620 -492 1620 -492 1102 -492 c 2,27,-1
 618 -492 l 2,0,1
1446 160 m 1,28,-1
 1446 834 l 1,29,-1
 1358 834 l 2,30,31
 1176 834 1176 834 1074.5 738 c 128,-1,32
 973 642 973 642 973 469 c 0,33,34
 973 309 973 309 1042.5 234.5 c 128,-1,35
 1112 160 1112 160 1253 160 c 2,36,-1
 1446 160 l 1,28,-1
EndSplineSet
Substitution2: "'medi' Medial Forms in Arabic lookup 4 subtable" uni066F.medi
Substitution2: "'init' Initial Forms in Arabic lookup 3 subtable" uni066F.init
Substitution2: "'fina' Terminal Forms in Arabic lookup 2 subtable" uni066F.fina
EndChar

StartChar: uni066F.fina
Encoding: 65542 -1 60
Width: 0
VWidth: 1000
GlyphClass: 2
Flags: W
LayerCount: 2
Fore
SplineSet
-455 701 m 1,0,1
 -483 722 -483 722 -508.5 747.5 c 128,-1,2
 -534 773 -534 773 -556 802 c 1,3,-1
 -556 812 l 1,4,-1
 -469 812 l 1,5,6
 -453 780 -453 780 -439.5 758.5 c 128,-1,7
 -426 737 -426 737 -407 712 c 1,8,-1
 -407 701 l 1,9,-1
 -455 701 l 1,0,1
-446 606 m 1,10,-1
 -446 617 l 1,11,12
 -421 646 -421 646 -392 678.5 c 128,-1,13
 -363 711 -363 711 -340 745 c 1,14,-1
 -247 745 l 1,15,16
 -224 711 -224 711 -195 678.5 c 128,-1,17
 -166 646 -166 646 -141 617 c 1,18,-1
 -141 606 l 1,19,-1
 -191 606 l 1,20,21
 -216 622 -216 622 -242 643 c 128,-1,22
 -268 664 -268 664 -294 687 c 1,23,24
 -320 664 -320 664 -346 643 c 128,-1,25
 -372 622 -372 622 -397 606 c 1,26,-1
 -446 606 l 1,10,-1
EndSplineSet
EndChar

StartChar: onedot.above
Encoding: 65543 -1 61
Width: 0
VWidth: 1000
GlyphClass: 2
Flags: W
LayerCount: 2
Fore
SplineSet
-156 871 m 0,0,1
 -110 871 -110 871 -85 854 c 128,-1,2
 -60 837 -60 837 -60 802 c 0,3,4
 -60 773 -60 773 -78 758.5 c 128,-1,5
 -96 744 -96 744 -122 738 c 1,6,-1
 -125 699 l 1,7,-1
 -166 699 l 1,8,-1
 -171 762 l 1,9,10
 -142 766 -142 766 -127 774 c 128,-1,11
 -112 782 -112 782 -112 800 c 0,12,13
 -112 817 -112 817 -125.5 823.5 c 128,-1,14
 -139 830 -139 830 -160 830 c 0,15,16
 -183 830 -183 830 -195 827 c 1,17,-1
 -195 868 l 1,18,19
 -183 871 -183 871 -156 871 c 0,0,1
-250 746 m 1,20,21
 -227 712 -227 712 -198.5 679 c 128,-1,22
 -170 646 -170 646 -144 618 c 1,23,-1
 -144 606 l 1,24,-1
 -193 606 l 1,25,26
 -218 622 -218 622 -244 643 c 128,-1,27
 -270 664 -270 664 -296 687 c 1,28,29
 -322 664 -322 664 -348 643 c 128,-1,30
 -374 622 -374 622 -399 606 c 1,31,-1
 -448 606 l 1,32,-1
 -448 618 l 1,33,34
 -423 646 -423 646 -394 679 c 128,-1,35
 -365 712 -365 712 -342 746 c 1,36,-1
 -250 746 l 1,20,21
EndSplineSet
EndChar

StartChar: twodots.above
Encoding: 65544 -1 62
Width: 0
VWidth: 1000
GlyphClass: 2
Flags: W
LayerCount: 2
Fore
SplineSet
-136 883 m 1,0,1
 -140 836 -140 836 -164 805.5 c 128,-1,2
 -188 775 -188 775 -228 775 c 0,3,4
 -252 775 -252 775 -274.5 786.5 c 128,-1,5
 -297 798 -297 798 -318.5 809.5 c 128,-1,6
 -340 821 -340 821 -358 821 c 0,7,8
 -378 821 -378 821 -388 809.5 c 128,-1,9
 -398 798 -398 798 -405 774 c 1,10,-1
 -450 774 l 1,11,12
 -445 820 -445 820 -421.5 851 c 128,-1,13
 -398 882 -398 882 -358 882 c 0,14,15
 -334 882 -334 882 -310.5 870.5 c 128,-1,16
 -287 859 -287 859 -265.5 847.5 c 128,-1,17
 -244 836 -244 836 -227 836 c 0,18,19
 -208 836 -208 836 -197.5 847.5 c 128,-1,20
 -187 859 -187 859 -181 883 c 1,21,-1
 -136 883 l 1,0,1
-249 744 m 1,22,23
 -226 710 -226 710 -197 678 c 128,-1,24
 -168 646 -168 646 -142 617 c 1,25,-1
 -142 606 l 1,26,-1
 -190 606 l 1,27,28
 -241 639 -241 639 -294 686 c 1,29,30
 -320 663 -320 663 -346.5 642.5 c 128,-1,31
 -373 622 -373 622 -398 606 c 1,32,-1
 -446 606 l 1,33,-1
 -446 617 l 1,34,35
 -421 646 -421 646 -391.5 678 c 128,-1,36
 -362 710 -362 710 -339 744 c 1,37,-1
 -249 744 l 1,22,23
EndSplineSet
EndChar

StartChar: threedots.above
Encoding: 65545 -1 63
Width: 0
VWidth: 1000
GlyphClass: 2
Flags: W
LayerCount: 2
Fore
SplineSet
-182 844 m 1,0,-1
 -182 834 l 1,1,2
 -204 806 -204 806 -230 779.5 c 128,-1,3
 -256 753 -256 753 -282 733 c 1,4,-1
 -331 733 l 1,5,-1
 -331 744 l 1,6,7
 -312 769 -312 769 -298 790.5 c 128,-1,8
 -284 812 -284 812 -269 844 c 1,9,-1
 -182 844 l 1,0,-1
-150 737 m 1,10,11
 -155 677 -155 677 -192 641.5 c 128,-1,12
 -229 606 -229 606 -299 606 c 0,13,14
 -370 606 -370 606 -405.5 641 c 128,-1,15
 -441 676 -441 676 -445 737 c 1,16,-1
 -392 737 l 1,17,18
 -388 696 -388 696 -364.5 684 c 128,-1,19
 -341 672 -341 672 -298 672 c 0,20,21
 -260 672 -260 672 -234 685 c 128,-1,22
 -208 698 -208 698 -203 737 c 1,23,-1
 -150 737 l 1,10,11
EndSplineSet
EndChar

StartChar: threedots.below
Encoding: 65546 -1 64
Width: 0
VWidth: 1000
GlyphClass: 2
Flags: W
LayerCount: 2
Fore
SplineSet
-332 844 m 1,0,1
 -317 812 -317 812 -303.5 790.5 c 128,-1,2
 -290 769 -290 769 -271 744 c 1,3,-1
 -271 733 l 1,4,-1
 -319 733 l 1,5,6
 -344 753 -344 753 -370.5 779.5 c 128,-1,7
 -397 806 -397 806 -419 834 c 1,8,-1
 -419 844 l 1,9,-1
 -332 844 l 1,0,1
-150 737 m 1,10,11
 -155 677 -155 677 -191.5 641.5 c 128,-1,12
 -228 606 -228 606 -299 606 c 256,13,14
 -370 606 -370 606 -405 641 c 128,-1,15
 -440 676 -440 676 -445 737 c 1,16,-1
 -392 737 l 1,17,18
 -388 696 -388 696 -364.5 684 c 128,-1,19
 -341 672 -341 672 -298 672 c 0,20,21
 -260 672 -260 672 -234 684.5 c 128,-1,22
 -208 697 -208 697 -203 737 c 1,23,-1
 -150 737 l 1,10,11
EndSplineSet
EndChar

StartChar: uni0660
Encoding: 1632 1632 65
Width: 674
GlyphClass: 2
Flags: W
LayerCount: 2
Fore
SplineSet
205 772 m 1,0,-1
 469 772 l 1,1,-1
 469 389 l 1,2,-1
 205 389 l 1,3,-1
 205 772 l 1,0,-1
EndSplineSet
EndChar

StartChar: uni0661
Encoding: 1633 1633 66
Width: 592
GlyphClass: 2
Flags: W
LayerCount: 2
Fore
SplineSet
205 1380 m 1,0,-1
 387 1380 l 1,1,-1
 387 0 l 1,2,-1
 205 0 l 1,3,-1
 205 1380 l 1,0,-1
EndSplineSet
EndChar

StartChar: uni0662
Encoding: 1634 1634 67
Width: 981
GlyphClass: 2
Flags: W
LayerCount: 2
Fore
SplineSet
92 1235 m 1,0,-1
 92 1380 l 1,1,-1
 909 1380 l 1,2,-1
 909 1214 l 1,3,-1
 289 1214 l 1,4,-1
 719 0 l 1,5,-1
 522 0 l 1,6,-1
 92 1235 l 1,0,-1
EndSplineSet
EndChar

StartChar: uni0663
Encoding: 1635 1635 68
Width: 1206
GlyphClass: 2
Flags: W
LayerCount: 2
Fore
SplineSet
92 1380 m 1,0,-1
 287 1380 l 1,1,-1
 379 1071 l 1,2,3
 396 1061 396 1061 446 1061 c 0,4,5
 506 1061 506 1061 531.5 1138 c 128,-1,6
 557 1215 557 1215 557 1380 c 1,7,-1
 739 1380 l 1,8,9
 739 1275 739 1275 730 1201 c 128,-1,10
 721 1127 721 1127 696 1073 c 1,11,12
 737 1061 737 1061 788 1061 c 0,13,14
 868 1061 868 1061 900 1132.5 c 128,-1,15
 932 1204 932 1204 932 1380 c 1,16,-1
 1114 1380 l 1,17,-1
 1114 1352 l 2,18,19
 1114 1118 1114 1118 1040.5 1012.5 c 128,-1,20
 967 907 967 907 797 907 c 0,21,22
 673 907 673 907 604 954 c 1,23,24
 559 909 559 909 504 909 c 0,25,26
 447 909 447 909 420 930 c 1,27,-1
 723 0 l 1,28,-1
 528 0 l 1,29,-1
 92 1380 l 1,0,-1
EndSplineSet
EndChar

StartChar: uni0664
Encoding: 1636 1636 69
Width: 985
GlyphClass: 2
Flags: W
LayerCount: 2
Fore
SplineSet
582 -20 m 0,0,1
 465 -20 465 -20 370.5 10.5 c 128,-1,2
 276 41 276 41 225 94.5 c 128,-1,3
 174 148 174 148 174 211 c 0,4,5
 174 285 174 285 276.5 413.5 c 128,-1,6
 379 542 379 542 537 664 c 1,7,-1
 432 748 l 2,8,9
 225 911 225 911 225 973 c 256,10,11
 225 1035 225 1035 293 1121 c 128,-1,12
 361 1207 361 1207 475 1283 c 128,-1,13
 589 1359 589 1359 735 1407 c 1,14,-1
 791 1251 l 1,15,16
 719 1228 719 1228 636.5 1182.5 c 128,-1,17
 554 1137 554 1137 480 1076.5 c 128,-1,18
 406 1016 406 1016 406 997 c 0,19,20
 406 968 406 968 590 819 c 2,21,-1
 750 688 l 1,22,23
 505 439 505 439 461 388 c 128,-1,24
 417 337 417 337 394 298 c 128,-1,25
 371 259 371 259 371 229 c 0,26,27
 371 189 371 189 436 161 c 128,-1,28
 501 133 501 133 598 133 c 0,29,30
 798 133 798 133 913 176 c 1,31,-1
 913 25 l 1,32,33
 784 -20 784 -20 582 -20 c 0,0,1
EndSplineSet
EndChar

StartChar: uni0665
Encoding: 1637 1637 70
Width: 1223
GlyphClass: 2
Flags: W
LayerCount: 2
Fore
SplineSet
608 -20 m 0,0,1
 359 -20 359 -20 246 117.5 c 128,-1,2
 133 255 133 255 133 532 c 0,3,4
 133 760 133 760 199 965 c 128,-1,5
 265 1170 265 1170 374.5 1284.5 c 128,-1,6
 484 1399 484 1399 614 1399 c 0,7,8
 748 1399 748 1399 856.5 1281.5 c 128,-1,9
 965 1164 965 1164 1027.5 958.5 c 128,-1,10
 1090 753 1090 753 1090 532 c 0,11,12
 1090 338 1090 338 1039 216.5 c 128,-1,13
 988 95 988 95 887 37.5 c 128,-1,14
 786 -20 786 -20 608 -20 c 0,0,1
612 137 m 0,15,16
 766 137 766 137 833.5 237.5 c 128,-1,17
 901 338 901 338 901 537 c 0,18,19
 901 733 901 733 861 900.5 c 128,-1,20
 821 1068 821 1068 755.5 1155.5 c 128,-1,21
 690 1243 690 1243 610 1243 c 0,22,23
 536 1243 536 1243 471 1150.5 c 128,-1,24
 406 1058 406 1058 364 888.5 c 128,-1,25
 322 719 322 719 322 537 c 0,26,27
 322 338 322 338 390.5 237.5 c 128,-1,28
 459 137 459 137 612 137 c 0,15,16
EndSplineSet
EndChar

StartChar: uni0666
Encoding: 1638 1638 71
Width: 1022
GlyphClass: 2
Flags: W
LayerCount: 2
Fore
SplineSet
635 1214 m 1,0,-1
 0 1214 l 1,1,-1
 0 1380 l 1,2,-1
 817 1380 l 1,3,-1
 817 0 l 1,4,-1
 635 0 l 1,5,-1
 635 1214 l 1,0,-1
EndSplineSet
EndChar

StartChar: uni0667
Encoding: 1639 1639 72
Width: 1081
GlyphClass: 2
Flags: W
LayerCount: 2
Fore
SplineSet
41 1380 m 1,0,-1
 229 1380 l 1,1,-1
 477 442 l 2,2,3
 519 286 519 286 539 172 c 1,4,5
 561 303 561 303 602 442 c 1,6,-1
 850 1380 l 1,7,-1
 1040 1380 l 1,8,-1
 653 0 l 1,9,-1
 426 0 l 1,10,-1
 41 1380 l 1,0,-1
EndSplineSet
Substitution2: "'locl' Localized Forms in Arabic lookup 1 subtable" uni06F7.urdu
EndChar

StartChar: uni0668
Encoding: 1640 1640 73
Width: 1081
GlyphClass: 2
Flags: W
LayerCount: 2
Fore
SplineSet
426 1380 m 1,0,-1
 653 1380 l 1,1,-1
 1040 0 l 1,2,-1
 850 0 l 1,3,-1
 602 938 l 1,4,5
 558 1086 558 1086 539 1208 c 1,6,7
 519 1092 519 1092 477 938 c 2,8,-1
 229 0 l 1,9,-1
 41 0 l 1,10,-1
 426 1380 l 1,0,-1
EndSplineSet
EndChar

StartChar: uni0669
Encoding: 1641 1641 74
Width: 1116
GlyphClass: 2
Flags: W
LayerCount: 2
Fore
SplineSet
760 551 m 1,0,-1
 528 551 l 2,1,2
 305 551 305 551 183 663.5 c 128,-1,3
 61 776 61 776 61 983 c 0,4,5
 61 1173 61 1173 171 1287 c 128,-1,6
 281 1401 281 1401 465 1401 c 0,7,8
 710 1401 710 1401 821 1242 c 128,-1,9
 932 1083 932 1083 932 735 c 2,10,-1
 932 0 l 1,11,-1
 760 0 l 1,12,-1
 760 551 l 1,0,-1
758 711 m 1,13,14
 758 901 758 901 728 1017.5 c 128,-1,15
 698 1134 698 1134 636.5 1187.5 c 128,-1,16
 575 1241 575 1241 465 1241 c 0,17,18
 357 1241 357 1241 295 1172.5 c 128,-1,19
 233 1104 233 1104 233 981 c 0,20,21
 233 711 233 711 524 711 c 2,22,-1
 758 711 l 1,13,14
EndSplineSet
EndChar

StartChar: uni06F4
Encoding: 1780 1780 75
Width: 1153
GlyphClass: 2
Flags: W
LayerCount: 2
Fore
SplineSet
92 1380 m 1,0,-1
 287 1380 l 1,1,-1
 352 1153 l 1,2,3
 415 1123 415 1123 567 1085 c 1,4,5
 485 1136 485 1136 485 1251 c 0,6,7
 485 1336 485 1336 539.5 1385 c 128,-1,8
 594 1434 594 1434 694 1434 c 0,9,10
 769 1434 769 1434 817 1413 c 1,11,-1
 788 1300 l 1,12,13
 749 1315 749 1315 702 1315 c 0,14,15
 672 1315 672 1315 649.5 1295.5 c 128,-1,16
 627 1276 627 1276 627 1227 c 0,17,18
 627 1115 627 1115 754 1079 c 1,19,20
 922 1107 922 1107 922 1319 c 1,21,-1
 1092 1319 l 1,22,-1
 1092 1294 l 2,23,24
 1092 928 1092 928 735 928 c 0,25,26
 641 928 641 928 559.5 941.5 c 128,-1,27
 478 955 478 955 399 989 c 1,28,-1
 723 0 l 1,29,-1
 528 0 l 1,30,-1
 92 1380 l 1,0,-1
EndSplineSet
Substitution2: "'locl' Localized Forms in Arabic lookup 1 subtable" uni06F4.urdu
EndChar

StartChar: uni06F5
Encoding: 1781 1781 76
Width: 1223
GlyphClass: 2
Flags: W
LayerCount: 2
Fore
SplineSet
451 145 m 0,0,1
 541 145 541 145 547 319 c 1,2,-1
 678 319 l 1,3,4
 684 145 684 145 778 145 c 0,5,6
 844 145 844 145 872.5 229 c 128,-1,7
 901 313 901 313 901 475 c 0,8,9
 901 677 901 677 860.5 861.5 c 128,-1,10
 820 1046 820 1046 754.5 1144.5 c 128,-1,11
 689 1243 689 1243 610 1243 c 0,12,13
 537 1243 537 1243 472.5 1139 c 128,-1,14
 408 1035 408 1035 365 849.5 c 128,-1,15
 322 664 322 664 322 475 c 0,16,17
 322 313 322 313 351.5 229 c 128,-1,18
 381 145 381 145 451 145 c 0,0,1
424 -14 m 0,19,20
 277 -14 277 -14 205 106.5 c 128,-1,21
 133 227 133 227 133 471 c 0,22,23
 133 707 133 707 201 929.5 c 128,-1,24
 269 1152 269 1152 378 1275.5 c 128,-1,25
 487 1399 487 1399 614 1399 c 0,26,27
 744 1399 744 1399 852 1272.5 c 128,-1,28
 960 1146 960 1146 1025 923 c 128,-1,29
 1090 700 1090 700 1090 471 c 0,30,31
 1090 226 1090 226 1021 106 c 128,-1,32
 952 -14 952 -14 801 -14 c 0,33,34
 742 -14 742 -14 689 17.5 c 128,-1,35
 636 49 636 49 608 102 c 1,36,37
 584 49 584 49 533.5 17.5 c 128,-1,38
 483 -14 483 -14 424 -14 c 0,19,20
EndSplineSet
EndChar

StartChar: uni06F6
Encoding: 1782 1782 77
Width: 1012
GlyphClass: 2
Flags: W
LayerCount: 2
Fore
SplineSet
133 0 m 1,0,1
 193 186 193 186 279 317.5 c 128,-1,2
 365 449 365 449 508 571 c 1,3,4
 340 609 340 609 250 719.5 c 128,-1,5
 160 830 160 830 160 999 c 0,6,7
 160 1125 160 1125 213 1215 c 128,-1,8
 266 1305 266 1305 362.5 1353 c 128,-1,9
 459 1401 459 1401 584 1401 c 0,10,11
 655 1401 655 1401 730 1384.5 c 128,-1,12
 805 1368 805 1368 864 1339 c 1,13,-1
 803 1188 l 1,14,15
 699 1241 699 1241 588 1241 c 0,16,17
 466 1241 466 1241 407 1173.5 c 128,-1,18
 348 1106 348 1106 348 989 c 0,19,20
 348 748 348 748 639 696 c 1,21,22
 743 782 743 782 854 836 c 1,23,-1
 920 682 l 1,24,25
 669 538 669 538 517.5 369 c 128,-1,26
 366 200 366 200 303 0 c 1,27,-1
 133 0 l 1,0,1
EndSplineSet
Substitution2: "'locl' Localized Forms in Arabic lookup 1 subtable" uni0666
EndChar

StartChar: uni06C1.init
Encoding: 64424 64424 78
Width: 637
GlyphClass: 2
Flags: W
AnchorPoint: "Anchor-1" 300 -540 basechar 0
AnchorPoint: "Anchor-0" 260 1160 basechar 0
LayerCount: 2
Fore
SplineSet
285 -416 m 2,0,1
 198 -416 198 -416 144 -364.5 c 128,-1,2
 90 -313 90 -313 90 -236 c 0,3,4
 90 -184 90 -184 113 -130 c 128,-1,5
 136 -76 136 -76 197 0 c 1,6,-1
 -10 0 l 2,7,8
 -20 0 -20 0 -20 10 c 2,9,-1
 -20 152 l 2,10,11
 -20 160 -20 160 -10 160 c 2,12,-1
 260 160 l 1,13,-1
 260 993 l 1,14,-1
 442 993 l 1,15,-1
 442 0 l 1,16,-1
 352 0 l 1,17,18
 252 -125 252 -125 252 -188 c 0,19,20
 252 -213 252 -213 270 -234.5 c 128,-1,21
 288 -256 288 -256 324 -256 c 2,22,-1
 463 -256 l 1,23,-1
 463 -416 l 1,24,-1
 285 -416 l 2,0,1
EndSplineSet
EndChar

StartChar: uni06C1.medi
Encoding: 64425 64425 79
Width: 1169
GlyphClass: 2
Flags: W
AnchorPoint: "Anchor-1" 680 -640 basechar 0
AnchorPoint: "Anchor-0" 540 600 basechar 0
LayerCount: 2
Fore
SplineSet
1180 160 m 2,0,1
 1190 160 1190 160 1190 152 c 2,2,-1
 1190 10 l 2,3,4
 1190 0 1190 0 1180 0 c 2,5,-1
 909 0 l 1,6,-1
 909 -508 l 1,7,-1
 717 -508 l 2,8,9
 516 -508 516 -508 388.5 -380 c 128,-1,10
 261 -252 261 -252 215 0 c 1,11,-1
 -10 0 l 2,12,13
 -20 0 -20 0 -20 10 c 2,14,-1
 -20 152 l 2,15,16
 -20 160 -20 160 -10 160 c 2,17,-1
 346 160 l 1,18,19
 416 -348 416 -348 727 -348 c 1,20,-1
 727 160 l 1,21,-1
 1180 160 l 2,0,1
EndSplineSet
EndChar

StartChar: uni06BE
Encoding: 1726 1726 80
AltUni2: 00fbaa.ffffffff.0
Width: 1651
GlyphClass: 2
Flags: W
AnchorPoint: "Anchor-1" 700 -160 basechar 0
AnchorPoint: "Anchor-0" 700 1460 basechar 0
LayerCount: 2
Fore
SplineSet
860 160 m 1,0,-1
 860 399 l 2,1,2
 860 549 860 549 803 619.5 c 128,-1,3
 746 690 746 690 629 690 c 0,4,5
 525 690 525 690 466.5 626.5 c 128,-1,6
 408 563 408 563 408 446 c 0,7,8
 408 316 408 316 485.5 238 c 128,-1,9
 563 160 563 160 692 160 c 2,10,-1
 860 160 l 1,0,-1
133 160 m 1,11,-1
 369 160 l 1,12,13
 303 202 303 202 264 279.5 c 128,-1,14
 225 357 225 357 225 453 c 0,15,16
 225 578 225 578 279.5 672 c 128,-1,17
 334 766 334 766 429.5 818 c 128,-1,18
 525 870 525 870 637 870 c 0,19,20
 1034 870 1034 870 1034 430 c 2,21,-1
 1034 160 l 1,22,-1
 1303 160 l 1,23,-1
 1303 561 l 2,24,25
 1303 841 1303 841 1176 972.5 c 128,-1,26
 1049 1104 1049 1104 780 1104 c 0,27,28
 583 1104 583 1104 401 1044 c 1,29,-1
 354 1202 l 1,30,31
 546 1266 546 1266 780 1266 c 0,32,33
 1112 1266 1112 1266 1294.5 1086.5 c 128,-1,34
 1477 907 1477 907 1477 578 c 2,35,-1
 1477 0 l 1,36,-1
 133 0 l 1,37,-1
 133 160 l 1,11,-1
EndSplineSet
Substitution2: "'medi' Medial Forms in Arabic lookup 4 subtable" uni06BE.medi
Substitution2: "'init' Initial Forms in Arabic lookup 3 subtable" uni06BE.init
Substitution2: "'fina' Terminal Forms in Arabic lookup 2 subtable" uni06BE.fina
EndChar

StartChar: uni06D2
Encoding: 1746 1746 81
AltUni2: 00fbae.ffffffff.0
Width: 1182
GlyphClass: 2
Flags: W
AnchorPoint: "Anchor-1" 800 -600 basechar 0
AnchorPoint: "Anchor-0" 600 800 basechar 0
LayerCount: 2
Fore
SplineSet
401 -416 m 2,0,1
 253 -416 253 -416 172.5 -347.5 c 128,-1,2
 92 -279 92 -279 92 -152 c 0,3,4
 92 -69 92 -69 129.5 -7.5 c 128,-1,5
 167 54 167 54 244.5 105 c 128,-1,6
 322 156 322 156 504 229 c 0,7,8
 660 294 660 294 716 333.5 c 128,-1,9
 772 373 772 373 793.5 422 c 128,-1,10
 815 471 815 471 815 565 c 2,11,-1
 815 645 l 1,12,-1
 997 645 l 1,13,-1
 997 565 l 2,14,15
 997 447 997 447 965.5 372.5 c 128,-1,16
 934 298 934 298 861 241.5 c 128,-1,17
 788 185 788 185 610 111 c 0,18,19
 437 39 437 39 379.5 5.5 c 128,-1,20
 322 -28 322 -28 298 -62.5 c 128,-1,21
 274 -97 274 -97 274 -152 c 0,22,23
 274 -196 274 -196 308.5 -226 c 128,-1,24
 343 -256 343 -256 397 -256 c 2,25,-1
 1356 -256 l 1,26,-1
 1356 -416 l 1,27,-1
 401 -416 l 2,0,1
EndSplineSet
Substitution2: "'fina' Terminal Forms in Arabic lookup 2 subtable" uni06D2.fina
EndChar

StartChar: uni06D2.fina
Encoding: 64431 64431 82
Width: 795
GlyphClass: 2
Flags: W
AnchorPoint: "Anchor-1" 800 -600 basechar 0
AnchorPoint: "Anchor-0" 500 380 basechar 0
LayerCount: 2
Fore
SplineSet
813 160 m 2,0,1
 823 160 823 160 823 152 c 2,2,-1
 823 10 l 2,3,4
 823 0 823 0 813 0 c 2,5,-1
 518 0 l 2,6,7
 409 0 409 0 341.5 -42.5 c 128,-1,8
 274 -85 274 -85 274 -152 c 0,9,10
 274 -200 274 -200 307 -228 c 128,-1,11
 340 -256 340 -256 397 -256 c 2,12,-1
 1356 -256 l 1,13,-1
 1356 -416 l 1,14,-1
 401 -416 l 2,15,16
 253 -416 253 -416 172.5 -347.5 c 128,-1,17
 92 -279 92 -279 92 -152 c 0,18,19
 92 -65 92 -65 153 6 c 128,-1,20
 214 77 214 77 320.5 118.5 c 128,-1,21
 427 160 427 160 545 160 c 2,22,-1
 813 160 l 2,0,1
EndSplineSet
EndChar

StartChar: uni06A9
Encoding: 1705 1705 83
AltUni2: 00fb8e.ffffffff.0
Width: 1655
GlyphClass: 2
Flags: W
AnchorPoint: "Anchor-1" 800 -160 basechar 0
AnchorPoint: "Anchor-0" 700 1500 basechar 0
LayerCount: 2
Fore
SplineSet
516 0 m 2,0,1
 330 0 330 0 231.5 95 c 128,-1,2
 133 190 133 190 133 367 c 0,3,4
 133 419 133 419 144 496 c 128,-1,5
 155 573 155 573 174 643 c 1,6,-1
 338 643 l 1,7,8
 307 473 307 473 307 387 c 0,9,10
 307 281 307 281 361.5 220.5 c 128,-1,11
 416 160 416 160 510 160 c 2,12,-1
 1327 160 l 1,13,-1
 1327 537 l 2,14,15
 1327 690 1327 690 1235 762 c 128,-1,16
 1143 834 1143 834 950 834 c 2,17,-1
 602 834 l 1,18,-1
 602 1001 l 1,19,20
 668 1139 668 1139 784 1272.5 c 128,-1,21
 900 1406 900 1406 1043.5 1510.5 c 128,-1,22
 1187 1615 1187 1615 1323 1667 c 1,23,-1
 1389 1511 l 1,24,25
 1203 1439 1203 1439 1022 1288 c 128,-1,26
 841 1137 841 1137 772 993 c 1,27,-1
 950 993 l 2,28,29
 1218 993 1218 993 1359.5 883 c 128,-1,30
 1501 773 1501 773 1501 567 c 2,31,-1
 1501 0 l 1,32,-1
 516 0 l 2,0,1
EndSplineSet
Substitution2: "'medi' Medial Forms in Arabic lookup 4 subtable" uni06A9.medi
Substitution2: "'init' Initial Forms in Arabic lookup 3 subtable" uni06A9.init
Substitution2: "'fina' Terminal Forms in Arabic lookup 2 subtable" uni06A9.fina
EndChar

StartChar: uni06A9.fina
Encoding: 64399 64399 84
Width: 1757
GlyphClass: 2
Flags: W
AnchorPoint: "Anchor-1" 800 -160 basechar 0
AnchorPoint: "Anchor-0" 700 1500 basechar 0
LayerCount: 2
Fore
SplineSet
516 0 m 2,0,1
 330 0 330 0 231.5 95 c 128,-1,2
 133 190 133 190 133 367 c 0,3,4
 133 419 133 419 144 496 c 128,-1,5
 155 573 155 573 174 643 c 1,6,-1
 338 643 l 1,7,8
 307 473 307 473 307 387 c 0,9,10
 307 281 307 281 361.5 220.5 c 128,-1,11
 416 160 416 160 510 160 c 2,12,-1
 1327 160 l 1,13,-1
 1327 537 l 2,14,15
 1327 690 1327 690 1235 762 c 128,-1,16
 1143 834 1143 834 950 834 c 2,17,-1
 602 834 l 1,18,-1
 602 1001 l 1,19,20
 668 1139 668 1139 784 1272.5 c 128,-1,21
 900 1406 900 1406 1043.5 1510.5 c 128,-1,22
 1187 1615 1187 1615 1323 1667 c 1,23,-1
 1389 1511 l 1,24,25
 1203 1439 1203 1439 1022 1288 c 128,-1,26
 841 1137 841 1137 772 993 c 1,27,-1
 950 993 l 2,28,29
 1218 993 1218 993 1359.5 883 c 128,-1,30
 1501 773 1501 773 1501 567 c 2,31,-1
 1501 160 l 1,32,-1
 1767 160 l 2,33,34
 1778 160 1778 160 1778 152 c 2,35,-1
 1778 10 l 2,36,37
 1778 0 1778 0 1767 0 c 2,38,-1
 516 0 l 2,0,1
EndSplineSet
EndChar

StartChar: uni06BA
Encoding: 1722 1722 89
AltUni2: 00fb9e.ffffffff.0
Width: 1376
GlyphClass: 2
Flags: W
AnchorPoint: "Anchor-1" 660 -660 basechar 0
AnchorPoint: "Anchor-0" 600 1100 basechar 0
LayerCount: 2
Fore
SplineSet
545 -492 m 2,0,1
 353 -492 353 -492 243 -359 c 128,-1,2
 133 -226 133 -226 133 2 c 0,3,4
 133 247 133 247 217 455 c 1,5,-1
 387 455 l 1,6,7
 317 278 317 278 317 14 c 0,8,9
 317 -152 317 -152 386 -242 c 128,-1,10
 455 -332 455 -332 584 -332 c 2,11,-1
 684 -332 l 2,12,13
 862 -332 862 -332 945 -251 c 128,-1,14
 1028 -170 1028 -170 1028 -6 c 2,15,-1
 1028 993 l 1,16,-1
 1202 993 l 1,17,-1
 1202 8 l 2,18,19
 1202 -240 1202 -240 1079 -366 c 128,-1,20
 956 -492 956 -492 692 -492 c 2,21,-1
 545 -492 l 2,0,1
EndSplineSet
Substitution2: "'medi' Medial Forms in Arabic lookup 4 subtable" uni0646.medi
Substitution2: "'init' Initial Forms in Arabic lookup 3 subtable" uni0646.init
Substitution2: "'fina' Terminal Forms in Arabic lookup 2 subtable" uni06BA.fina
EndChar

StartChar: uni06BA.fina
Encoding: 64415 64415 90
Width: 1417
GlyphClass: 2
Flags: W
AnchorPoint: "Anchor-1" 660 -660 basechar 0
AnchorPoint: "Anchor-0" 600 1100 basechar 0
LayerCount: 2
Fore
SplineSet
1202 0 m 1,0,1
 1199 -243 1199 -243 1076 -367.5 c 128,-1,2
 953 -492 953 -492 692 -492 c 2,3,-1
 545 -492 l 2,4,5
 353 -492 353 -492 243 -359 c 128,-1,6
 133 -226 133 -226 133 2 c 0,7,8
 133 247 133 247 217 455 c 1,9,-1
 387 455 l 1,10,11
 317 278 317 278 317 14 c 0,12,13
 317 -152 317 -152 386 -242 c 128,-1,14
 455 -332 455 -332 584 -332 c 2,15,-1
 684 -332 l 2,16,17
 862 -332 862 -332 945 -251 c 128,-1,18
 1028 -170 1028 -170 1028 -4 c 2,19,-1
 1028 993 l 1,20,-1
 1202 993 l 1,21,-1
 1202 160 l 1,22,-1
 1427 160 l 2,23,24
 1438 160 1438 160 1438 152 c 2,25,-1
 1438 10 l 2,26,27
 1438 0 1438 0 1427 0 c 2,28,-1
 1202 0 l 1,0,1
EndSplineSet
EndChar

StartChar: uni066A
Encoding: 1642 1642 91
Width: 1174
GlyphClass: 2
Flags: W
LayerCount: 2
Fore
SplineSet
201 1245 m 1,0,-1
 416 1245 l 1,1,-1
 416 1030 l 1,2,-1
 201 1030 l 1,3,-1
 201 1245 l 1,0,-1
913 1380 m 1,4,-1
 1071 1380 l 1,5,-1
 260 0 l 1,6,-1
 102 0 l 1,7,-1
 913 1380 l 1,4,-1
750 381 m 1,8,-1
 965 381 l 1,9,-1
 965 166 l 1,10,-1
 750 166 l 1,11,-1
 750 381 l 1,8,-1
EndSplineSet
EndChar

StartChar: uni061F
Encoding: 1567 1567 92
Width: 993
GlyphClass: 2
Flags: W
LayerCount: 2
Fore
SplineSet
518 432 m 2,0,1
 518 518 518 518 487 570.5 c 128,-1,2
 456 623 456 623 348 717 c 0,3,4
 250 804 250 804 210 858.5 c 128,-1,5
 170 913 170 913 151.5 972.5 c 128,-1,6
 133 1032 133 1032 133 1110 c 0,7,8
 133 1283 133 1283 239 1383 c 128,-1,9
 345 1483 345 1483 535 1483 c 0,10,11
 706 1483 706 1483 901 1382 c 1,12,-1
 838 1237 l 1,13,14
 768 1272 768 1272 694 1297.5 c 128,-1,15
 620 1323 620 1323 535 1323 c 0,16,17
 427 1323 427 1323 367 1265.5 c 128,-1,18
 307 1208 307 1208 307 1108 c 0,19,20
 307 1045 307 1045 322 999.5 c 128,-1,21
 337 954 337 954 370.5 912 c 128,-1,22
 404 870 404 870 487 799 c 0,23,24
 588 710 588 710 622.5 637.5 c 128,-1,25
 657 565 657 565 657 451 c 2,26,-1
 657 414 l 1,27,-1
 518 414 l 1,28,-1
 518 432 l 2,0,1
578 -29 m 0,29,30
 524 -29 524 -29 487.5 4 c 128,-1,31
 451 37 451 37 451 111 c 0,32,33
 451 250 451 250 578 250 c 256,34,35
 705 250 705 250 705 111 c 0,36,37
 705 45 705 45 672 8 c 128,-1,38
 639 -29 639 -29 578 -29 c 0,29,30
EndSplineSet
EndChar

StartChar: uni060C
Encoding: 1548 1548 93
Width: 580
GlyphClass: 2
Flags: W
LayerCount: 2
Fore
SplineSet
133 23 m 1,0,1
 192 241 192 241 309 502 c 1,2,-1
 446 502 l 1,3,4
 386 242 386 242 346 0 c 1,5,-1
 147 0 l 1,6,-1
 133 23 l 1,0,1
EndSplineSet
EndChar

StartChar: uni061B
Encoding: 1563 1563 94
Width: 604
GlyphClass: 2
Flags: W
LayerCount: 2
Fore
SplineSet
260 -20 m 256,0,1
 133 -20 133 -20 133 119 c 0,2,3
 133 192 133 192 169.5 225 c 128,-1,4
 206 258 206 258 260 258 c 256,5,6
 314 258 314 258 350.5 225 c 128,-1,7
 387 192 387 192 387 119 c 0,8,9
 387 -20 387 -20 260 -20 c 256,0,1
158 891 m 1,10,11
 224 1133 224 1133 334 1370 c 1,12,-1
 471 1370 l 1,13,14
 446 1268 446 1268 415.5 1114.5 c 128,-1,15
 385 961 385 961 371 868 c 1,16,-1
 172 868 l 1,17,-1
 158 891 l 1,10,11
EndSplineSet
EndChar

StartChar: uni066B
Encoding: 1643 1643 95
Width: 580
GlyphClass: 2
Flags: W
LayerCount: 2
Fore
SplineSet
133 -264 m 1,0,1
 158 -162 158 -162 188.5 -8.5 c 128,-1,2
 219 145 219 145 233 238 c 1,3,-1
 432 238 l 1,4,-1
 446 215 l 1,5,6
 396 18 396 18 270 -264 c 1,7,-1
 133 -264 l 1,0,1
EndSplineSet
EndChar

StartChar: uni066C
Encoding: 1644 1644 96
Width: 580
GlyphClass: 2
Flags: W
LayerCount: 2
Fore
SplineSet
133 287 m 1,0,1
 158 390 158 390 189 544 c 128,-1,2
 220 698 220 698 233 788 c 1,3,-1
 432 788 l 1,4,-1
 446 766 l 1,5,6
 398 573 398 573 270 287 c 1,7,-1
 133 287 l 1,0,1
EndSplineSet
EndChar

StartChar: uni066D
Encoding: 1645 1645 97
Width: 1126
GlyphClass: 2
Flags: W
LayerCount: 2
Fore
SplineSet
215 727 m 1,0,-1
 457 1053 l 1,1,-1
 82 1081 l 1,2,-1
 111 1274 l 1,3,-1
 502 1163 l 1,4,-1
 459 1556 l 1,5,-1
 664 1556 l 1,6,-1
 621 1163 l 1,7,-1
 1018 1274 l 1,8,-1
 1044 1081 l 1,9,-1
 666 1053 l 1,10,-1
 911 727 l 1,11,-1
 733 631 l 1,12,-1
 557 989 l 1,13,-1
 399 631 l 1,14,-1
 215 727 l 1,0,-1
EndSplineSet
EndChar

StartChar: uni064B
Encoding: 1611 1611 98
Width: 0
GlyphClass: 4
Flags: W
AnchorPoint: "Anchor-4" 0 2140 basemark 0
AnchorPoint: "Anchor-4" 0 1600 mark 0
AnchorPoint: "Anchor-2" 0 1600 mark 0
AnchorPoint: "Anchor-0" 0 1600 mark 0
LayerCount: 2
Fore
SplineSet
-240 1702 m 1,0,-1
 240 1880 l 1,1,-1
 240 1769 l 1,2,-1
 -240 1589 l 1,3,-1
 -240 1702 l 1,0,-1
-240 1933 m 1,4,-1
 240 2111 l 1,5,-1
 240 2001 l 1,6,-1
 -240 1821 l 1,7,-1
 -240 1933 l 1,4,-1
EndSplineSet
EndChar

StartChar: uni064D
Encoding: 1613 1613 99
Width: 0
GlyphClass: 4
Flags: W
AnchorPoint: "Anchor-5" 0 -810 basemark 0
AnchorPoint: "Anchor-5" 0 -250 mark 0
AnchorPoint: "Anchor-3" 0 -250 mark 0
AnchorPoint: "Anchor-1" 0 -250 mark 0
LayerCount: 2
Fore
SplineSet
-240 -680 m 1,0,-1
 240 -502 l 1,1,-1
 240 -612 l 1,2,-1
 -240 -793 l 1,3,-1
 -240 -680 l 1,0,-1
-240 -449 m 1,4,-1
 240 -270 l 1,5,-1
 240 -381 l 1,6,-1
 -240 -561 l 1,7,-1
 -240 -449 l 1,4,-1
EndSplineSet
EndChar

StartChar: uni064E
Encoding: 1614 1614 100
Width: 0
GlyphClass: 4
Flags: W
AnchorPoint: "Anchor-4" 0 1900 basemark 0
AnchorPoint: "Anchor-4" 0 1600 mark 0
AnchorPoint: "Anchor-2" 0 1600 mark 0
AnchorPoint: "Anchor-0" 0 1600 mark 0
LayerCount: 2
Fore
SplineSet
-240 1702 m 1,0,-1
 240 1880 l 1,1,-1
 240 1769 l 1,2,-1
 -240 1589 l 1,3,-1
 -240 1702 l 1,0,-1
EndSplineSet
EndChar

StartChar: uni064F
Encoding: 1615 1615 101
Width: 0
GlyphClass: 4
Flags: W
AnchorPoint: "Anchor-4" 0 2140 basemark 0
AnchorPoint: "Anchor-4" 0 1600 mark 0
AnchorPoint: "Anchor-2" 0 1600 mark 0
AnchorPoint: "Anchor-0" 0 1600 mark 0
LayerCount: 2
Fore
SplineSet
-92 1597 m 0,0,1
 -206 1597 -206 1597 -301 1665 c 1,2,-1
 -242 1751 l 1,3,4
 -166 1700 -166 1700 -96 1700 c 0,5,6
 -36 1700 -36 1700 6 1714 c 1,7,8
 -59 1797 -59 1797 -59 1888 c 0,9,10
 -59 1966 -59 1966 -8 2012 c 128,-1,11
 43 2058 43 2058 125 2058 c 256,12,13
 207 2058 207 2058 254 2011.5 c 128,-1,14
 301 1965 301 1965 301 1896 c 0,15,16
 301 1823 301 1823 246.5 1752.5 c 128,-1,17
 192 1682 192 1682 100 1639.5 c 128,-1,18
 8 1597 8 1597 -92 1597 c 0,0,1
96 1749 m 1,19,20
 150 1778 150 1778 172.5 1815.5 c 128,-1,21
 195 1853 195 1853 195 1888 c 0,22,23
 195 1920 195 1920 174 1940 c 128,-1,24
 153 1960 153 1960 121 1960 c 0,25,26
 90 1960 90 1960 67.5 1940 c 128,-1,27
 45 1920 45 1920 45 1878 c 0,28,29
 45 1815 45 1815 96 1749 c 1,19,20
EndSplineSet
EndChar

StartChar: uni064C
Encoding: 1612 1612 102
Width: 0
GlyphClass: 4
Flags: W
AnchorPoint: "Anchor-4" 0 2140 basemark 0
AnchorPoint: "Anchor-4" 0 1600 mark 0
AnchorPoint: "Anchor-2" 0 1600 mark 0
AnchorPoint: "Anchor-0" 0 1600 mark 0
LayerCount: 2
Fore
SplineSet
10 1597 m 0,0,1
 -105 1597 -105 1597 -186 1668 c 2,2,-1
 -217 1694 l 1,3,-1
 -301 1626 l 1,4,-1
 -367 1704 l 1,5,-1
 -207 1849 l 1,6,7
 -154 1778 -154 1778 -99 1739 c 128,-1,8
 -44 1700 -44 1700 2 1700 c 0,9,10
 43 1700 43 1700 59 1710 c 1,11,12
 30 1747 30 1747 11 1795 c 128,-1,13
 -8 1843 -8 1843 -8 1888 c 0,14,15
 -8 1966 -8 1966 43 2012 c 128,-1,16
 94 2058 94 2058 176 2058 c 0,17,18
 256 2058 256 2058 304 2013 c 128,-1,19
 352 1968 352 1968 352 1896 c 0,20,21
 352 1814 352 1814 305 1745 c 128,-1,22
 258 1676 258 1676 179 1636.5 c 128,-1,23
 100 1597 100 1597 10 1597 c 0,0,1
154 1743 m 1,24,25
 246 1794 246 1794 246 1888 c 0,26,27
 246 1920 246 1920 225 1940 c 128,-1,28
 204 1960 204 1960 172 1960 c 0,29,30
 141 1960 141 1960 118.5 1940 c 128,-1,31
 96 1920 96 1920 96 1878 c 0,32,33
 96 1818 96 1818 154 1743 c 1,24,25
EndSplineSet
EndChar

StartChar: uni0650
Encoding: 1616 1616 103
Width: 0
GlyphClass: 4
Flags: W
AnchorPoint: "Anchor-5" 0 -580 basemark 0
AnchorPoint: "Anchor-5" 0 -250 mark 0
AnchorPoint: "Anchor-3" 0 -250 mark 0
AnchorPoint: "Anchor-1" 0 -250 mark 0
LayerCount: 2
Fore
SplineSet
-240 -449 m 1,0,-1
 240 -270 l 1,1,-1
 240 -381 l 1,2,-1
 -240 -561 l 1,3,-1
 -240 -449 l 1,0,-1
EndSplineSet
EndChar

StartChar: uni0651
Encoding: 1617 1617 104
Width: 0
GlyphClass: 4
Flags: W
AnchorPoint: "Anchor-4" 0 2140 basemark 0
AnchorPoint: "Anchor-4" 0 1650 mark 0
AnchorPoint: "Anchor-2" 0 1650 mark 0
AnchorPoint: "Anchor-0" 0 1650 mark 0
LayerCount: 2
Fore
SplineSet
-158 1651 m 0,0,1
 -239 1651 -239 1651 -282.5 1701.5 c 128,-1,2
 -326 1752 -326 1752 -326 1849 c 2,3,-1
 -326 1978 l 1,4,-1
 -219 1978 l 1,5,-1
 -219 1868 l 2,6,7
 -219 1806 -219 1806 -201 1780.5 c 128,-1,8
 -183 1755 -183 1755 -137 1755 c 0,9,10
 -47 1755 -47 1755 -47 1849 c 2,11,-1
 -47 2030 l 1,12,-1
 49 2030 l 1,13,-1
 49 1890 l 2,14,15
 49 1836 49 1836 68 1816 c 128,-1,16
 87 1796 87 1796 127 1796 c 0,17,18
 182 1796 182 1796 201.5 1822.5 c 128,-1,19
 221 1849 221 1849 221 1909 c 2,20,-1
 221 2060 l 1,21,-1
 328 2060 l 1,22,-1
 328 1890 l 2,23,24
 328 1794 328 1794 283.5 1743 c 128,-1,25
 239 1692 239 1692 152 1692 c 0,26,27
 56 1692 56 1692 8 1753 c 1,28,29
 -41 1651 -41 1651 -158 1651 c 0,0,1
EndSplineSet
EndChar

StartChar: uni0652
Encoding: 1618 1618 105
Width: 0
GlyphClass: 4
Flags: W
AnchorPoint: "Anchor-4" 0 2180 basemark 0
AnchorPoint: "Anchor-4" 0 1660 mark 0
AnchorPoint: "Anchor-2" 0 1660 mark 0
AnchorPoint: "Anchor-0" 0 1660 mark 0
LayerCount: 2
Fore
SplineSet
-2 1671 m 0,0,1
 -104 1671 -104 1671 -164.5 1728.5 c 128,-1,2
 -225 1786 -225 1786 -225 1886 c 0,3,4
 -225 1987 -225 1987 -164 2044 c 128,-1,5
 -103 2101 -103 2101 -2 2101 c 0,6,7
 101 2101 101 2101 164 2042.5 c 128,-1,8
 227 1984 227 1984 227 1888 c 0,9,10
 227 1789 227 1789 164 1730 c 128,-1,11
 101 1671 101 1671 -2 1671 c 0,0,1
-2 1774 m 0,12,13
 47 1774 47 1774 79 1803 c 128,-1,14
 111 1832 111 1832 111 1886 c 256,15,16
 111 1940 111 1940 79 1969.5 c 128,-1,17
 47 1999 47 1999 -2 1999 c 0,18,19
 -52 1999 -52 1999 -83.5 1969.5 c 128,-1,20
 -115 1940 -115 1940 -115 1886 c 0,21,22
 -115 1774 -115 1774 -2 1774 c 0,12,13
EndSplineSet
EndChar

StartChar: uni0653
Encoding: 1619 1619 106
Width: 0
GlyphClass: 4
Flags: W
AnchorPoint: "Anchor-4" 0 1880 basemark 0
AnchorPoint: "Anchor-4" 0 1560 mark 0
AnchorPoint: "Anchor-2" 0 1560 mark 0
AnchorPoint: "Anchor-0" 0 1560 mark 0
LayerCount: 2
Fore
SplineSet
-303 1556 m 1,0,1
 -292 1654 -292 1654 -246 1710.5 c 128,-1,2
 -200 1767 -200 1767 -115 1767 c 0,3,4
 -78 1767 -78 1767 -41 1753 c 128,-1,5
 -4 1739 -4 1739 30.5 1722 c 128,-1,6
 65 1705 65 1705 96.5 1691 c 128,-1,7
 128 1677 128 1677 154 1677 c 0,8,9
 195 1677 195 1677 215.5 1698.5 c 128,-1,10
 236 1720 236 1720 250 1769 c 1,11,-1
 342 1769 l 1,12,13
 331 1672 331 1672 285 1615.5 c 128,-1,14
 239 1559 239 1559 154 1559 c 0,15,16
 117 1559 117 1559 81 1573 c 128,-1,17
 45 1587 45 1587 11 1604 c 128,-1,18
 -23 1621 -23 1621 -55 1635 c 128,-1,19
 -87 1649 -87 1649 -115 1649 c 0,20,21
 -157 1649 -157 1649 -177 1627.5 c 128,-1,22
 -197 1606 -197 1606 -211 1556 c 1,23,-1
 -303 1556 l 1,0,1
EndSplineSet
EndChar

StartChar: uni0654
Encoding: 1620 1620 107
Width: 0
GlyphClass: 4
Flags: W
AnchorPoint: "Anchor-4" 0 2040 basemark 0
AnchorPoint: "Anchor-4" 0 1560 mark 0
AnchorPoint: "Anchor-2" 0 1560 mark 0
AnchorPoint: "Anchor-0" 0 1560 mark 0
LayerCount: 2
Fore
SplineSet
-203 1628 m 1,0,-1
 -106 1642 l 1,1,2
 -178 1689 -178 1689 -178 1772 c 0,3,4
 -178 1860 -178 1860 -120.5 1908 c 128,-1,5
 -63 1956 -63 1956 31 1956 c 0,6,7
 111 1956 111 1956 166 1925 c 1,8,-1
 135 1833 l 1,9,10
 94 1858 94 1858 33 1858 c 0,11,12
 -12 1858 -12 1858 -43 1832.5 c 128,-1,13
 -74 1807 -74 1807 -74 1753 c 0,14,15
 -74 1718 -74 1718 -56 1693.5 c 128,-1,16
 -38 1669 -38 1669 -12 1657 c 1,17,18
 8 1662 8 1662 86 1672.5 c 128,-1,19
 164 1683 164 1683 193 1683 c 1,20,-1
 193 1583 l 1,21,22
 177 1583 177 1583 120.5 1577.5 c 128,-1,23
 64 1572 64 1572 -88 1552 c 2,24,-1
 -203 1534 l 1,25,-1
 -203 1628 l 1,0,-1
EndSplineSet
EndChar

StartChar: uni0655
Encoding: 1621 1621 108
Width: 0
GlyphClass: 4
Flags: W
AnchorPoint: "Anchor-5" 0 -600 basemark 0
AnchorPoint: "Anchor-5" 0 -120 mark 0
AnchorPoint: "Anchor-3" 0 -120 mark 0
AnchorPoint: "Anchor-1" 0 -120 mark 0
LayerCount: 2
Fore
SplineSet
-203 -446 m 1,0,-1
 -106 -432 l 1,1,2
 -135 -414 -135 -414 -156.5 -381 c 128,-1,3
 -178 -348 -178 -348 -178 -303 c 0,4,5
 -178 -217 -178 -217 -122.5 -168 c 128,-1,6
 -67 -119 -67 -119 31 -119 c 0,7,8
 111 -119 111 -119 166 -150 c 1,9,-1
 135 -242 l 1,10,11
 94 -217 94 -217 33 -217 c 0,12,13
 -12 -217 -12 -217 -43 -242.5 c 128,-1,14
 -74 -268 -74 -268 -74 -322 c 0,15,16
 -74 -387 -74 -387 -12 -418 c 1,17,18
 8 -413 8 -413 90 -402 c 128,-1,19
 172 -391 172 -391 193 -391 c 1,20,-1
 193 -492 l 1,21,22
 147 -492 147 -492 -1.5 -511 c 128,-1,23
 -150 -530 -150 -530 -203 -541 c 1,24,-1
 -203 -446 l 1,0,-1
EndSplineSet
EndChar

StartChar: uni0670
Encoding: 1648 1648 109
Width: 0
GlyphClass: 4
Flags: W
AnchorPoint: "Anchor-4" 0 2160 basemark 0
AnchorPoint: "Anchor-4" 0 1640 mark 0
AnchorPoint: "Anchor-2" 0 1640 mark 0
AnchorPoint: "Anchor-0" 0 1640 mark 0
LayerCount: 2
Fore
SplineSet
-59 2058 m 1,0,-1
 57 2058 l 1,1,-1
 57 1661 l 1,2,-1
 -59 1661 l 1,3,-1
 -59 2058 l 1,0,-1
EndSplineSet
EndChar

StartChar: uni0656
Encoding: 1622 1622 110
Width: 0
GlyphClass: 4
Flags: W
AnchorPoint: "Anchor-5" 0 -880 basemark 0
AnchorPoint: "Anchor-5" 0 -400 mark 0
AnchorPoint: "Anchor-3" 0 -400 mark 0
AnchorPoint: "Anchor-1" 0 -400 mark 0
LayerCount: 2
Fore
SplineSet
-59 -395 m 1,0,-1
 57 -395 l 1,1,-1
 57 -793 l 1,2,-1
 -59 -793 l 1,3,-1
 -59 -395 l 1,0,-1
EndSplineSet
EndChar

StartChar: uni0615
Encoding: 1557 1557 111
Width: 0
GlyphClass: 4
Flags: W
AnchorPoint: "Anchor-4" -50 1800 basemark 0
AnchorPoint: "Anchor-4" -30 1190 mark 0
AnchorPoint: "Anchor-2" -30 1190 mark 0
AnchorPoint: "Anchor-0" -30 1190 mark 0
LayerCount: 2
Fore
SplineSet
-238 1292 m 1,0,-1
 -207 1292 l 1,1,-1
 -207 1665 l 1,2,-1
 -125 1665 l 1,3,-1
 -125 1405 l 1,4,5
 -100 1465 -100 1465 -62.5 1501.5 c 128,-1,6
 -25 1538 -25 1538 35 1538 c 0,7,8
 186 1538 186 1538 186 1360 c 2,9,-1
 186 1204 l 1,10,-1
 -238 1204 l 1,11,-1
 -238 1292 l 1,0,-1
104 1292 m 1,12,-1
 104 1343 l 2,13,14
 104 1397 104 1397 86 1423.5 c 128,-1,15
 68 1450 68 1450 25 1450 c 0,16,17
 -23 1450 -23 1450 -59.5 1417.5 c 128,-1,18
 -96 1385 -96 1385 -125 1313 c 1,19,-1
 -125 1292 l 1,20,-1
 104 1292 l 1,12,-1
EndSplineSet
EndChar

StartChar: uni062F.fina
Encoding: 65194 65194 112
Width: 1165
GlyphClass: 2
Flags: W
AnchorPoint: "Anchor-1" 450 -160 basechar 0
AnchorPoint: "Anchor-0" 350 1200 basechar 0
LayerCount: 2
Fore
SplineSet
92 160 m 1,0,-1
 774 160 l 1,1,2
 734 435 734 435 621 628.5 c 128,-1,3
 508 822 508 822 299 963 c 1,4,-1
 365 1118 l 1,5,6
 601 993 601 993 749.5 751 c 128,-1,7
 898 509 898 509 948 160 c 1,8,-1
 1176 160 l 2,9,10
 1186 160 1186 160 1186 152 c 2,11,-1
 1186 10 l 2,12,13
 1186 0 1186 0 1176 0 c 2,14,-1
 92 0 l 1,15,-1
 92 160 l 1,0,-1
EndSplineSet
EndChar

StartChar: wasla
Encoding: 65547 -1 113
Width: 0
VWidth: 1000
GlyphClass: 4
Flags: W
LayerCount: 2
Fore
SplineSet
-320 878 m 0,0,1
 -275 878 -275 878 -250.5 861 c 128,-1,2
 -226 844 -226 844 -226 809 c 0,3,4
 -226 780 -226 780 -244 766 c 128,-1,5
 -262 752 -262 752 -287 746 c 1,6,-1
 -290 726 l 1,7,-1
 -331 726 l 1,8,-1
 -336 771 l 1,9,10
 -308 776 -308 776 -293 783.5 c 128,-1,11
 -278 791 -278 791 -278 808 c 256,12,13
 -278 825 -278 825 -291.5 831.5 c 128,-1,14
 -305 838 -305 838 -325 838 c 0,15,16
 -336 838 -336 838 -345.5 837 c 128,-1,17
 -355 836 -355 836 -361 835 c 1,18,-1
 -361 874 l 1,19,20
 -349 878 -349 878 -320 878 c 0,0,1
-150 737 m 1,21,22
 -155 677 -155 677 -191.5 641.5 c 128,-1,23
 -228 606 -228 606 -299 606 c 256,24,25
 -370 606 -370 606 -405 641 c 128,-1,26
 -440 676 -440 676 -445 737 c 1,27,-1
 -392 737 l 1,28,29
 -388 696 -388 696 -364.5 684 c 128,-1,30
 -341 672 -341 672 -298 672 c 0,31,32
 -260 672 -260 672 -234 684.5 c 128,-1,33
 -208 697 -208 697 -203 737 c 1,34,-1
 -150 737 l 1,21,22
EndSplineSet
EndChar

StartChar: uni066E.init
Encoding: 65548 -1 114
Width: 0
VWidth: 1000
GlyphClass: 2
Flags: W
LayerCount: 2
Fore
SplineSet
-136 881 m 1,0,1
 -140 835 -140 835 -164 805 c 128,-1,2
 -188 775 -188 775 -228 775 c 0,3,4
 -252 775 -252 775 -274.5 786.5 c 128,-1,5
 -297 798 -297 798 -318.5 809.5 c 128,-1,6
 -340 821 -340 821 -358 821 c 0,7,8
 -378 821 -378 821 -388 809.5 c 128,-1,9
 -398 798 -398 798 -405 774 c 1,10,-1
 -450 774 l 1,11,12
 -445 820 -445 820 -421.5 850 c 128,-1,13
 -398 880 -398 880 -358 880 c 0,14,15
 -334 880 -334 880 -310.5 868.5 c 128,-1,16
 -287 857 -287 857 -265.5 845.5 c 128,-1,17
 -244 834 -244 834 -227 834 c 0,18,19
 -208 834 -208 834 -197.5 845.5 c 128,-1,20
 -187 857 -187 857 -181 881 c 1,21,-1
 -136 881 l 1,0,1
-150 735 m 1,22,23
 -155 676 -155 676 -191.5 641 c 128,-1,24
 -228 606 -228 606 -299 606 c 256,25,26
 -370 606 -370 606 -405 640 c 128,-1,27
 -440 674 -440 674 -445 735 c 1,28,-1
 -392 735 l 1,29,30
 -388 694 -388 694 -364.5 683 c 128,-1,31
 -341 672 -341 672 -298 672 c 0,32,33
 -260 672 -260 672 -234 684 c 128,-1,34
 -208 696 -208 696 -203 735 c 1,35,-1
 -150 735 l 1,22,23
EndSplineSet
EndChar

StartChar: uni066E.medi
Encoding: 65549 -1 115
Width: 205
VWidth: 1000
GlyphClass: 2
Flags: W
LayerCount: 2
Fore
SplineSet
108 -116 m 0,0,1
 108 -89 108 -89 90.5 -60.5 c 128,-1,2
 73 -32 73 -32 40 0 c 1,3,-1
 102 0 l 1,4,5
 128 -20 128 -20 154 -50.5 c 128,-1,6
 180 -81 180 -81 180 -124 c 0,7,8
 180 -168 180 -168 154.5 -194 c 128,-1,9
 129 -220 129 -220 80 -220 c 0,10,11
 49 -220 49 -220 22 -212 c 1,12,-1
 22 -156 l 1,13,14
 39 -161 39 -161 65 -161 c 0,15,16
 83 -161 83 -161 95.5 -149.5 c 128,-1,17
 108 -138 108 -138 108 -116 c 0,0,1
EndSplineSet
EndChar

StartChar: beh_dotless_alt.init
Encoding: 65550 -1 116
Width: 214
VWidth: 1000
GlyphClass: 2
Flags: W
LayerCount: 2
Fore
SplineSet
72 -198 m 0,0,1
 53 -198 53 -198 37.5 -194 c 128,-1,2
 22 -190 22 -190 12 -186 c 1,3,-1
 12 -113 l 1,4,5
 20 -116 20 -116 33 -119 c 128,-1,6
 46 -122 46 -122 62 -122 c 0,7,8
 110 -122 110 -122 110 -70 c 2,9,-1
 110 0 l 1,10,-1
 100 0 l 1,11,-1
 100 80 l 1,12,-1
 189 80 l 1,13,-1
 189 -65 l 2,14,15
 189 -130 189 -130 160.5 -164 c 128,-1,16
 132 -198 132 -198 72 -198 c 0,0,1
EndSplineSet
EndChar

StartChar: beh_dotless_alt.medi
Encoding: 65551 -1 117
Width: 0
VWidth: 1000
GlyphClass: 2
Flags: W
LayerCount: 2
Fore
SplineSet
-54 726 m 1,0,-1
 -54 738 l 1,1,2
 -31 766 -31 766 -2.5 801.5 c 128,-1,3
 26 837 26 837 42 871 c 1,4,-1
 147 871 l 1,5,-1
 147 861 l 1,6,7
 136 842 136 842 111 817.5 c 128,-1,8
 86 793 86 793 57 768.5 c 128,-1,9
 28 744 28 744 5 726 c 1,10,-1
 -54 726 l 1,0,-1
-94 601 m 256,11,12
 -113 601 -113 601 -127 612.5 c 128,-1,13
 -141 624 -141 624 -141 650 c 256,14,15
 -141 676 -141 676 -127 688 c 128,-1,16
 -113 700 -113 700 -94 700 c 256,17,18
 -75 700 -75 700 -61.5 688 c 128,-1,19
 -48 676 -48 676 -48 650 c 256,20,21
 -48 624 -48 624 -61.5 612.5 c 128,-1,22
 -75 601 -75 601 -94 601 c 256,11,12
93 601 m 256,23,24
 74 601 74 601 60 612.5 c 128,-1,25
 46 624 46 624 46 650 c 256,26,27
 46 676 46 676 60 688 c 128,-1,28
 74 700 74 700 93 700 c 256,29,30
 112 700 112 700 126 688 c 128,-1,31
 140 676 140 676 140 650 c 256,32,33
 140 624 140 624 126 612.5 c 128,-1,34
 112 601 112 601 93 601 c 256,23,24
EndSplineSet
EndChar

StartChar: uni06C1.fina
Encoding: 64423 64423 118
Width: 1335
GlyphClass: 2
Flags: W
AnchorPoint: "Anchor-1" 600 -160 basechar 0
AnchorPoint: "Anchor-0" 700 960 basechar 0
LayerCount: 2
Fore
SplineSet
102 0 m 1,0,1
 255 291 255 291 362 429 c 128,-1,2
 469 567 469 567 593.5 654.5 c 128,-1,3
 718 742 718 742 883 788 c 1,4,-1
 1075 788 l 1,5,-1
 1075 160 l 1,6,-1
 1346 160 l 2,7,8
 1356 160 1356 160 1356 152 c 2,9,-1
 1356 10 l 2,10,11
 1356 0 1356 0 1346 0 c 2,12,-1
 893 0 l 1,13,-1
 893 621 l 1,14,15
 760 569 760 569 671.5 502.5 c 128,-1,16
 583 436 583 436 508 331.5 c 128,-1,17
 433 227 433 227 322 0 c 1,18,-1
 102 0 l 1,0,1
EndSplineSet
EndChar

StartChar: onedot.below
Encoding: 65552 -1 121
Width: 0
VWidth: 1000
GlyphClass: 2
Flags: W
LayerCount: 2
Fore
SplineSet
-42 871 m 1,0,1
 -26 837 -26 837 2.5 801.5 c 128,-1,2
 31 766 31 766 54 738 c 1,3,-1
 54 726 l 1,4,-1
 -5 726 l 1,5,6
 -28 744 -28 744 -57 768.5 c 128,-1,7
 -86 793 -86 793 -111 817.5 c 128,-1,8
 -136 842 -136 842 -147 861 c 1,9,-1
 -147 871 l 1,10,-1
 -42 871 l 1,0,1
-94 700 m 256,11,12
 -75 700 -75 700 -61.5 688 c 128,-1,13
 -48 676 -48 676 -48 650 c 256,14,15
 -48 624 -48 624 -61.5 612.5 c 128,-1,16
 -75 601 -75 601 -94 601 c 256,17,18
 -113 601 -113 601 -127 612.5 c 128,-1,19
 -141 624 -141 624 -141 650 c 256,20,21
 -141 676 -141 676 -127 688 c 128,-1,22
 -113 700 -113 700 -94 700 c 256,11,12
93 700 m 256,23,24
 112 700 112 700 126 688 c 128,-1,25
 140 676 140 676 140 650 c 256,26,27
 140 624 140 624 126 612.5 c 128,-1,28
 112 601 112 601 93 601 c 256,29,30
 74 601 74 601 60 612.5 c 128,-1,31
 46 624 46 624 46 650 c 256,32,33
 46 676 46 676 60 688 c 128,-1,34
 74 700 74 700 93 700 c 256,23,24
EndSplineSet
EndChar

StartChar: twodots.below
Encoding: 65553 -1 122
Width: 615
VWidth: 1000
GlyphClass: 2
Flags: W
AnchorPoint: "Anchor-2" 311 874 basechar 0
AnchorPoint: "Anchor-0" 302 0 basechar 0
LayerCount: 2
Fore
SplineSet
241 874 m 4
 265 874 265 874 278.5 857 c 4
 292 840 292 840 292 815 c 4
 292 762 292 762 266 732 c 4
 240 702 240 702 182 696 c 5
 182 733 l 5
 216 735 216 735 228.5 748.5 c 4
 241 762 241 762 241 779 c 5
 219 779 219 779 204 790.5 c 4
 189 802 189 802 189 826 c 4
 189 852 189 852 204 863 c 4
 219 874 219 874 241 874 c 4
404 864 m 5
 412 830 412 830 425 789 c 4
 438 748 438 748 449 718 c 5
 449 706 l 5
 407 706 l 5
 378 741 378 741 351 781.5 c 4
 324 822 324 822 308 854 c 5
 308 864 l 5
 404 864 l 5
460 669 m 5
 460 598 l 5
 164 598 l 5
 164 669 l 5
 460 669 l 5
EndSplineSet
Refer: 1631 945 N 1 0 0 1 0 0 3
EndChar

StartChar: alef_alt.isol
Encoding: 65554 -1 123
Width: 615
VWidth: 1000
GlyphClass: 2
Flags: W
AnchorPoint: "Anchor-2" 311 874 basechar 0
AnchorPoint: "Anchor-0" 302 0 basechar 0
LayerCount: 2
Fore
SplineSet
191 696 m 5
 191 733 l 5
 225 735 225 735 237.5 748.5 c 4
 250 762 250 762 250 779 c 5
 228 779 228 779 213 790.5 c 4
 198 802 198 802 198 826 c 4
 198 852 198 852 213 863 c 4
 228 874 228 874 250 874 c 4
 274 874 274 874 287.5 857 c 4
 301 840 301 840 301 815 c 4
 301 762 301 762 275.5 732 c 4
 250 702 250 702 191 696 c 5
322 706 m 5
 322 718 l 5
 333 748 333 748 346.5 789 c 4
 360 830 360 830 367 864 c 5
 463 864 l 5
 463 854 l 5
 447 822 447 822 419.5 781.5 c 4
 392 741 392 741 364 706 c 5
 322 706 l 5
164 598 m 5
 164 669 l 5
 460 669 l 5
 460 598 l 5
 164 598 l 5
EndSplineSet
Refer: 1631 945 N 1 0 0 1 0 0 3
EndChar

StartChar: alef_alt.fina
Encoding: 65555 -1 124
Width: 615
VWidth: 1000
GlyphClass: 2
Flags: W
AnchorPoint: "Anchor-2" 311 874 basechar 0
AnchorPoint: "Anchor-0" 302 0 basechar 0
LayerCount: 2
Fore
SplineSet
231 874 m 4
 253 874 253 874 268 863 c 4
 283 852 283 852 283 826 c 4
 283 802 283 802 268 790.5 c 4
 253 779 253 779 231 779 c 5
 231 762 231 762 243.5 748.5 c 4
 256 735 256 735 290 733 c 5
 290 696 l 5
 232 702 232 702 206 732 c 4
 180 762 180 762 180 815 c 4
 180 840 180 840 193.5 857 c 4
 207 874 207 874 231 874 c 4
397 864 m 5
 404 830 404 830 417.5 789 c 4
 431 748 431 748 442 718 c 5
 442 706 l 5
 400 706 l 5
 372 741 372 741 344.5 781.5 c 4
 317 822 317 822 301 854 c 5
 301 864 l 5
 397 864 l 5
460 669 m 5
 460 598 l 5
 164 598 l 5
 164 669 l 5
 460 669 l 5
EndSplineSet
Refer: 1631 945 N 1 0 0 1 0 0 3
EndChar

StartChar: uni06440671.isol
Encoding: 65556 -1 236
Width: 1380
VWidth: 1000
GlyphClass: 3
Flags: W
AnchorPoint: "Anchor-2" 311 874 basechar 0
AnchorPoint: "Anchor-0" 302 0 basechar 0
LayerCount: 2
Fore
SplineSet
300 696 m 5
 242 702 242 702 216 732 c 4
 190 762 190 762 190 815 c 4
 190 840 190 840 203.5 857 c 4
 217 874 217 874 241 874 c 4
 263 874 263 874 278 863 c 4
 293 852 293 852 293 826 c 4
 293 802 293 802 278 790.5 c 4
 263 779 263 779 241 779 c 5
 241 762 241 762 253.5 748.5 c 4
 266 735 266 735 300 733 c 5
 300 696 l 5
321 706 m 5
 321 718 l 5
 332 748 332 748 345 789 c 4
 358 830 358 830 366 864 c 5
 462 864 l 5
 462 854 l 5
 446 822 446 822 419 781.5 c 4
 392 741 392 741 363 706 c 5
 321 706 l 5
164 598 m 5
 164 669 l 5
 460 669 l 5
 460 598 l 5
 164 598 l 5
EndSplineSet
Refer: 1631 945 N 1 0 0 1 0 0 3
Ligature2: "'rlig' Required Ligatures in Arabic lookup 5 subtable" uni0644.init uni0671.fina
EndChar

StartChar: uni06440671.fina
Encoding: 65557 -1 237
Width: 1452
VWidth: 1000
GlyphClass: 3
Flags: W
AnchorPoint: "Anchor-2" 311 904 basechar 0
AnchorPoint: "Anchor-0" 302 0 basechar 0
LayerCount: 2
Fore
SplineSet
186 726 m 5
 186 763 l 5
 220 765 220 765 232.5 778.5 c 4
 245 792 245 792 245 809 c 5
 223 809 223 809 208 820.5 c 4
 193 832 193 832 193 856 c 4
 193 882 193 882 208 893 c 4
 223 904 223 904 245 904 c 4
 269 904 269 904 282.5 887 c 4
 296 870 296 870 296 845 c 4
 296 792 296 792 270 762 c 4
 244 732 244 732 186 726 c 5
411 736 m 5
 382 771 382 771 355 811.5 c 4
 328 852 328 852 312 884 c 5
 312 894 l 5
 408 894 l 5
 416 860 416 860 429 819 c 4
 442 778 442 778 453 748 c 5
 453 736 l 5
 411 736 l 5
313 591 m 4
 243 591 243 591 206.5 623.5 c 4
 170 656 170 656 162 711 c 5
 217 711 l 5
 224 678 224 678 248.5 670 c 4
 273 662 273 662 315 662 c 4
 350 662 350 662 377 671.5 c 4
 404 681 404 681 413 711 c 5
 470 711 l 5
 462 656 462 656 421.5 623.5 c 4
 381 591 381 591 313 591 c 4
EndSplineSet
Refer: 1631 945 N 1 0 0 1 0 0 3
Ligature2: "'rlig' Required Ligatures in Arabic lookup 5 subtable" uni0644.medi uni0671.fina
EndChar

StartChar: heh_ae.fina
Encoding: 65558 -1 238
Width: 1227
VWidth: 1000
GlyphClass: 2
Flags: W
AnchorPoint: "Anchor-2" 311 904 basechar 0
AnchorPoint: "Anchor-0" 302 0 basechar 0
LayerCount: 2
Fore
SplineSet
194 726 m 5
 194 763 l 5
 228 765 228 765 240.5 778.5 c 4
 253 792 253 792 253 809 c 5
 231 809 231 809 216 820.5 c 4
 201 832 201 832 201 856 c 4
 201 882 201 882 216 893 c 4
 231 904 231 904 253 904 c 4
 277 904 277 904 290.5 887 c 4
 304 870 304 870 304 845 c 4
 304 792 304 792 278.5 762 c 4
 253 732 253 732 194 726 c 5
325 736 m 5
 325 748 l 5
 336 778 336 778 349.5 819 c 4
 363 860 363 860 370 894 c 5
 466 894 l 5
 466 884 l 5
 450 852 450 852 422.5 811.5 c 4
 395 771 395 771 367 736 c 5
 325 736 l 5
312 591 m 4
 242 591 242 591 205.5 623.5 c 4
 169 656 169 656 161 711 c 5
 216 711 l 5
 223 678 223 678 247.5 670 c 4
 272 662 272 662 314 662 c 4
 349 662 349 662 376 671.5 c 4
 403 681 403 681 412 711 c 5
 469 711 l 5
 461 656 461 656 420.5 623.5 c 4
 380 591 380 591 312 591 c 4
EndSplineSet
Refer: 1631 945 N 1 0 0 1 0 0 3
EndChar

StartChar: uni06C2.fina
Encoding: 65559 -1 240
Width: 1335
VWidth: 1000
GlyphClass: 2
Flags: W
AnchorPoint: "Anchor-2" 311 904 basechar 0
AnchorPoint: "Anchor-0" 302 0 basechar 0
LayerCount: 2
Fore
SplineSet
294 726 m 5
 236 732 236 732 210 762 c 4
 184 792 184 792 184 845 c 4
 184 870 184 870 197.5 887 c 4
 211 904 211 904 235 904 c 4
 257 904 257 904 272 893 c 4
 287 882 287 882 287 856 c 4
 287 832 287 832 272 820.5 c 4
 257 809 257 809 235 809 c 5
 235 792 235 792 247.5 778.5 c 4
 260 765 260 765 294 763 c 5
 294 726 l 5
404 736 m 5
 376 771 376 771 348.5 811.5 c 4
 321 852 321 852 305 884 c 5
 305 894 l 5
 401 894 l 5
 408 860 408 860 421.5 819 c 4
 435 778 435 778 446 748 c 5
 446 736 l 5
 404 736 l 5
313 591 m 4
 243 591 243 591 206.5 623.5 c 4
 170 656 170 656 162 711 c 5
 217 711 l 5
 224 678 224 678 248.5 670 c 4
 273 662 273 662 315 662 c 4
 350 662 350 662 377 671.5 c 4
 404 681 404 681 413 711 c 5
 470 711 l 5
 462 656 462 656 421.5 623.5 c 4
 381 591 381 591 313 591 c 4
EndSplineSet
Refer: 1631 945 N 1 0 0 1 0 0 3
EndChar

StartChar: uni06C3.fina
Encoding: 65560 -1 243
Width: 1335
VWidth: 1000
GlyphClass: 2
Flags: W
AnchorPoint: "Anchor-2" 311 904 basechar 0
AnchorPoint: "Anchor-0" 302 0 basechar 0
LayerCount: 2
Fore
SplineSet
304 726 m 5
 246 732 246 732 220 762 c 4
 194 792 194 792 194 845 c 4
 194 870 194 870 207.5 887 c 4
 221 904 221 904 245 904 c 4
 267 904 267 904 282 893 c 4
 297 882 297 882 297 856 c 4
 297 832 297 832 282 820.5 c 4
 267 809 267 809 245 809 c 5
 245 792 245 792 257.5 778.5 c 4
 270 765 270 765 304 763 c 5
 304 726 l 5
325 736 m 5
 325 748 l 5
 336 778 336 778 349 819 c 4
 362 860 362 860 370 894 c 5
 466 894 l 5
 466 884 l 5
 450 852 450 852 423 811.5 c 4
 396 771 396 771 367 736 c 5
 325 736 l 5
313 591 m 4
 243 591 243 591 206.5 623.5 c 4
 170 656 170 656 162 711 c 5
 217 711 l 5
 224 678 224 678 248.5 670 c 4
 273 662 273 662 315 662 c 4
 350 662 350 662 377 671.5 c 4
 404 681 404 681 413 711 c 5
 470 711 l 5
 462 656 462 656 421.5 623.5 c 4
 381 591 381 591 313 591 c 4
EndSplineSet
Refer: 1631 945 N 1 0 0 1 0 0 3
EndChar

StartChar: uni06BE.fina
Encoding: 64427 64427 244
Width: 1733
GlyphClass: 2
Flags: W
AnchorPoint: "Anchor-1" 700 -160 basechar 0
AnchorPoint: "Anchor-0" 760 1460 basechar 0
LayerCount: 2
Fore
SplineSet
133 160 m 1,0,-1
 369 160 l 1,1,2
 303 202 303 202 264 279.5 c 128,-1,3
 225 357 225 357 225 453 c 0,4,5
 225 578 225 578 279.5 672 c 128,-1,6
 334 766 334 766 429.5 818 c 128,-1,7
 525 870 525 870 637 870 c 0,8,9
 1034 870 1034 870 1034 430 c 2,10,-1
 1034 160 l 1,11,-1
 1303 160 l 1,12,-1
 1303 561 l 2,13,14
 1303 841 1303 841 1176 972.5 c 128,-1,15
 1049 1104 1049 1104 780 1104 c 0,16,17
 583 1104 583 1104 401 1044 c 1,18,-1
 354 1202 l 1,19,20
 546 1266 546 1266 780 1266 c 0,21,22
 1112 1266 1112 1266 1294.5 1086.5 c 128,-1,23
 1477 907 1477 907 1477 578 c 2,24,-1
 1477 160 l 1,25,-1
 1743 160 l 2,26,27
 1753 160 1753 160 1753 152 c 2,28,-1
 1753 10 l 2,29,30
 1753 0 1753 0 1743 0 c 2,31,-1
 133 0 l 1,32,-1
 133 160 l 1,0,-1
860 160 m 1,33,-1
 860 399 l 2,34,35
 860 549 860 549 803 619.5 c 128,-1,36
 746 690 746 690 629 690 c 0,37,38
 525 690 525 690 466.5 626.5 c 128,-1,39
 408 563 408 563 408 446 c 0,40,41
 408 316 408 316 485.5 238 c 128,-1,42
 563 160 563 160 692 160 c 2,43,-1
 860 160 l 1,33,-1
EndSplineSet
EndChar

StartChar: uni06F4.urdu
Encoding: 65561 -1 254
Width: 346
VWidth: 1000
GlyphClass: 2
Flags: W
AnchorPoint: "Anchor-2" 130 874 basechar 0
AnchorPoint: "Anchor-0" 209 0 basechar 0
LayerCount: 2
Fore
SplineSet
60 874 m 4
 84 874 84 874 97.5 857 c 4
 111 840 111 840 111 815 c 4
 111 762 111 762 85 732 c 4
 59 702 59 702 1 696 c 5
 1 733 l 5
 35 735 35 735 47.5 748.5 c 4
 60 762 60 762 60 779 c 5
 38 779 38 779 23 790.5 c 4
 8 802 8 802 8 826 c 4
 8 852 8 852 23 863 c 4
 38 874 38 874 60 874 c 4
223 864 m 5
 231 830 231 830 244 789 c 4
 257 748 257 748 268 718 c 5
 268 706 l 5
 226 706 l 5
 197 741 197 741 170 781.5 c 4
 143 822 143 822 127 854 c 5
 127 864 l 5
 223 864 l 5
279 669 m 5
 279 598 l 5
 -17 598 l 5
 -17 669 l 5
 279 669 l 5
EndSplineSet
Refer: 1639 953 N 1 0 0 1 0 0 3
EndChar

StartChar: uni06F7.urdu
Encoding: 65562 -1 255
Width: 346
VWidth: 1000
GlyphClass: 2
Flags: W
AnchorPoint: "Anchor-2" 130 874 basechar 0
AnchorPoint: "Anchor-0" 209 0 basechar 0
LayerCount: 2
Fore
SplineSet
10 696 m 5
 10 733 l 5
 44 735 44 735 56.5 748.5 c 4
 69 762 69 762 69 779 c 5
 47 779 47 779 32 790.5 c 4
 17 802 17 802 17 826 c 4
 17 852 17 852 32 863 c 4
 47 874 47 874 69 874 c 4
 93 874 93 874 106.5 857 c 4
 120 840 120 840 120 815 c 4
 120 762 120 762 94.5 732 c 4
 69 702 69 702 10 696 c 5
141 706 m 5
 141 718 l 5
 152 748 152 748 165.5 789 c 4
 179 830 179 830 186 864 c 5
 282 864 l 5
 282 854 l 5
 266 822 266 822 238.5 781.5 c 4
 211 741 211 741 183 706 c 5
 141 706 l 5
-17 598 m 5
 -17 669 l 5
 279 669 l 5
 279 598 l 5
 -17 598 l 5
EndSplineSet
Refer: 1639 953 N 1 0 0 1 0 0 3
EndChar

StartChar: Ghunna_above
Encoding: 65563 -1 264
Width: 346
VWidth: 1000
GlyphClass: 4
Flags: W
AnchorPoint: "Anchor-2" 130 874 basechar 0
AnchorPoint: "Anchor-0" 209 0 basechar 0
LayerCount: 2
Fore
SplineSet
50 874 m 4
 72 874 72 874 87 863 c 4
 102 852 102 852 102 826 c 4
 102 802 102 802 87 790.5 c 4
 72 779 72 779 50 779 c 5
 50 762 50 762 62.5 748.5 c 4
 75 735 75 735 109 733 c 5
 109 696 l 5
 51 702 51 702 25 732 c 4
 -1 762 -1 762 -1 815 c 4
 -1 840 -1 840 12.5 857 c 4
 26 874 26 874 50 874 c 4
216 864 m 5
 223 830 223 830 236.5 789 c 4
 250 748 250 748 261 718 c 5
 261 706 l 5
 219 706 l 5
 191 741 191 741 163.5 781.5 c 4
 136 822 136 822 120 854 c 5
 120 864 l 5
 216 864 l 5
279 669 m 5
 279 598 l 5
 -17 598 l 5
 -17 669 l 5
 279 669 l 5
EndSplineSet
Refer: 1639 953 N 1 0 0 1 0 0 3
EndChar

StartChar: uni0651064B
Encoding: 65564 -1 267
Width: 0
VWidth: 1000
GlyphClass: 4
Flags: W
AnchorPoint: "Anchor-2" 130 874 basechar 0
AnchorPoint: "Anchor-0" 209 0 basechar 0
LayerCount: 2
Fore
SplineSet
119 696 m 5
 61 702 61 702 35 732 c 4
 9 762 9 762 9 815 c 4
 9 840 9 840 22.5 857 c 4
 36 874 36 874 60 874 c 4
 82 874 82 874 97 863 c 4
 112 852 112 852 112 826 c 4
 112 802 112 802 97 790.5 c 4
 82 779 82 779 60 779 c 5
 60 762 60 762 72.5 748.5 c 4
 85 735 85 735 119 733 c 5
 119 696 l 5
140 706 m 5
 140 718 l 5
 151 748 151 748 164 789 c 4
 177 830 177 830 185 864 c 5
 281 864 l 5
 281 854 l 5
 265 822 265 822 238 781.5 c 4
 211 741 211 741 182 706 c 5
 140 706 l 5
-17 598 m 5
 -17 669 l 5
 279 669 l 5
 279 598 l 5
 -17 598 l 5
EndSplineSet
Refer: 1639 953 N 1 0 0 1 0 0 3
Ligature2: "'ccmp' Glyph Composition/Decomposition in Arabic lookup 0 subtable" uni0651 uni064B
Ligature2: "'ccmp' Glyph Composition/Decomposition in Arabic lookup 0 subtable" uni064B uni0651
EndChar

StartChar: uni0654064B
Encoding: 65565 -1 272
Width: 346
VWidth: 1000
GlyphClass: 4
Flags: W
AnchorPoint: "Anchor-2" 130 904 basechar 0
AnchorPoint: "Anchor-0" 209 0 basechar 0
LayerCount: 2
Fore
SplineSet
5 726 m 5
 5 763 l 5
 39 765 39 765 51.5 778.5 c 4
 64 792 64 792 64 809 c 5
 42 809 42 809 27 820.5 c 4
 12 832 12 832 12 856 c 4
 12 882 12 882 27 893 c 4
 42 904 42 904 64 904 c 4
 88 904 88 904 101.5 887 c 4
 115 870 115 870 115 845 c 4
 115 792 115 792 89 762 c 4
 63 732 63 732 5 726 c 5
230 736 m 5
 201 771 201 771 174 811.5 c 4
 147 852 147 852 131 884 c 5
 131 894 l 5
 227 894 l 5
 235 860 235 860 248 819 c 4
 261 778 261 778 272 748 c 5
 272 736 l 5
 230 736 l 5
132 591 m 4
 62 591 62 591 25.5 623.5 c 4
 -11 656 -11 656 -19 711 c 5
 36 711 l 5
 43 678 43 678 67.5 670 c 4
 92 662 92 662 134 662 c 4
 169 662 169 662 196 671.5 c 4
 223 681 223 681 232 711 c 5
 289 711 l 5
 281 656 281 656 240.5 623.5 c 4
 200 591 200 591 132 591 c 4
EndSplineSet
Refer: 1639 953 N 1 0 0 1 0 0 3
Ligature2: "'ccmp' Glyph Composition/Decomposition in Arabic lookup 0 subtable" uni0654 uni064B
Ligature2: "'ccmp' Glyph Composition/Decomposition in Arabic lookup 0 subtable" uni064B uni0654
EndChar

StartChar: uni0654064E
Encoding: 65566 -1 273
Width: 346
VWidth: 1000
GlyphClass: 4
Flags: W
AnchorPoint: "Anchor-2" 130 904 basechar 0
AnchorPoint: "Anchor-0" 209 0 basechar 0
LayerCount: 2
Fore
SplineSet
13 726 m 5
 13 763 l 5
 47 765 47 765 59.5 778.5 c 4
 72 792 72 792 72 809 c 5
 50 809 50 809 35 820.5 c 4
 20 832 20 832 20 856 c 4
 20 882 20 882 35 893 c 4
 50 904 50 904 72 904 c 4
 96 904 96 904 109.5 887 c 4
 123 870 123 870 123 845 c 4
 123 792 123 792 97.5 762 c 4
 72 732 72 732 13 726 c 5
144 736 m 5
 144 748 l 5
 155 778 155 778 168.5 819 c 4
 182 860 182 860 189 894 c 5
 285 894 l 5
 285 884 l 5
 269 852 269 852 241.5 811.5 c 4
 214 771 214 771 186 736 c 5
 144 736 l 5
131 591 m 4
 61 591 61 591 24.5 623.5 c 4
 -12 656 -12 656 -20 711 c 5
 35 711 l 5
 42 678 42 678 66.5 670 c 4
 91 662 91 662 133 662 c 4
 168 662 168 662 195 671.5 c 4
 222 681 222 681 231 711 c 5
 288 711 l 5
 280 656 280 656 239.5 623.5 c 4
 199 591 199 591 131 591 c 4
EndSplineSet
Refer: 1639 953 N 1 0 0 1 0 0 3
Ligature2: "'ccmp' Glyph Composition/Decomposition in Arabic lookup 0 subtable" uni0654 uni064E
Ligature2: "'ccmp' Glyph Composition/Decomposition in Arabic lookup 0 subtable" uni064E uni0654
EndChar

StartChar: uni0654064C
Encoding: 65567 -1 274
Width: 346
VWidth: 1000
GlyphClass: 4
Flags: W
AnchorPoint: "Anchor-2" 130 904 basechar 0
AnchorPoint: "Anchor-0" 209 0 basechar 0
LayerCount: 2
Fore
SplineSet
113 726 m 5
 55 732 55 732 29 762 c 4
 3 792 3 792 3 845 c 4
 3 870 3 870 16.5 887 c 4
 30 904 30 904 54 904 c 4
 76 904 76 904 91 893 c 4
 106 882 106 882 106 856 c 4
 106 832 106 832 91 820.5 c 4
 76 809 76 809 54 809 c 5
 54 792 54 792 66.5 778.5 c 4
 79 765 79 765 113 763 c 5
 113 726 l 5
223 736 m 5
 195 771 195 771 167.5 811.5 c 4
 140 852 140 852 124 884 c 5
 124 894 l 5
 220 894 l 5
 227 860 227 860 240.5 819 c 4
 254 778 254 778 265 748 c 5
 265 736 l 5
 223 736 l 5
132 591 m 4
 62 591 62 591 25.5 623.5 c 4
 -11 656 -11 656 -19 711 c 5
 36 711 l 5
 43 678 43 678 67.5 670 c 4
 92 662 92 662 134 662 c 4
 169 662 169 662 196 671.5 c 4
 223 681 223 681 232 711 c 5
 289 711 l 5
 281 656 281 656 240.5 623.5 c 4
 200 591 200 591 132 591 c 4
EndSplineSet
Refer: 1639 953 N 1 0 0 1 0 0 3
Ligature2: "'ccmp' Glyph Composition/Decomposition in Arabic lookup 0 subtable" uni0654 uni064C
Ligature2: "'ccmp' Glyph Composition/Decomposition in Arabic lookup 0 subtable" uni064C uni0654
EndChar

StartChar: uni0654064F
Encoding: 65568 -1 275
Width: 346
VWidth: 1000
GlyphClass: 4
Flags: W
AnchorPoint: "Anchor-2" 130 904 basechar 0
AnchorPoint: "Anchor-0" 209 0 basechar 0
LayerCount: 2
Fore
SplineSet
123 726 m 5
 65 732 65 732 39 762 c 4
 13 792 13 792 13 845 c 4
 13 870 13 870 26.5 887 c 4
 40 904 40 904 64 904 c 4
 86 904 86 904 101 893 c 4
 116 882 116 882 116 856 c 4
 116 832 116 832 101 820.5 c 4
 86 809 86 809 64 809 c 5
 64 792 64 792 76.5 778.5 c 4
 89 765 89 765 123 763 c 5
 123 726 l 5
144 736 m 5
 144 748 l 5
 155 778 155 778 168 819 c 4
 181 860 181 860 189 894 c 5
 285 894 l 5
 285 884 l 5
 269 852 269 852 242 811.5 c 4
 215 771 215 771 186 736 c 5
 144 736 l 5
132 591 m 4
 62 591 62 591 25.5 623.5 c 4
 -11 656 -11 656 -19 711 c 5
 36 711 l 5
 43 678 43 678 67.5 670 c 4
 92 662 92 662 134 662 c 4
 169 662 169 662 196 671.5 c 4
 223 681 223 681 232 711 c 5
 289 711 l 5
 281 656 281 656 240.5 623.5 c 4
 200 591 200 591 132 591 c 4
EndSplineSet
Refer: 1639 953 N 1 0 0 1 0 0 3
Ligature2: "'ccmp' Glyph Composition/Decomposition in Arabic lookup 0 subtable" uni0654 uni064F
Ligature2: "'ccmp' Glyph Composition/Decomposition in Arabic lookup 0 subtable" uni064F uni0654
EndChar

StartChar: uni06540652
Encoding: 65569 -1 276
Width: 613
VWidth: 1000
GlyphClass: 4
Flags: W
AnchorPoint: "Anchor-2" 308 874 basechar 0
AnchorPoint: "Anchor-0" 307 0 basechar 0
LayerCount: 2
Fore
SplineSet
238 874 m 4
 262 874 262 874 275.5 857 c 4
 289 840 289 840 289 815 c 4
 289 762 289 762 263 732 c 4
 237 702 237 702 179 696 c 5
 179 733 l 5
 213 735 213 735 225.5 748.5 c 4
 238 762 238 762 238 779 c 5
 216 779 216 779 201 790.5 c 4
 186 802 186 802 186 826 c 4
 186 852 186 852 201 863 c 4
 216 874 216 874 238 874 c 4
401 864 m 5
 409 830 409 830 422 789 c 4
 435 748 435 748 446 718 c 5
 446 706 l 5
 404 706 l 5
 375 741 375 741 348 781.5 c 4
 321 822 321 822 305 854 c 5
 305 864 l 5
 401 864 l 5
457 669 m 5
 457 598 l 5
 161 598 l 5
 161 669 l 5
 457 669 l 5
EndSplineSet
Refer: 1651 965 N 1 0 0 1 0 0 3
Ligature2: "'ccmp' Glyph Composition/Decomposition in Arabic lookup 0 subtable" uni0654 uni0652
Ligature2: "'ccmp' Glyph Composition/Decomposition in Arabic lookup 0 subtable" uni0652 uni0654
EndChar

StartChar: uni0655064D
Encoding: 65570 -1 277
Width: 613
VWidth: 1000
GlyphClass: 4
Flags: W
AnchorPoint: "Anchor-2" 308 874 basechar 0
AnchorPoint: "Anchor-0" 307 0 basechar 0
LayerCount: 2
Fore
SplineSet
188 696 m 5
 188 733 l 5
 222 735 222 735 234.5 748.5 c 4
 247 762 247 762 247 779 c 5
 225 779 225 779 210 790.5 c 4
 195 802 195 802 195 826 c 4
 195 852 195 852 210 863 c 4
 225 874 225 874 247 874 c 4
 271 874 271 874 284.5 857 c 4
 298 840 298 840 298 815 c 4
 298 762 298 762 272.5 732 c 4
 247 702 247 702 188 696 c 5
319 706 m 5
 319 718 l 5
 330 748 330 748 343.5 789 c 4
 357 830 357 830 364 864 c 5
 460 864 l 5
 460 854 l 5
 444 822 444 822 416.5 781.5 c 4
 389 741 389 741 361 706 c 5
 319 706 l 5
161 598 m 5
 161 669 l 5
 457 669 l 5
 457 598 l 5
 161 598 l 5
EndSplineSet
Refer: 1651 965 N 1 0 0 1 0 0 3
Ligature2: "'ccmp' Glyph Composition/Decomposition in Arabic lookup 0 subtable" uni0655 uni064D
Ligature2: "'ccmp' Glyph Composition/Decomposition in Arabic lookup 0 subtable" uni064D uni0655
EndChar

StartChar: uni06550650
Encoding: 65571 -1 278
Width: 613
VWidth: 1000
GlyphClass: 4
Flags: W
AnchorPoint: "Anchor-2" 308 874 basechar 0
AnchorPoint: "Anchor-0" 307 0 basechar 0
LayerCount: 2
Fore
SplineSet
228 874 m 4
 250 874 250 874 265 863 c 4
 280 852 280 852 280 826 c 4
 280 802 280 802 265 790.5 c 4
 250 779 250 779 228 779 c 5
 228 762 228 762 240.5 748.5 c 4
 253 735 253 735 287 733 c 5
 287 696 l 5
 229 702 229 702 203 732 c 4
 177 762 177 762 177 815 c 4
 177 840 177 840 190.5 857 c 4
 204 874 204 874 228 874 c 4
394 864 m 5
 401 830 401 830 414.5 789 c 4
 428 748 428 748 439 718 c 5
 439 706 l 5
 397 706 l 5
 369 741 369 741 341.5 781.5 c 4
 314 822 314 822 298 854 c 5
 298 864 l 5
 394 864 l 5
457 669 m 5
 457 598 l 5
 161 598 l 5
 161 669 l 5
 457 669 l 5
EndSplineSet
Refer: 1651 965 N 1 0 0 1 0 0 3
Ligature2: "'ccmp' Glyph Composition/Decomposition in Arabic lookup 0 subtable" uni0655 uni0650
Ligature2: "'ccmp' Glyph Composition/Decomposition in Arabic lookup 0 subtable" uni0650 uni0655
EndChar

StartChar: uni0672.fina
Encoding: 65572 -1 280
Width: 615
VWidth: 1000
GlyphClass: 2
Flags: W
AnchorPoint: "Anchor-2" 308 874 basechar 0
AnchorPoint: "Anchor-0" 307 0 basechar 0
LayerCount: 2
Fore
SplineSet
297 696 m 5
 239 702 239 702 213 732 c 4
 187 762 187 762 187 815 c 4
 187 840 187 840 200.5 857 c 4
 214 874 214 874 238 874 c 4
 260 874 260 874 275 863 c 4
 290 852 290 852 290 826 c 4
 290 802 290 802 275 790.5 c 4
 260 779 260 779 238 779 c 5
 238 762 238 762 250.5 748.5 c 4
 263 735 263 735 297 733 c 5
 297 696 l 5
318 706 m 5
 318 718 l 5
 329 748 329 748 342 789 c 4
 355 830 355 830 363 864 c 5
 459 864 l 5
 459 854 l 5
 443 822 443 822 416 781.5 c 4
 389 741 389 741 360 706 c 5
 318 706 l 5
161 598 m 5
 161 669 l 5
 457 669 l 5
 457 598 l 5
 161 598 l 5
EndSplineSet
Refer: 1651 965 N 1 0 0 1 0 0 3
EndChar

StartChar: uni0673.fina
Encoding: 65573 -1 282
Width: 647
VWidth: 1000
GlyphClass: 2
Flags: W
AnchorPoint: "Anchor-2" 308 904 basechar 0
AnchorPoint: "Anchor-0" 307 0 basechar 0
LayerCount: 2
Fore
SplineSet
183 726 m 5
 183 763 l 5
 217 765 217 765 229.5 778.5 c 4
 242 792 242 792 242 809 c 5
 220 809 220 809 205 820.5 c 4
 190 832 190 832 190 856 c 4
 190 882 190 882 205 893 c 4
 220 904 220 904 242 904 c 4
 266 904 266 904 279.5 887 c 4
 293 870 293 870 293 845 c 4
 293 792 293 792 267 762 c 4
 241 732 241 732 183 726 c 5
408 736 m 5
 379 771 379 771 352 811.5 c 4
 325 852 325 852 309 884 c 5
 309 894 l 5
 405 894 l 5
 413 860 413 860 426 819 c 4
 439 778 439 778 450 748 c 5
 450 736 l 5
 408 736 l 5
310 591 m 4
 240 591 240 591 203.5 623.5 c 4
 167 656 167 656 159 711 c 5
 214 711 l 5
 221 678 221 678 245.5 670 c 4
 270 662 270 662 312 662 c 4
 347 662 347 662 374 671.5 c 4
 401 681 401 681 410 711 c 5
 467 711 l 5
 459 656 459 656 418.5 623.5 c 4
 378 591 378 591 310 591 c 4
EndSplineSet
Refer: 1651 965 N 1 0 0 1 0 0 3
EndChar

StartChar: uni0675.fina
Encoding: 65574 -1 284
Width: 615
VWidth: 1000
GlyphClass: 2
Flags: W
AnchorPoint: "Anchor-2" 308 904 basechar 0
AnchorPoint: "Anchor-0" 307 0 basechar 0
LayerCount: 2
Fore
SplineSet
191 726 m 5
 191 763 l 5
 225 765 225 765 237.5 778.5 c 4
 250 792 250 792 250 809 c 5
 228 809 228 809 213 820.5 c 4
 198 832 198 832 198 856 c 4
 198 882 198 882 213 893 c 4
 228 904 228 904 250 904 c 4
 274 904 274 904 287.5 887 c 4
 301 870 301 870 301 845 c 4
 301 792 301 792 275.5 762 c 4
 250 732 250 732 191 726 c 5
322 736 m 5
 322 748 l 5
 333 778 333 778 346.5 819 c 4
 360 860 360 860 367 894 c 5
 463 894 l 5
 463 884 l 5
 447 852 447 852 419.5 811.5 c 4
 392 771 392 771 364 736 c 5
 322 736 l 5
309 591 m 4
 239 591 239 591 202.5 623.5 c 4
 166 656 166 656 158 711 c 5
 213 711 l 5
 220 678 220 678 244.5 670 c 4
 269 662 269 662 311 662 c 4
 346 662 346 662 373 671.5 c 4
 400 681 400 681 409 711 c 5
 466 711 l 5
 458 656 458 656 417.5 623.5 c 4
 377 591 377 591 309 591 c 4
EndSplineSet
Refer: 1651 965 N 1 0 0 1 0 0 3
EndChar

StartChar: uni0676.fina
Encoding: 65575 -1 286
Width: 1133
VWidth: 1000
GlyphClass: 2
Flags: W
AnchorPoint: "Anchor-2" 308 904 basechar 0
AnchorPoint: "Anchor-0" 307 0 basechar 0
LayerCount: 2
Fore
SplineSet
291 726 m 5
 233 732 233 732 207 762 c 4
 181 792 181 792 181 845 c 4
 181 870 181 870 194.5 887 c 4
 208 904 208 904 232 904 c 4
 254 904 254 904 269 893 c 4
 284 882 284 882 284 856 c 4
 284 832 284 832 269 820.5 c 4
 254 809 254 809 232 809 c 5
 232 792 232 792 244.5 778.5 c 4
 257 765 257 765 291 763 c 5
 291 726 l 5
401 736 m 5
 373 771 373 771 345.5 811.5 c 4
 318 852 318 852 302 884 c 5
 302 894 l 5
 398 894 l 5
 405 860 405 860 418.5 819 c 4
 432 778 432 778 443 748 c 5
 443 736 l 5
 401 736 l 5
310 591 m 4
 240 591 240 591 203.5 623.5 c 4
 167 656 167 656 159 711 c 5
 214 711 l 5
 221 678 221 678 245.5 670 c 4
 270 662 270 662 312 662 c 4
 347 662 347 662 374 671.5 c 4
 401 681 401 681 410 711 c 5
 467 711 l 5
 459 656 459 656 418.5 623.5 c 4
 378 591 378 591 310 591 c 4
EndSplineSet
Refer: 1651 965 N 1 0 0 1 0 0 3
EndChar

StartChar: uni0677.fina
Encoding: 65576 -1 288
Width: 1133
VWidth: 1000
GlyphClass: 2
Flags: W
AnchorPoint: "Anchor-2" 308 904 basechar 0
AnchorPoint: "Anchor-0" 307 0 basechar 0
LayerCount: 2
Fore
SplineSet
301 726 m 5
 243 732 243 732 217 762 c 4
 191 792 191 792 191 845 c 4
 191 870 191 870 204.5 887 c 4
 218 904 218 904 242 904 c 4
 264 904 264 904 279 893 c 4
 294 882 294 882 294 856 c 4
 294 832 294 832 279 820.5 c 4
 264 809 264 809 242 809 c 5
 242 792 242 792 254.5 778.5 c 4
 267 765 267 765 301 763 c 5
 301 726 l 5
322 736 m 5
 322 748 l 5
 333 778 333 778 346 819 c 4
 359 860 359 860 367 894 c 5
 463 894 l 5
 463 884 l 5
 447 852 447 852 420 811.5 c 4
 393 771 393 771 364 736 c 5
 322 736 l 5
310 591 m 4
 240 591 240 591 203.5 623.5 c 4
 167 656 167 656 159 711 c 5
 214 711 l 5
 221 678 221 678 245.5 670 c 4
 270 662 270 662 312 662 c 4
 347 662 347 662 374 671.5 c 4
 401 681 401 681 410 711 c 5
 467 711 l 5
 459 656 459 656 418.5 623.5 c 4
 378 591 378 591 310 591 c 4
EndSplineSet
Refer: 1651 965 N 1 0 0 1 0 0 3
EndChar

StartChar: uni0678.fina
Encoding: 65577 -1 290
Width: 1974
VWidth: 1000
GlyphClass: 2
Flags: W
AnchorPoint: "Anchor-2" 130 944 basechar 0
AnchorPoint: "Anchor-0" 209 0 basechar 0
LayerCount: 2
Fore
SplineSet
124 833 m 5
 98 853 98 853 72 879.5 c 4
 46 906 46 906 24 934 c 5
 24 944 l 5
 111 944 l 5
 126 912 126 912 140 890.5 c 4
 154 869 154 869 173 844 c 5
 173 833 l 5
 124 833 l 5
-18 732 m 5
 -18 803 l 5
 278 803 l 5
 278 732 l 5
 -18 732 l 5
37 602 m 260
 18 602 18 602 4 614 c 4
 -10 626 -10 626 -10 652 c 260
 -10 678 -10 678 4 689.5 c 4
 18 701 18 701 37 701 c 260
 56 701 56 701 70 689.5 c 4
 84 678 84 678 84 652 c 260
 84 626 84 626 70 614 c 4
 56 602 56 602 37 602 c 260
223 602 m 260
 204 602 204 602 190.5 614 c 4
 177 626 177 626 177 652 c 260
 177 678 177 678 190.5 689.5 c 4
 204 701 204 701 223 701 c 260
 242 701 242 701 256 689.5 c 4
 270 678 270 678 270 652 c 260
 270 626 270 626 256 614 c 4
 242 602 242 602 223 602 c 260
EndSplineSet
Refer: 1639 953 N 1 0 0 1 0 0 3
EndChar

StartChar: uni067A.fina
Encoding: 65578 -1 292
Width: 577
VWidth: 1000
GlyphClass: 2
Flags: W
AnchorPoint: "Anchor-2" 130 944 basechar 0
AnchorPoint: "Anchor-0" 209 0 basechar 0
LayerCount: 2
Fore
SplineSet
228 944 m 5
 228 934 l 5
 206 906 206 906 180 879.5 c 4
 154 853 154 853 128 833 c 5
 79 833 l 5
 79 844 l 5
 98 869 98 869 112 890.5 c 4
 126 912 126 912 141 944 c 5
 228 944 l 5
278 803 m 5
 278 732 l 5
 -18 732 l 5
 -18 803 l 5
 278 803 l 5
37 701 m 260
 56 701 56 701 70 689.5 c 4
 84 678 84 678 84 652 c 260
 84 626 84 626 70 614 c 4
 56 602 56 602 37 602 c 260
 18 602 18 602 4 614 c 4
 -10 626 -10 626 -10 652 c 260
 -10 678 -10 678 4 689.5 c 4
 18 701 18 701 37 701 c 260
223 701 m 260
 242 701 242 701 256 689.5 c 4
 270 678 270 678 270 652 c 260
 270 626 270 626 256 614 c 4
 242 602 242 602 223 602 c 260
 204 602 204 602 190.5 614 c 4
 177 626 177 626 177 652 c 260
 177 678 177 678 190.5 689.5 c 4
 204 701 204 701 223 701 c 260
EndSplineSet
Refer: 1639 953 N 1 0 0 1 0 0 3
EndChar

StartChar: uni067A.init
Encoding: 65579 -1 293
Width: 0
VWidth: 1000
GlyphClass: 2
Flags: W
AnchorPoint: "Anchor-2" 130 944 basechar 0
AnchorPoint: "Anchor-0" 209 0 basechar 0
LayerCount: 2
Fore
SplineSet
110 944 m 5
 125 912 125 912 139 890.5 c 4
 153 869 153 869 172 844 c 5
 172 833 l 5
 123 833 l 5
 97 853 97 853 71 879.5 c 4
 45 906 45 906 23 934 c 5
 23 944 l 5
 110 944 l 5
283 846 m 5
 275 791 275 791 234.5 756 c 4
 194 721 194 721 126 721 c 4
 56 721 56 721 19.5 755.5 c 4
 -17 790 -17 790 -25 846 c 5
 30 846 l 5
 37 813 37 813 61.5 802.5 c 4
 86 792 86 792 128 792 c 4
 163 792 163 792 190 804 c 4
 217 816 217 816 226 846 c 5
 283 846 l 5
36 701 m 260
 55 701 55 701 69 689.5 c 4
 83 678 83 678 83 652 c 260
 83 626 83 626 69 614 c 4
 55 602 55 602 36 602 c 260
 17 602 17 602 3 614 c 4
 -11 626 -11 626 -11 652 c 260
 -11 678 -11 678 3 689.5 c 4
 17 701 17 701 36 701 c 260
222 701 m 260
 241 701 241 701 255 689.5 c 4
 269 678 269 678 269 652 c 260
 269 626 269 626 255 614 c 4
 241 602 241 602 222 602 c 260
 203 602 203 602 189.5 614 c 4
 176 626 176 626 176 652 c 260
 176 678 176 678 189.5 689.5 c 4
 203 701 203 701 222 701 c 260
EndSplineSet
Refer: 1639 953 N 1 0 0 1 0 0 3
EndChar

StartChar: uni067A.medi
Encoding: 65580 -1 294
Width: 0
VWidth: 1000
GlyphClass: 2
Flags: W
AnchorPoint: "Anchor-2" 130 944 basechar 0
AnchorPoint: "Anchor-0" 209 0 basechar 0
LayerCount: 2
Fore
SplineSet
79 833 m 5
 79 844 l 5
 98 869 98 869 112 890.5 c 4
 126 912 126 912 141 944 c 5
 228 944 l 5
 228 934 l 5
 206 906 206 906 180 879.5 c 4
 154 853 154 853 128 833 c 5
 79 833 l 5
127 721 m 4
 57 721 57 721 20.5 755.5 c 4
 -16 790 -16 790 -24 846 c 5
 31 846 l 5
 38 813 38 813 62.5 802.5 c 4
 87 792 87 792 129 792 c 4
 164 792 164 792 191 804 c 4
 218 816 218 816 227 846 c 5
 284 846 l 5
 276 791 276 791 235.5 756 c 4
 195 721 195 721 127 721 c 4
37 602 m 260
 18 602 18 602 4 614 c 4
 -10 626 -10 626 -10 652 c 260
 -10 678 -10 678 4 689.5 c 4
 18 701 18 701 37 701 c 260
 56 701 56 701 70 689.5 c 4
 84 678 84 678 84 652 c 260
 84 626 84 626 70 614 c 4
 56 602 56 602 37 602 c 260
223 602 m 260
 204 602 204 602 190.5 614 c 4
 177 626 177 626 177 652 c 260
 177 678 177 678 190.5 689.5 c 4
 204 701 204 701 223 701 c 260
 242 701 242 701 256 689.5 c 4
 270 678 270 678 270 652 c 260
 270 626 270 626 256 614 c 4
 242 602 242 602 223 602 c 260
EndSplineSet
Refer: 1639 953 N 1 0 0 1 0 0 3
EndChar

StartChar: uni067B.fina
Encoding: 65581 -1 296
Width: 577
VWidth: 1000
GlyphClass: 2
Flags: W
AnchorPoint: "Anchor-2" 308 944 basechar 0
AnchorPoint: "Anchor-0" 307 0 basechar 0
LayerCount: 2
Fore
SplineSet
302 833 m 5
 276 853 276 853 250 879.5 c 4
 224 906 224 906 202 934 c 5
 202 944 l 5
 289 944 l 5
 304 912 304 912 318 890.5 c 4
 332 869 332 869 351 844 c 5
 351 833 l 5
 302 833 l 5
160 732 m 5
 160 803 l 5
 456 803 l 5
 456 732 l 5
 160 732 l 5
215 602 m 260
 196 602 196 602 182 614 c 4
 168 626 168 626 168 652 c 260
 168 678 168 678 182 689.5 c 4
 196 701 196 701 215 701 c 260
 234 701 234 701 248 689.5 c 4
 262 678 262 678 262 652 c 260
 262 626 262 626 248 614 c 4
 234 602 234 602 215 602 c 260
401 602 m 260
 382 602 382 602 368.5 614 c 4
 355 626 355 626 355 652 c 260
 355 678 355 678 368.5 689.5 c 4
 382 701 382 701 401 701 c 260
 420 701 420 701 434 689.5 c 4
 448 678 448 678 448 652 c 260
 448 626 448 626 434 614 c 4
 420 602 420 602 401 602 c 260
EndSplineSet
Refer: 1651 965 N 1 0 0 1 0 0 3
EndChar

StartChar: uni067B.init
Encoding: 65582 -1 297
Width: 0
VWidth: 1000
GlyphClass: 2
Flags: W
AnchorPoint: "Anchor-2" 308 944 basechar 0
AnchorPoint: "Anchor-0" 307 0 basechar 0
LayerCount: 2
Fore
SplineSet
406 944 m 5
 406 934 l 5
 384 906 384 906 358 879.5 c 4
 332 853 332 853 306 833 c 5
 257 833 l 5
 257 844 l 5
 276 869 276 869 290 890.5 c 4
 304 912 304 912 319 944 c 5
 406 944 l 5
456 803 m 5
 456 732 l 5
 160 732 l 5
 160 803 l 5
 456 803 l 5
215 701 m 260
 234 701 234 701 248 689.5 c 4
 262 678 262 678 262 652 c 260
 262 626 262 626 248 614 c 4
 234 602 234 602 215 602 c 260
 196 602 196 602 182 614 c 4
 168 626 168 626 168 652 c 260
 168 678 168 678 182 689.5 c 4
 196 701 196 701 215 701 c 260
401 701 m 260
 420 701 420 701 434 689.5 c 4
 448 678 448 678 448 652 c 260
 448 626 448 626 434 614 c 4
 420 602 420 602 401 602 c 260
 382 602 382 602 368.5 614 c 4
 355 626 355 626 355 652 c 260
 355 678 355 678 368.5 689.5 c 4
 382 701 382 701 401 701 c 260
EndSplineSet
Refer: 1651 965 N 1 0 0 1 0 0 3
EndChar

StartChar: uni067B.medi
Encoding: 65583 -1 298
Width: 205
VWidth: 1000
GlyphClass: 2
Flags: W
AnchorPoint: "Anchor-2" 308 944 basechar 0
AnchorPoint: "Anchor-0" 307 0 basechar 0
LayerCount: 2
Fore
SplineSet
288 944 m 5
 303 912 303 912 317 890.5 c 4
 331 869 331 869 350 844 c 5
 350 833 l 5
 301 833 l 5
 275 853 275 853 249 879.5 c 4
 223 906 223 906 201 934 c 5
 201 944 l 5
 288 944 l 5
461 846 m 5
 453 791 453 791 412.5 756 c 4
 372 721 372 721 304 721 c 4
 234 721 234 721 197.5 755.5 c 4
 161 790 161 790 153 846 c 5
 208 846 l 5
 215 813 215 813 239.5 802.5 c 4
 264 792 264 792 306 792 c 4
 341 792 341 792 368 804 c 4
 395 816 395 816 404 846 c 5
 461 846 l 5
214 701 m 260
 233 701 233 701 247 689.5 c 4
 261 678 261 678 261 652 c 260
 261 626 261 626 247 614 c 4
 233 602 233 602 214 602 c 260
 195 602 195 602 181 614 c 4
 167 626 167 626 167 652 c 260
 167 678 167 678 181 689.5 c 4
 195 701 195 701 214 701 c 260
400 701 m 260
 419 701 419 701 433 689.5 c 4
 447 678 447 678 447 652 c 260
 447 626 447 626 433 614 c 4
 419 602 419 602 400 602 c 260
 381 602 381 602 367.5 614 c 4
 354 626 354 626 354 652 c 260
 354 678 354 678 367.5 689.5 c 4
 381 701 381 701 400 701 c 260
EndSplineSet
Refer: 1651 965 N 1 0 0 1 0 0 3
EndChar

StartChar: uni067C.fina
Encoding: 65584 -1 300
Width: 577
VWidth: 1000
GlyphClass: 2
Flags: W
AnchorPoint: "Anchor-2" 308 944 basechar 0
AnchorPoint: "Anchor-0" 307 0 basechar 0
LayerCount: 2
Fore
SplineSet
257 833 m 5
 257 844 l 5
 276 869 276 869 290 890.5 c 4
 304 912 304 912 319 944 c 5
 406 944 l 5
 406 934 l 5
 384 906 384 906 358 879.5 c 4
 332 853 332 853 306 833 c 5
 257 833 l 5
305 721 m 4
 235 721 235 721 198.5 755.5 c 4
 162 790 162 790 154 846 c 5
 209 846 l 5
 216 813 216 813 240.5 802.5 c 4
 265 792 265 792 307 792 c 4
 342 792 342 792 369 804 c 4
 396 816 396 816 405 846 c 5
 462 846 l 5
 454 791 454 791 413.5 756 c 4
 373 721 373 721 305 721 c 4
215 602 m 260
 196 602 196 602 182 614 c 4
 168 626 168 626 168 652 c 260
 168 678 168 678 182 689.5 c 4
 196 701 196 701 215 701 c 260
 234 701 234 701 248 689.5 c 4
 262 678 262 678 262 652 c 260
 262 626 262 626 248 614 c 4
 234 602 234 602 215 602 c 260
401 602 m 260
 382 602 382 602 368.5 614 c 4
 355 626 355 626 355 652 c 260
 355 678 355 678 368.5 689.5 c 4
 382 701 382 701 401 701 c 260
 420 701 420 701 434 689.5 c 4
 448 678 448 678 448 652 c 260
 448 626 448 626 434 614 c 4
 420 602 420 602 401 602 c 260
EndSplineSet
Refer: 1651 965 N 1 0 0 1 0 0 3
EndChar

StartChar: uni067C.init
Encoding: 65585 -1 301
Width: 214
VWidth: 1000
GlyphClass: 2
Flags: W
AnchorPoint: "Anchor-2" 361 714 basechar 0
AnchorPoint: "Anchor-0" 361 -190 basechar 0
LayerCount: 2
Fore
SplineSet
436 -190 m 0,0,1
 411 -190 411 -190 392.5 -186.5 c 128,-1,2
 374 -183 374 -183 360 -177 c 1,3,-1
 360 -101 l 1,4,5
 376 -106 376 -106 395 -108.5 c 128,-1,6
 414 -111 414 -111 436 -111 c 0,7,8
 462 -111 462 -111 485.5 -101.5 c 128,-1,9
 509 -92 509 -92 524.5 -68 c 128,-1,10
 540 -44 540 -44 540 0 c 2,11,-1
 540 475 l 2,12,13
 540 566 540 566 502 606 c 128,-1,14
 464 646 464 646 374 646 c 0,15,16
 302 646 302 646 261.5 619 c 128,-1,17
 221 592 221 592 204.5 544.5 c 128,-1,18
 188 497 188 497 188 434 c 2,19,-1
 188 0 l 1,20,-1
 98 0 l 1,21,-1
 98 714 l 1,22,-1
 169 714 l 1,23,-1
 184 622 l 1,24,-1
 189 622 l 1,25,26
 208 653 208 653 239.5 676 c 128,-1,27
 271 699 271 699 308.5 711.5 c 128,-1,28
 346 724 346 724 383 724 c 0,29,30
 496 724 496 724 563 666 c 128,-1,31
 630 608 630 608 630 486 c 2,32,-1
 630 6 l 2,33,34
 630 -94 630 -94 576 -142 c 128,-1,35
 522 -190 522 -190 436 -190 c 0,0,1
EndSplineSet
EndChar

StartChar: uni067D.fina
Encoding: 65587 -1 304
Width: 577
VWidth: 1000
GlyphClass: 2
Flags: W
AnchorPoint: "Anchor-2" 355 714 basechar 0
AnchorPoint: "Anchor-0" 355 0 basechar 0
LayerCount: 2
Fore
SplineSet
354 -10 m 0,0,1
 225 -10 225 -10 158 62.5 c 128,-1,2
 91 135 91 135 91 254 c 2,3,-1
 91 264 l 1,4,-1
 181 264 l 1,5,-1
 181 251 l 2,6,7
 181 164 181 164 225.5 116 c 128,-1,8
 270 68 270 68 359 68 c 0,9,10
 451 68 451 68 492 119.5 c 128,-1,11
 533 171 533 171 533 252 c 2,12,-1
 533 475 l 2,13,14
 533 566 533 566 495 606 c 128,-1,15
 457 646 457 646 367 646 c 0,16,17
 295 646 295 646 254.5 619 c 128,-1,18
 214 592 214 592 197.5 544.5 c 128,-1,19
 181 497 181 497 181 434 c 2,20,-1
 181 360 l 1,21,-1
 91 360 l 1,22,-1
 91 714 l 1,23,-1
 162 714 l 1,24,-1
 177 622 l 1,25,-1
 182 622 l 1,26,27
 200 653 200 653 232 676 c 128,-1,28
 264 699 264 699 301.5 711.5 c 128,-1,29
 339 724 339 724 376 724 c 0,30,31
 488 724 488 724 555.5 666 c 128,-1,32
 623 608 623 608 623 486 c 2,33,-1
 623 252 l 2,34,35
 623 178 623 178 594 118.5 c 128,-1,36
 565 59 565 59 505.5 24.5 c 128,-1,37
 446 -10 446 -10 354 -10 c 0,0,1
EndSplineSet
EndChar

StartChar: uni067D.init
Encoding: 65588 -1 305
Width: 214
VWidth: 1000
GlyphClass: 2
Flags: W
LayerCount: 2
Fore
SplineSet
129 874 m 0,0,1
 153 874 153 874 166.5 857 c 128,-1,2
 180 840 180 840 180 815 c 0,3,4
 180 762 180 762 154 732 c 128,-1,5
 128 702 128 702 70 696 c 1,6,-1
 70 733 l 1,7,8
 104 735 104 735 116.5 748.5 c 128,-1,9
 129 762 129 762 129 779 c 1,10,11
 107 779 107 779 92 790.5 c 128,-1,12
 77 802 77 802 77 826 c 0,13,14
 77 852 77 852 92 863 c 128,-1,15
 107 874 107 874 129 874 c 0,0,1
292 864 m 1,16,17
 300 830 300 830 313 789 c 128,-1,18
 326 748 326 748 337 718 c 1,19,-1
 337 706 l 1,20,-1
 295 706 l 1,21,22
 266 741 266 741 239 781.5 c 128,-1,23
 212 822 212 822 196 854 c 1,24,-1
 196 864 l 1,25,-1
 292 864 l 1,16,17
348 669 m 1,26,-1
 348 598 l 1,27,-1
 52 598 l 1,28,-1
 52 669 l 1,29,-1
 348 669 l 1,26,-1
EndSplineSet
EndChar

StartChar: uni067D.medi
Encoding: 65589 -1 306
Width: 0
VWidth: 1000
GlyphClass: 2
Flags: W
LayerCount: 2
Fore
SplineSet
79 696 m 1,0,-1
 79 733 l 1,1,2
 113 735 113 735 125.5 748.5 c 128,-1,3
 138 762 138 762 138 779 c 1,4,5
 116 779 116 779 101 790.5 c 128,-1,6
 86 802 86 802 86 826 c 0,7,8
 86 852 86 852 101 863 c 128,-1,9
 116 874 116 874 138 874 c 0,10,11
 162 874 162 874 175.5 857 c 128,-1,12
 189 840 189 840 189 815 c 0,13,14
 189 762 189 762 163.5 732 c 128,-1,15
 138 702 138 702 79 696 c 1,0,-1
210 706 m 1,16,-1
 210 718 l 1,17,18
 221 748 221 748 234.5 789 c 128,-1,19
 248 830 248 830 255 864 c 1,20,-1
 351 864 l 1,21,-1
 351 854 l 1,22,23
 335 822 335 822 307.5 781.5 c 128,-1,24
 280 741 280 741 252 706 c 1,25,-1
 210 706 l 1,16,-1
52 598 m 1,26,-1
 52 669 l 1,27,-1
 348 669 l 1,28,-1
 348 598 l 1,29,-1
 52 598 l 1,26,-1
EndSplineSet
EndChar

StartChar: uni067F.fina
Encoding: 65590 -1 308
Width: 577
VWidth: 1000
GlyphClass: 2
Flags: W
LayerCount: 2
Fore
SplineSet
119 874 m 0,0,1
 141 874 141 874 156 863 c 128,-1,2
 171 852 171 852 171 826 c 0,3,4
 171 802 171 802 156 790.5 c 128,-1,5
 141 779 141 779 119 779 c 1,6,7
 119 762 119 762 131.5 748.5 c 128,-1,8
 144 735 144 735 178 733 c 1,9,-1
 178 696 l 1,10,11
 120 702 120 702 94 732 c 128,-1,12
 68 762 68 762 68 815 c 0,13,14
 68 840 68 840 81.5 857 c 128,-1,15
 95 874 95 874 119 874 c 0,0,1
285 864 m 1,16,17
 292 830 292 830 305.5 789 c 128,-1,18
 319 748 319 748 330 718 c 1,19,-1
 330 706 l 1,20,-1
 288 706 l 1,21,22
 260 741 260 741 232.5 781.5 c 128,-1,23
 205 822 205 822 189 854 c 1,24,-1
 189 864 l 1,25,-1
 285 864 l 1,16,17
348 669 m 1,26,-1
 348 598 l 1,27,-1
 52 598 l 1,28,-1
 52 669 l 1,29,-1
 348 669 l 1,26,-1
EndSplineSet
EndChar

StartChar: uni067F.init
Encoding: 65591 -1 309
Width: 214
VWidth: 1000
GlyphClass: 2
Flags: W
LayerCount: 2
Fore
SplineSet
188 696 m 1,0,1
 130 702 130 702 104 732 c 128,-1,2
 78 762 78 762 78 815 c 0,3,4
 78 840 78 840 91.5 857 c 128,-1,5
 105 874 105 874 129 874 c 0,6,7
 151 874 151 874 166 863 c 128,-1,8
 181 852 181 852 181 826 c 0,9,10
 181 802 181 802 166 790.5 c 128,-1,11
 151 779 151 779 129 779 c 1,12,13
 129 762 129 762 141.5 748.5 c 128,-1,14
 154 735 154 735 188 733 c 1,15,-1
 188 696 l 1,0,1
209 706 m 1,16,-1
 209 718 l 1,17,18
 220 748 220 748 233 789 c 128,-1,19
 246 830 246 830 254 864 c 1,20,-1
 350 864 l 1,21,-1
 350 854 l 1,22,23
 334 822 334 822 307 781.5 c 128,-1,24
 280 741 280 741 251 706 c 1,25,-1
 209 706 l 1,16,-1
52 598 m 1,26,-1
 52 669 l 1,27,-1
 348 669 l 1,28,-1
 348 598 l 1,29,-1
 52 598 l 1,26,-1
EndSplineSet
EndChar

StartChar: uni067F.medi
Encoding: 65592 -1 310
Width: 0
VWidth: 1000
GlyphClass: 2
Flags: W
LayerCount: 2
Fore
SplineSet
-25 606 m 1,0,-1
 -25 618 l 1,1,2
 -10 636 -10 636 7.5 662.5 c 128,-1,3
 25 689 25 689 41.5 716.5 c 128,-1,4
 58 744 58 744 70 766 c 1,5,-1
 176 766 l 1,6,-1
 176 756 l 1,7,8
 164 738 164 738 139 709.5 c 128,-1,9
 114 681 114 681 85 652.5 c 128,-1,10
 56 624 56 624 33 606 c 1,11,-1
 -25 606 l 1,0,-1
-84 631 m 0,12,13
 -104 631 -104 631 -117.5 643.5 c 128,-1,14
 -131 656 -131 656 -131 681 c 0,15,16
 -131 707 -131 707 -117.5 718.5 c 128,-1,17
 -104 730 -104 730 -84 730 c 0,18,19
 -65 730 -65 730 -51 718.5 c 128,-1,20
 -37 707 -37 707 -37 681 c 0,21,22
 -37 656 -37 656 -51 643.5 c 128,-1,23
 -65 631 -65 631 -84 631 c 0,12,13
EndSplineSet
EndChar

StartChar: uni0680.fina
Encoding: 65593 -1 312
Width: 577
VWidth: 1000
GlyphClass: 2
Flags: W
LayerCount: 2
Fore
SplineSet
0 751 m 0,0,1
 -20 751 -20 751 -33.5 763.5 c 128,-1,2
 -47 776 -47 776 -47 801 c 0,3,4
 -47 827 -47 827 -33.5 838.5 c 128,-1,5
 -20 850 -20 850 0 850 c 0,6,7
 19 850 19 850 33 838.5 c 128,-1,8
 47 827 47 827 47 801 c 0,9,10
 47 776 47 776 33 763.5 c 128,-1,11
 19 751 19 751 0 751 c 0,0,1
-46 606 m 1,12,13
 -59 628 -59 628 -81 655 c 128,-1,14
 -103 682 -103 682 -127 708 c 128,-1,15
 -151 734 -151 734 -169 753 c 1,16,-1
 -169 766 l 1,17,-1
 -109 766 l 1,18,19
 -83 749 -83 749 -55 725 c 128,-1,20
 -27 701 -27 701 -2 674 c 1,21,22
 25 701 25 701 53 725 c 128,-1,23
 81 749 81 749 107 766 c 1,24,-1
 169 766 l 1,25,-1
 169 753 l 1,26,27
 150 734 150 734 125.5 708 c 128,-1,28
 101 682 101 682 78.5 655 c 128,-1,29
 56 628 56 628 44 606 c 1,30,-1
 -46 606 l 1,12,13
EndSplineSet
EndChar

StartChar: uni0680.init
Encoding: 65594 -1 313
Width: 214
VWidth: 1000
GlyphClass: 2
Flags: W
LayerCount: 2
Fore
SplineSet
-94 850 m 0,0,1
 -75 850 -75 850 -61 838.5 c 128,-1,2
 -47 827 -47 827 -47 801 c 0,3,4
 -47 776 -47 776 -61 763.5 c 128,-1,5
 -75 751 -75 751 -94 751 c 0,6,7
 -114 751 -114 751 -127.5 763.5 c 128,-1,8
 -141 776 -141 776 -141 801 c 0,9,10
 -141 827 -141 827 -127.5 838.5 c 128,-1,11
 -114 850 -114 850 -94 850 c 0,0,1
93 850 m 256,12,13
 112 850 112 850 126 838.5 c 128,-1,14
 140 827 140 827 140 801 c 0,15,16
 140 776 140 776 126 763.5 c 128,-1,17
 112 751 112 751 93 751 c 256,18,19
 74 751 74 751 60.5 763.5 c 128,-1,20
 47 776 47 776 47 801 c 0,21,22
 47 827 47 827 60.5 838.5 c 128,-1,23
 74 850 74 850 93 850 c 256,12,13
149 692 m 1,24,-1
 149 621 l 1,25,-1
 -148 621 l 1,26,-1
 -148 692 l 1,27,-1
 149 692 l 1,24,-1
EndSplineSet
EndChar

StartChar: uni0680.medi
Encoding: 65595 -1 314
Width: 0
VWidth: 1000
GlyphClass: 2
Flags: W
LayerCount: 2
Fore
SplineSet
-94 751 m 0,0,1
 -114 751 -114 751 -127.5 763.5 c 128,-1,2
 -141 776 -141 776 -141 801 c 0,3,4
 -141 827 -141 827 -127.5 838.5 c 128,-1,5
 -114 850 -114 850 -94 850 c 0,6,7
 -75 850 -75 850 -61 838.5 c 128,-1,8
 -47 827 -47 827 -47 801 c 0,9,10
 -47 776 -47 776 -61 763.5 c 128,-1,11
 -75 751 -75 751 -94 751 c 0,0,1
93 751 m 256,12,13
 74 751 74 751 60.5 763.5 c 128,-1,14
 47 776 47 776 47 801 c 0,15,16
 47 827 47 827 60.5 838.5 c 128,-1,17
 74 850 74 850 93 850 c 256,18,19
 112 850 112 850 126 838.5 c 128,-1,20
 140 827 140 827 140 801 c 0,21,22
 140 776 140 776 126 763.5 c 128,-1,23
 112 751 112 751 93 751 c 256,12,13
-178 605 m 1,24,25
 -172 658 -172 658 -146 688.5 c 128,-1,26
 -120 719 -120 719 -73 719 c 0,27,28
 -44 719 -44 719 -17 707 c 128,-1,29
 10 695 10 695 34 683 c 128,-1,30
 58 671 58 671 79 671 c 0,31,32
 102 671 102 671 114 684.5 c 128,-1,33
 126 698 126 698 134 720 c 1,34,-1
 179 720 l 1,35,36
 173 668 173 668 147.5 637 c 128,-1,37
 122 606 122 606 75 606 c 0,38,39
 47 606 47 606 20.5 618 c 128,-1,40
 -6 630 -6 630 -30.5 642 c 128,-1,41
 -55 654 -55 654 -77 654 c 0,42,43
 -101 654 -101 654 -113 641 c 128,-1,44
 -125 628 -125 628 -132 605 c 1,45,-1
 -178 605 l 1,24,25
EndSplineSet
EndChar

StartChar: uni0681.fina
Encoding: 65596 -1 316
Width: 1257
VWidth: 1000
GlyphClass: 2
Flags: W
LayerCount: 2
Fore
SplineSet
-65 745 m 1,0,-1
 -65 757 l 1,1,2
 -43 785 -43 785 -15 816 c 128,-1,3
 13 847 13 847 30 881 c 1,4,-1
 136 881 l 1,5,-1
 136 871 l 1,6,7
 124 852 124 852 99 830 c 128,-1,8
 74 808 74 808 45 785.5 c 128,-1,9
 16 763 16 763 -7 745 c 1,10,-1
 -65 745 l 1,0,-1
-168 605 m 1,11,12
 -163 658 -163 658 -138.5 688.5 c 128,-1,13
 -114 719 -114 719 -71 719 c 0,14,15
 -44 719 -44 719 -18.5 707 c 128,-1,16
 7 695 7 695 29.5 683 c 128,-1,17
 52 671 52 671 72 671 c 0,18,19
 93 671 93 671 102 684.5 c 128,-1,20
 111 698 111 698 118 720 c 1,21,-1
 168 720 l 1,22,23
 163 668 163 668 139 637 c 128,-1,24
 115 606 115 606 71 606 c 0,25,26
 46 606 46 606 21 618 c 128,-1,27
 -4 630 -4 630 -27 642 c 128,-1,28
 -50 654 -50 654 -71 654 c 0,29,30
 -93 654 -93 654 -102 641 c 128,-1,31
 -111 628 -111 628 -117 605 c 1,32,-1
 -168 605 l 1,11,12
EndSplineSet
EndChar

StartChar: uni0681.init
Encoding: 65597 -1 317
Width: 1188
VWidth: 1000
GlyphClass: 2
Flags: W
LayerCount: 2
Fore
SplineSet
7 736 m 1,0,1
 -16 754 -16 754 -45 778.5 c 128,-1,2
 -74 803 -74 803 -99 827.5 c 128,-1,3
 -124 852 -124 852 -135 871 c 1,4,-1
 -135 881 l 1,5,-1
 -30 881 l 1,6,7
 -14 847 -14 847 14.5 811.5 c 128,-1,8
 43 776 43 776 66 748 c 1,9,-1
 66 736 l 1,10,-1
 7 736 l 1,0,1
-148 621 m 1,11,-1
 -148 692 l 1,12,-1
 149 692 l 1,13,-1
 149 621 l 1,14,-1
 -148 621 l 1,11,-1
EndSplineSet
EndChar

StartChar: uni0681.medi
Encoding: 65598 -1 318
Width: 1176
VWidth: 1000
GlyphClass: 2
Flags: W
LayerCount: 2
Fore
SplineSet
-65 736 m 1,0,-1
 -65 748 l 1,1,2
 -43 776 -43 776 -15 811.5 c 128,-1,3
 13 847 13 847 30 881 c 1,4,-1
 136 881 l 1,5,-1
 136 871 l 1,6,7
 124 852 124 852 99 827.5 c 128,-1,8
 74 803 74 803 45 778.5 c 128,-1,9
 16 754 16 754 -7 736 c 1,10,-1
 -65 736 l 1,0,-1
-148 621 m 1,11,-1
 -148 692 l 1,12,-1
 149 692 l 1,13,-1
 149 621 l 1,14,-1
 -148 621 l 1,11,-1
EndSplineSet
EndChar

StartChar: uni0682.fina
Encoding: 65599 -1 320
Width: 1257
VWidth: 1000
GlyphClass: 2
Flags: W
LayerCount: 2
Fore
SplineSet
-46 731 m 1,0,1
 -59 754 -59 754 -81 778 c 128,-1,2
 -103 802 -103 802 -127 825.5 c 128,-1,3
 -151 849 -151 849 -169 868 c 1,4,-1
 -169 881 l 1,5,-1
 -109 881 l 1,6,7
 -83 864 -83 864 -55 845 c 128,-1,8
 -27 826 -27 826 -2 799 c 1,9,10
 25 826 25 826 53 845 c 128,-1,11
 81 864 81 864 107 881 c 1,12,-1
 169 881 l 1,13,-1
 169 868 l 1,14,15
 150 849 150 849 125.5 825.5 c 128,-1,16
 101 802 101 802 78.5 778 c 128,-1,17
 56 754 56 754 44 731 c 1,18,-1
 -46 731 l 1,0,1
-94 601 m 256,19,20
 -113 601 -113 601 -127 612.5 c 128,-1,21
 -141 624 -141 624 -141 650 c 256,22,23
 -141 676 -141 676 -127 688 c 128,-1,24
 -113 700 -113 700 -94 700 c 256,25,26
 -75 700 -75 700 -61.5 688 c 128,-1,27
 -48 676 -48 676 -48 650 c 256,28,29
 -48 624 -48 624 -61.5 612.5 c 128,-1,30
 -75 601 -75 601 -94 601 c 256,19,20
93 601 m 256,31,32
 74 601 74 601 60 612.5 c 128,-1,33
 46 624 46 624 46 650 c 256,34,35
 46 676 46 676 60 688 c 128,-1,36
 74 700 74 700 93 700 c 256,37,38
 112 700 112 700 126 688 c 128,-1,39
 140 676 140 676 140 650 c 256,40,41
 140 624 140 624 126 612.5 c 128,-1,42
 112 601 112 601 93 601 c 256,31,32
EndSplineSet
EndChar

StartChar: uni0682.init
Encoding: 65600 -1 321
Width: 1188
VWidth: 1000
GlyphClass: 2
Flags: W
LayerCount: 2
Fore
SplineSet
148 836 m 1,0,-1
 148 765 l 1,1,-1
 -149 765 l 1,2,-1
 -149 836 l 1,3,-1
 148 836 l 1,0,-1
-94 700 m 256,4,5
 -75 700 -75 700 -61.5 688 c 128,-1,6
 -48 676 -48 676 -48 650 c 256,7,8
 -48 624 -48 624 -61.5 612.5 c 128,-1,9
 -75 601 -75 601 -94 601 c 256,10,11
 -113 601 -113 601 -127 612.5 c 128,-1,12
 -141 624 -141 624 -141 650 c 256,13,14
 -141 676 -141 676 -127 688 c 128,-1,15
 -113 700 -113 700 -94 700 c 256,4,5
93 700 m 256,16,17
 112 700 112 700 126 688 c 128,-1,18
 140 676 140 676 140 650 c 256,19,20
 140 624 140 624 126 612.5 c 128,-1,21
 112 601 112 601 93 601 c 256,22,23
 74 601 74 601 60 612.5 c 128,-1,24
 46 624 46 624 46 650 c 256,25,26
 46 676 46 676 60 688 c 128,-1,27
 74 700 74 700 93 700 c 256,16,17
EndSplineSet
EndChar

StartChar: uni0682.medi
Encoding: 65601 -1 322
Width: 1176
VWidth: 1000
GlyphClass: 2
Flags: W
LayerCount: 2
Fore
SplineSet
-149 765 m 1,0,-1
 -149 836 l 1,1,-1
 148 836 l 1,2,-1
 148 765 l 1,3,-1
 -149 765 l 1,0,-1
-168 605 m 1,4,5
 -163 658 -163 658 -138.5 688.5 c 128,-1,6
 -114 719 -114 719 -71 719 c 0,7,8
 -44 719 -44 719 -18.5 707 c 128,-1,9
 7 695 7 695 29.5 683 c 128,-1,10
 52 671 52 671 72 671 c 0,11,12
 93 671 93 671 102 684.5 c 128,-1,13
 111 698 111 698 118 720 c 1,14,-1
 168 720 l 1,15,16
 163 668 163 668 139 637 c 128,-1,17
 115 606 115 606 71 606 c 0,18,19
 46 606 46 606 21 618 c 128,-1,20
 -4 630 -4 630 -27 642 c 128,-1,21
 -50 654 -50 654 -71 654 c 0,22,23
 -93 654 -93 654 -102 641 c 128,-1,24
 -111 628 -111 628 -117 605 c 1,25,-1
 -168 605 l 1,4,5
EndSplineSet
EndChar

StartChar: uni0683.fina
Encoding: 65602 -1 324
Width: 1257
VWidth: 1000
GlyphClass: 2
Flags: W
LayerCount: 2
Fore
SplineSet
148 837 m 1,0,-1
 148 766 l 1,1,-1
 -149 766 l 1,2,-1
 -149 837 l 1,3,-1
 148 837 l 1,0,-1
-1 718 m 0,4,5
 19 718 19 718 34.5 704.5 c 128,-1,6
 50 691 50 691 50 662 c 0,7,8
 50 634 50 634 34.5 620 c 128,-1,9
 19 606 19 606 -1 606 c 0,10,11
 -23 606 -23 606 -38 620 c 128,-1,12
 -53 634 -53 634 -53 662 c 0,13,14
 -53 691 -53 691 -38 704.5 c 128,-1,15
 -23 718 -23 718 -1 718 c 0,4,5
EndSplineSet
EndChar

StartChar: uni0683.init
Encoding: 65603 -1 325
Width: 1188
VWidth: 1000
GlyphClass: 2
Flags: W
LayerCount: 2
Fore
SplineSet
148 1001 m 1,0,-1
 148 930 l 1,1,-1
 -149 930 l 1,2,-1
 -149 1001 l 1,3,-1
 148 1001 l 1,0,-1
1 882 m 0,4,5
 21 882 21 882 36.5 868.5 c 128,-1,6
 52 855 52 855 52 826 c 0,7,8
 52 798 52 798 36.5 784 c 128,-1,9
 21 770 21 770 1 770 c 0,10,11
 -21 770 -21 770 -36 784 c 128,-1,12
 -51 798 -51 798 -51 826 c 0,13,14
 -51 855 -51 855 -36 868.5 c 128,-1,15
 -21 882 -21 882 1 882 c 0,4,5
EndSplineSet
EndChar

StartChar: uni0683.medi
Encoding: 65604 -1 326
Width: 1176
VWidth: 1000
GlyphClass: 2
Flags: W
LayerCount: 2
Fore
SplineSet
149 833 m 1,0,-1
 149 844 l 1,1,2
 168 869 168 869 182 890.5 c 128,-1,3
 196 912 196 912 211 944 c 1,4,-1
 298 944 l 1,5,-1
 298 934 l 1,6,7
 276 906 276 906 250 879.5 c 128,-1,8
 224 853 224 853 198 833 c 1,9,-1
 149 833 l 1,0,-1
197 721 m 0,10,11
 127 721 127 721 90.5 755.5 c 128,-1,12
 54 790 54 790 46 846 c 1,13,-1
 101 846 l 1,14,15
 108 813 108 813 132.5 802.5 c 128,-1,16
 157 792 157 792 199 792 c 0,17,18
 234 792 234 792 261 804 c 128,-1,19
 288 816 288 816 297 846 c 1,20,-1
 354 846 l 1,21,22
 346 791 346 791 305.5 756 c 128,-1,23
 265 721 265 721 197 721 c 0,10,11
107 602 m 256,24,25
 88 602 88 602 74 614 c 128,-1,26
 60 626 60 626 60 652 c 256,27,28
 60 678 60 678 74 689.5 c 128,-1,29
 88 701 88 701 107 701 c 256,30,31
 126 701 126 701 140 689.5 c 128,-1,32
 154 678 154 678 154 652 c 256,33,34
 154 626 154 626 140 614 c 128,-1,35
 126 602 126 602 107 602 c 256,24,25
293 602 m 256,36,37
 274 602 274 602 260.5 614 c 128,-1,38
 247 626 247 626 247 652 c 256,39,40
 247 678 247 678 260.5 689.5 c 128,-1,41
 274 701 274 701 293 701 c 256,42,43
 312 701 312 701 326 689.5 c 128,-1,44
 340 678 340 678 340 652 c 256,45,46
 340 626 340 626 326 614 c 128,-1,47
 312 602 312 602 293 602 c 256,36,37
EndSplineSet
EndChar

StartChar: uni0684.fina
Encoding: 65605 -1 328
Width: 1257
VWidth: 1000
GlyphClass: 2
Flags: W
LayerCount: 2
Fore
SplineSet
181 944 m 1,0,1
 196 912 196 912 210 890.5 c 128,-1,2
 224 869 224 869 243 844 c 1,3,-1
 243 833 l 1,4,-1
 194 833 l 1,5,6
 168 853 168 853 142 879.5 c 128,-1,7
 116 906 116 906 94 934 c 1,8,-1
 94 944 l 1,9,-1
 181 944 l 1,0,1
354 846 m 1,10,11
 346 791 346 791 305.5 756 c 128,-1,12
 265 721 265 721 197 721 c 0,13,14
 127 721 127 721 90.5 755.5 c 128,-1,15
 54 790 54 790 46 846 c 1,16,-1
 101 846 l 1,17,18
 108 813 108 813 132.5 802.5 c 128,-1,19
 157 792 157 792 199 792 c 0,20,21
 234 792 234 792 261 804 c 128,-1,22
 288 816 288 816 297 846 c 1,23,-1
 354 846 l 1,10,11
107 701 m 256,24,25
 126 701 126 701 140 689.5 c 128,-1,26
 154 678 154 678 154 652 c 256,27,28
 154 626 154 626 140 614 c 128,-1,29
 126 602 126 602 107 602 c 256,30,31
 88 602 88 602 74 614 c 128,-1,32
 60 626 60 626 60 652 c 256,33,34
 60 678 60 678 74 689.5 c 128,-1,35
 88 701 88 701 107 701 c 256,24,25
293 701 m 256,36,37
 312 701 312 701 326 689.5 c 128,-1,38
 340 678 340 678 340 652 c 256,39,40
 340 626 340 626 326 614 c 128,-1,41
 312 602 312 602 293 602 c 256,42,43
 274 602 274 602 260.5 614 c 128,-1,44
 247 626 247 626 247 652 c 256,45,46
 247 678 247 678 260.5 689.5 c 128,-1,47
 274 701 274 701 293 701 c 256,36,37
EndSplineSet
EndChar

StartChar: uni0684.init
Encoding: 65606 -1 329
Width: 1188
VWidth: 1000
GlyphClass: 2
Flags: W
LayerCount: 2
Fore
SplineSet
298 944 m 1,0,-1
 298 934 l 1,1,2
 276 906 276 906 250 879.5 c 128,-1,3
 224 853 224 853 198 833 c 1,4,-1
 149 833 l 1,5,-1
 149 844 l 1,6,7
 168 869 168 869 182 890.5 c 128,-1,8
 196 912 196 912 211 944 c 1,9,-1
 298 944 l 1,0,-1
348 803 m 1,10,-1
 348 732 l 1,11,-1
 52 732 l 1,12,-1
 52 803 l 1,13,-1
 348 803 l 1,10,-1
107 701 m 256,14,15
 126 701 126 701 140 689.5 c 128,-1,16
 154 678 154 678 154 652 c 256,17,18
 154 626 154 626 140 614 c 128,-1,19
 126 602 126 602 107 602 c 256,20,21
 88 602 88 602 74 614 c 128,-1,22
 60 626 60 626 60 652 c 256,23,24
 60 678 60 678 74 689.5 c 128,-1,25
 88 701 88 701 107 701 c 256,14,15
293 701 m 256,26,27
 312 701 312 701 326 689.5 c 128,-1,28
 340 678 340 678 340 652 c 256,29,30
 340 626 340 626 326 614 c 128,-1,31
 312 602 312 602 293 602 c 256,32,33
 274 602 274 602 260.5 614 c 128,-1,34
 247 626 247 626 247 652 c 256,35,36
 247 678 247 678 260.5 689.5 c 128,-1,37
 274 701 274 701 293 701 c 256,26,27
EndSplineSet
EndChar

StartChar: uni0684.medi
Encoding: 65607 -1 330
Width: 1176
VWidth: 1000
GlyphClass: 2
Flags: W
LayerCount: 2
Fore
SplineSet
194 833 m 1,0,1
 168 853 168 853 142 879.5 c 128,-1,2
 116 906 116 906 94 934 c 1,3,-1
 94 944 l 1,4,-1
 181 944 l 1,5,6
 196 912 196 912 210 890.5 c 128,-1,7
 224 869 224 869 243 844 c 1,8,-1
 243 833 l 1,9,-1
 194 833 l 1,0,1
52 732 m 1,10,-1
 52 803 l 1,11,-1
 348 803 l 1,12,-1
 348 732 l 1,13,-1
 52 732 l 1,10,-1
107 602 m 256,14,15
 88 602 88 602 74 614 c 128,-1,16
 60 626 60 626 60 652 c 256,17,18
 60 678 60 678 74 689.5 c 128,-1,19
 88 701 88 701 107 701 c 256,20,21
 126 701 126 701 140 689.5 c 128,-1,22
 154 678 154 678 154 652 c 256,23,24
 154 626 154 626 140 614 c 128,-1,25
 126 602 126 602 107 602 c 256,14,15
293 602 m 256,26,27
 274 602 274 602 260.5 614 c 128,-1,28
 247 626 247 626 247 652 c 256,29,30
 247 678 247 678 260.5 689.5 c 128,-1,31
 274 701 274 701 293 701 c 256,32,33
 312 701 312 701 326 689.5 c 128,-1,34
 340 678 340 678 340 652 c 256,35,36
 340 626 340 626 326 614 c 128,-1,37
 312 602 312 602 293 602 c 256,26,27
EndSplineSet
EndChar

StartChar: uni0685.fina
Encoding: 65608 -1 332
Width: 1257
VWidth: 1000
GlyphClass: 2
Flags: W
LayerCount: 2
Fore
SplineSet
188 726 m 1,0,1
 130 732 130 732 104 762 c 128,-1,2
 78 792 78 792 78 845 c 0,3,4
 78 870 78 870 91.5 887 c 128,-1,5
 105 904 105 904 129 904 c 0,6,7
 151 904 151 904 166 893 c 128,-1,8
 181 882 181 882 181 856 c 0,9,10
 181 832 181 832 166 820.5 c 128,-1,11
 151 809 151 809 129 809 c 1,12,13
 129 792 129 792 141.5 778.5 c 128,-1,14
 154 765 154 765 188 763 c 1,15,-1
 188 726 l 1,0,1
209 736 m 1,16,-1
 209 748 l 1,17,18
 220 778 220 778 233 819 c 128,-1,19
 246 860 246 860 254 894 c 1,20,-1
 350 894 l 1,21,-1
 350 884 l 1,22,23
 334 852 334 852 307 811.5 c 128,-1,24
 280 771 280 771 251 736 c 1,25,-1
 209 736 l 1,16,-1
197 591 m 0,26,27
 127 591 127 591 90.5 623.5 c 128,-1,28
 54 656 54 656 46 711 c 1,29,-1
 101 711 l 1,30,31
 108 678 108 678 132.5 670 c 128,-1,32
 157 662 157 662 199 662 c 0,33,34
 234 662 234 662 261 671.5 c 128,-1,35
 288 681 288 681 297 711 c 1,36,-1
 354 711 l 1,37,38
 346 656 346 656 305.5 623.5 c 128,-1,39
 265 591 265 591 197 591 c 0,26,27
EndSplineSet
EndChar

StartChar: uni0685.init
Encoding: 65609 -1 333
Width: 1188
VWidth: 1000
GlyphClass: 2
Flags: W
LayerCount: 2
Fore
SplineSet
178 726 m 1,0,1
 120 732 120 732 94 762 c 128,-1,2
 68 792 68 792 68 845 c 0,3,4
 68 870 68 870 81.5 887 c 128,-1,5
 95 904 95 904 119 904 c 0,6,7
 141 904 141 904 156 893 c 128,-1,8
 171 882 171 882 171 856 c 0,9,10
 171 832 171 832 156 820.5 c 128,-1,11
 141 809 141 809 119 809 c 1,12,13
 119 792 119 792 131.5 778.5 c 128,-1,14
 144 765 144 765 178 763 c 1,15,-1
 178 726 l 1,0,1
288 736 m 1,16,17
 260 771 260 771 232.5 811.5 c 128,-1,18
 205 852 205 852 189 884 c 1,19,-1
 189 894 l 1,20,-1
 285 894 l 1,21,22
 292 860 292 860 305.5 819 c 128,-1,23
 319 778 319 778 330 748 c 1,24,-1
 330 736 l 1,25,-1
 288 736 l 1,16,17
197 591 m 0,26,27
 127 591 127 591 90.5 623.5 c 128,-1,28
 54 656 54 656 46 711 c 1,29,-1
 101 711 l 1,30,31
 108 678 108 678 132.5 670 c 128,-1,32
 157 662 157 662 199 662 c 0,33,34
 234 662 234 662 261 671.5 c 128,-1,35
 288 681 288 681 297 711 c 1,36,-1
 354 711 l 1,37,38
 346 656 346 656 305.5 623.5 c 128,-1,39
 265 591 265 591 197 591 c 0,26,27
EndSplineSet
EndChar

StartChar: uni0685.medi
Encoding: 65610 -1 334
Width: 1176
VWidth: 1000
GlyphClass: 2
Flags: W
LayerCount: 2
Fore
SplineSet
79 726 m 1,0,-1
 79 763 l 1,1,2
 113 765 113 765 125.5 778.5 c 128,-1,3
 138 792 138 792 138 809 c 1,4,5
 116 809 116 809 101 820.5 c 128,-1,6
 86 832 86 832 86 856 c 0,7,8
 86 882 86 882 101 893 c 128,-1,9
 116 904 116 904 138 904 c 0,10,11
 162 904 162 904 175.5 887 c 128,-1,12
 189 870 189 870 189 845 c 0,13,14
 189 792 189 792 163.5 762 c 128,-1,15
 138 732 138 732 79 726 c 1,0,-1
210 736 m 1,16,-1
 210 748 l 1,17,18
 221 778 221 778 234.5 819 c 128,-1,19
 248 860 248 860 255 894 c 1,20,-1
 351 894 l 1,21,-1
 351 884 l 1,22,23
 335 852 335 852 307.5 811.5 c 128,-1,24
 280 771 280 771 252 736 c 1,25,-1
 210 736 l 1,16,-1
197 591 m 0,26,27
 127 591 127 591 90.5 623.5 c 128,-1,28
 54 656 54 656 46 711 c 1,29,-1
 101 711 l 1,30,31
 108 678 108 678 132.5 670 c 128,-1,32
 157 662 157 662 199 662 c 0,33,34
 234 662 234 662 261 671.5 c 128,-1,35
 288 681 288 681 297 711 c 1,36,-1
 354 711 l 1,37,38
 346 656 346 656 305.5 623.5 c 128,-1,39
 265 591 265 591 197 591 c 0,26,27
EndSplineSet
EndChar

StartChar: uni0687.fina
Encoding: 65611 -1 336
Width: 1257
VWidth: 1000
GlyphClass: 2
Flags: W
LayerCount: 2
Fore
SplineSet
70 726 m 1,0,-1
 70 763 l 1,1,2
 104 765 104 765 116.5 778.5 c 128,-1,3
 129 792 129 792 129 809 c 1,4,5
 107 809 107 809 92 820.5 c 128,-1,6
 77 832 77 832 77 856 c 0,7,8
 77 882 77 882 92 893 c 128,-1,9
 107 904 107 904 129 904 c 0,10,11
 153 904 153 904 166.5 887 c 128,-1,12
 180 870 180 870 180 845 c 0,13,14
 180 792 180 792 154 762 c 128,-1,15
 128 732 128 732 70 726 c 1,0,-1
295 736 m 1,16,17
 266 771 266 771 239 811.5 c 128,-1,18
 212 852 212 852 196 884 c 1,19,-1
 196 894 l 1,20,-1
 292 894 l 1,21,22
 300 860 300 860 313 819 c 128,-1,23
 326 778 326 778 337 748 c 1,24,-1
 337 736 l 1,25,-1
 295 736 l 1,16,17
197 591 m 0,26,27
 127 591 127 591 90.5 623.5 c 128,-1,28
 54 656 54 656 46 711 c 1,29,-1
 101 711 l 1,30,31
 108 678 108 678 132.5 670 c 128,-1,32
 157 662 157 662 199 662 c 0,33,34
 234 662 234 662 261 671.5 c 128,-1,35
 288 681 288 681 297 711 c 1,36,-1
 354 711 l 1,37,38
 346 656 346 656 305.5 623.5 c 128,-1,39
 265 591 265 591 197 591 c 0,26,27
EndSplineSet
EndChar

StartChar: uni0687.init
Encoding: 65612 -1 337
Width: 1188
VWidth: 1000
GlyphClass: 2
Flags: W
LayerCount: 2
Fore
SplineSet
490 705 m 1,0,-1
 490 689 l 1,1,-1
 450 605 l 1,2,-1
 434 605 l 1,3,-1
 410 655 l 1,4,-1
 319 655 l 1,5,-1
 295 605 l 1,6,-1
 279 605 l 1,7,-1
 255 655 l 1,8,-1
 165 655 l 1,9,-1
 141 605 l 1,10,-1
 125 605 l 1,11,-1
 86 689 l 1,12,-1
 86 705 l 1,13,-1
 490 705 l 1,0,-1
EndSplineSet
EndChar

StartChar: uni0692.fina
Encoding: 65622 -1 356
Width: 735
VWidth: 1000
GlyphClass: 2
Flags: W
AnchorPoint: "Anchor-2" 129 536 basechar 0
AnchorPoint: "Anchor-0" 22 -240 basechar 0
LayerCount: 2
Fore
SplineSet
22 -240 m 0,0,1
 -4 -240 -4 -240 -23 -236.5 c 128,-1,2
 -42 -233 -42 -233 -55 -228 c 1,3,-1
 -55 -157 l 1,4,5
 -40 -162 -40 -162 -24 -164.5 c 128,-1,6
 -8 -167 -8 -167 11 -167 c 0,7,8
 43 -167 43 -167 64 -149.5 c 128,-1,9
 85 -132 85 -132 85 -83 c 2,10,-1
 85 248 l 1,11,-1
 10 248 l 1,12,-1
 10 319 l 1,13,-1
 85 319 l 1,14,-1
 85 536 l 1,15,-1
 173 536 l 1,16,-1
 173 319 l 1,17,-1
 248 319 l 1,18,-1
 248 248 l 1,19,-1
 173 248 l 1,20,-1
 173 -80 l 2,21,22
 173 -155 173 -155 137 -197.5 c 128,-1,23
 101 -240 101 -240 22 -240 c 0,0,1
EndSplineSet
EndChar

StartChar: uni0693.fina
Encoding: 65623 -1 358
Width: 735
VWidth: 1000
GlyphClass: 2
Flags: W
AnchorPoint: "Anchor-2" 129 536 basechar 0
AnchorPoint: "Anchor-0" 22 -240 basechar 0
LayerCount: 2
Fore
SplineSet
40 -240 m 0,0,1
 -20 -240 -20 -240 -57.5 -207 c 128,-1,2
 -95 -174 -95 -174 -95 -122 c 0,3,4
 -95 -67 -95 -67 -63 -33.5 c 128,-1,5
 -31 0 -31 0 42 0 c 2,6,-1
 85 0 l 1,7,-1
 85 536 l 1,8,-1
 173 536 l 1,9,-1
 173 0 l 1,10,-1
 248 0 l 1,11,-1
 248 -72 l 1,12,-1
 173 -72 l 1,13,14
 172 -138 172 -138 153.5 -174.5 c 128,-1,15
 135 -211 135 -211 105.5 -225.5 c 128,-1,16
 76 -240 76 -240 40 -240 c 0,0,1
34 -168 m 0,17,18
 57 -168 57 -168 71 -150 c 128,-1,19
 85 -132 85 -132 85 -89 c 2,20,-1
 85 -72 l 1,21,-1
 47 -72 l 2,22,23
 23 -72 23 -72 5.5 -82 c 128,-1,24
 -12 -92 -12 -92 -12 -120 c 0,25,26
 -12 -140 -12 -140 -2.5 -154 c 128,-1,27
 7 -168 7 -168 34 -168 c 0,17,18
EndSplineSet
EndChar

StartChar: uni0697.fina
Encoding: 65627 -1 366
Width: 735
VWidth: 1000
GlyphClass: 2
Flags: W
AnchorPoint: "Anchor-2" 129 536 basechar 0
AnchorPoint: "Anchor-0" 129 -198 basechar 0
LayerCount: 2
Fore
SplineSet
173 536 m 1,0,-1
 173 73 l 1,1,-1
 217 73 l 1,2,-1
 217 -62 l 2,3,4
 217 -97 217 -97 230.5 -111.5 c 128,-1,5
 244 -126 244 -126 269 -126 c 0,6,7
 281 -126 281 -126 294.5 -123 c 128,-1,8
 308 -120 308 -120 315 -117 c 1,9,-1
 315 -186 l 1,10,11
 305 -192 305 -192 287.5 -195 c 128,-1,12
 270 -198 270 -198 251 -198 c 0,13,14
 202 -198 202 -198 170 -167.5 c 128,-1,15
 138 -137 138 -137 138 -63 c 2,16,-1
 138 0 l 1,17,-1
 85 0 l 1,18,-1
 85 536 l 1,19,-1
 173 536 l 1,0,-1
EndSplineSet
EndChar

StartChar: uni0699.fina
Encoding: 65628 -1 368
Width: 735
VWidth: 1000
GlyphClass: 2
Flags: W
AnchorPoint: "Anchor-3" 155 609 basechar 0
AnchorPoint: "Anchor-2" 84 609 basechar 0
AnchorPoint: "Anchor-0" 85 287 basechar 0
LayerCount: 2
Fore
SplineSet
161 478 m 1,0,-1
 161 436 l 1,1,-1
 112 436 l 1,2,-1
 112 287 l 1,3,-1
 55 287 l 1,4,-1
 55 436 l 1,5,-1
 6 436 l 1,6,-1
 6 478 l 1,7,-1
 55 478 l 1,8,-1
 55 609 l 1,9,-1
 112 609 l 1,10,-1
 112 478 l 1,11,-1
 161 478 l 1,0,-1
EndSplineSet
EndChar

StartChar: uni069A.fina
Encoding: 65629 -1 370
Width: 2634
VWidth: 1000
GlyphClass: 2
Flags: W
AnchorPoint: "Anchor-2" 84 609 basechar 0
AnchorPoint: "Anchor-0" 14 143 basechar 0
LayerCount: 2
Fore
SplineSet
26.0009765625 143.005859375 m 4,0,1
 -13 143.005859375 -13 143.005859375 -37.3759765625 162.8046875 c 132,-1,2
 -61.751953125 182.604492188 -61.751953125 182.604492188 -61.751953125 213.802734375 c 4,3,4
 -61.751953125 246.801757812 -61.751953125 246.801757812 -40.951171875 266.900390625 c 132,-1,5
 -20.150390625 287 -20.150390625 287 27.30078125 287 c 6,6,-1
 55.251953125 287 l 5,7,-1
 55.251953125 608.586914062 l 5,8,-1
 112.454101562 608.586914062 l 5,9,-1
 112.454101562 287 l 5,10,-1
 161.206054688 287 l 5,11,-1
 161.206054688 243.801757812 l 5,12,-1
 112.454101562 243.801757812 l 5,13,14
 111.8046875 204.203125 111.8046875 204.203125 99.7783203125 182.3046875 c 132,-1,15
 87.7529296875 160.405273438 87.7529296875 160.405273438 68.5771484375 151.705078125 c 132,-1,16
 49.40234375 143.005859375 49.40234375 143.005859375 26.0009765625 143.005859375 c 4,0,1
22.1005859375 186.204101562 m 4,17,18
 37.0517578125 186.204101562 37.0517578125 186.204101562 46.1513671875 197.00390625 c 132,-1,19
 55.251953125 207.802734375 55.251953125 207.802734375 55.251953125 233.602539062 c 6,20,-1
 55.251953125 243.801757812 l 5,21,-1
 30.55078125 243.801757812 l 6,22,23
 14.9501953125 243.801757812 14.9501953125 243.801757812 3.5751953125 237.801757812 c 132,-1,24
 -7.80078125 231.802734375 -7.80078125 231.802734375 -7.80078125 215.002929688 c 4,25,26
 -7.80078125 203.00390625 -7.80078125 203.00390625 -1.625 194.603515625 c 132,-1,27
 4.5498046875 186.204101562 4.5498046875 186.204101562 22.1005859375 186.204101562 c 4,17,18
EndSplineSet
EndChar

StartChar: uni069D.fina
Encoding: 65638 -1 382
Width: 2503
VWidth: 1000
GlyphClass: 2
Flags: W
AnchorPoint: "Anchor-3" 508 572 basechar 0
AnchorPoint: "Anchor-2" 266 572 basechar 0
AnchorPoint: "Anchor-0" 264 0 basechar 0
LayerCount: 2
Fore
SplineSet
0 0 m 1,0,-1
 216 574 l 1,1,-1
 315 574 l 1,2,-1
 528 0 l 1,3,-1
 432 0 l 1,4,-1
 375 163 l 1,5,-1
 156 163 l 1,6,-1
 96 0 l 1,7,-1
 0 0 l 1,0,-1
349 236 m 1,8,-1
 294 396 l 2,9,10
 286 417 286 417 278 441 c 128,-1,11
 270 465 270 465 265 489 c 1,12,13
 259 465 259 465 251.5 442 c 128,-1,14
 244 419 244 419 236 395 c 2,15,-1
 180 236 l 1,16,-1
 349 236 l 1,8,-1
EndSplineSet
EndChar

StartChar: uni069D.init
Encoding: 65639 -1 383
Width: 1604
VWidth: 1000
GlyphClass: 2
Flags: W
AnchorPoint: "Anchor-3" 508 572 basechar 0
AnchorPoint: "Anchor-2" 264 786 basechar 0
AnchorPoint: "Anchor-0" 264 0 basechar 0
LayerCount: 2
Fore
SplineSet
418 786 m 5,0,-1
 418 776 l 5,1,2
 405 758 405 758 380.5 729.5 c 132,-1,3
 356 701 356 701 327.5 672.5 c 132,-1,4
 299 644 299 644 275 626 c 5,5,-1
 217 626 l 5,6,-1
 217 638 l 5,7,8
 231 656 231 656 249 682.5 c 132,-1,9
 267 709 267 709 284 736.5 c 132,-1,10
 301 764 301 764 312 786 c 5,11,-1
 418 786 l 5,0,-1
0 0 m 5,12,-1
 216 574 l 5,13,-1
 315 574 l 5,14,-1
 528 0 l 5,15,-1
 432 0 l 5,16,-1
 375 163 l 5,17,-1
 156 163 l 5,18,-1
 96 0 l 5,19,-1
 0 0 l 5,12,-1
349 236 m 5,20,-1
 294 396 l 6,21,22
 286 417 286 417 278 441 c 132,-1,23
 270 465 270 465 265 489 c 5,24,25
 259 465 259 465 251.5 442 c 132,-1,26
 244 419 244 419 236 395 c 6,27,-1
 180 236 l 5,28,-1
 349 236 l 5,20,-1
EndSplineSet
EndChar

StartChar: uni069D.medi
Encoding: 65640 -1 384
Width: 1710
VWidth: 1000
GlyphClass: 2
Flags: W
AnchorPoint: "Anchor-3" 508 572 basechar 0
AnchorPoint: "Anchor-2" 264 776 basechar 0
AnchorPoint: "Anchor-0" 264 0 basechar 0
LayerCount: 2
Fore
SplineSet
0 0 m 5
 216 574 l 5
 315 574 l 5
 528 0 l 5
 432 0 l 5
 375 163 l 5
 156 163 l 5
 96 0 l 5
 0 0 l 5
349 236 m 5
 294 396 l 6
 286 417 286 417 278 441 c 4
 270 465 270 465 265 489 c 5
 259 465 259 465 251.5 442 c 4
 244 419 244 419 236 395 c 6
 180 236 l 5
 349 236 l 5
EndSplineSet
Refer: 1423 728 N 1 0 0 1 153.6 73.728 2
EndChar

StartChar: uni069E.fina
Encoding: 65641 -1 386
Width: 2503
VWidth: 1000
GlyphClass: 2
Flags: W
AnchorPoint: "Anchor-3" 508 572 basechar 0
AnchorPoint: "Anchor-2" 264 802 basechar 0
AnchorPoint: "Anchor-0" 264 0 basechar 0
LayerCount: 2
Fore
SplineSet
0 0 m 5
 216 574 l 5
 315 574 l 5
 528 0 l 5
 432 0 l 5
 375 163 l 5
 156 163 l 5
 96 0 l 5
 0 0 l 5
349 236 m 5
 294 396 l 6
 286 417 286 417 278 441 c 4
 270 465 270 465 265 489 c 5
 259 465 259 465 251.5 442 c 4
 244 419 244 419 236 395 c 6
 180 236 l 5
 349 236 l 5
EndSplineSet
Refer: 1405 710 N 1 0 0 1 120.832 73.728 2
EndChar

StartChar: uni069E.init
Encoding: 65642 -1 387
Width: 1604
VWidth: 1000
GlyphClass: 2
Flags: W
AnchorPoint: "Anchor-3" 508 572 basechar 0
AnchorPoint: "Anchor-2" 264 749 basechar 0
AnchorPoint: "Anchor-0" 264 0 basechar 0
LayerCount: 2
Fore
SplineSet
123 698 m 4,0,1
 123 725 123 725 136 737 c 132,-1,2
 149 749 149 749 169 749 c 260,3,4
 189 749 189 749 202 736.5 c 132,-1,5
 215 724 215 724 215 698 c 260,6,7
 215 672 215 672 202 659.5 c 132,-1,8
 189 647 189 647 169 647 c 260,9,10
 149 647 149 647 136 659.5 c 132,-1,11
 123 672 123 672 123 698 c 4,0,1
315 698 m 4,12,13
 315 725 315 725 328 737 c 132,-1,14
 341 749 341 749 362 749 c 4,15,16
 381 749 381 749 394.5 736.5 c 132,-1,17
 408 724 408 724 408 698 c 260,18,19
 408 672 408 672 394.5 659.5 c 132,-1,20
 381 647 381 647 362 647 c 4,21,22
 341 647 341 647 328 659.5 c 132,-1,23
 315 672 315 672 315 698 c 4,12,13
0 0 m 5,24,-1
 216 574 l 5,25,-1
 315 574 l 5,26,-1
 528 0 l 5,27,-1
 432 0 l 5,28,-1
 375 163 l 5,29,-1
 156 163 l 5,30,-1
 96 0 l 5,31,-1
 0 0 l 5,24,-1
349 236 m 5,32,-1
 294 396 l 6,33,34
 286 417 286 417 278 441 c 132,-1,35
 270 465 270 465 265 489 c 5,36,37
 259 465 259 465 251.5 442 c 132,-1,38
 244 419 244 419 236 395 c 6,39,-1
 180 236 l 5,40,-1
 349 236 l 5,32,-1
EndSplineSet
EndChar

StartChar: uni069E.medi
Encoding: 65643 -1 388
Width: 1710
VWidth: 1000
GlyphClass: 2
Flags: W
AnchorPoint: "Anchor-3" 508 572 basechar 0
AnchorPoint: "Anchor-2" 264 789 basechar 0
AnchorPoint: "Anchor-0" 264 0 basechar 0
LayerCount: 2
Fore
SplineSet
260 629 m 5,0,1
 235 648 235 648 203 676.5 c 132,-1,2
 171 705 171 705 141 733 c 132,-1,3
 111 761 111 761 93 781 c 5,4,-1
 93 789 l 5,5,-1
 206 789 l 5,6,7
 219 769 219 769 241 741.5 c 132,-1,8
 263 714 263 714 286 686.5 c 132,-1,9
 309 659 309 659 327 640 c 5,10,-1
 327 629 l 5,11,-1
 260 629 l 5,0,1
0 0 m 5,12,-1
 216 574 l 5,13,-1
 315 574 l 5,14,-1
 528 0 l 5,15,-1
 432 0 l 5,16,-1
 375 163 l 5,17,-1
 156 163 l 5,18,-1
 96 0 l 5,19,-1
 0 0 l 5,12,-1
349 236 m 5,20,-1
 294 396 l 6,21,22
 286 417 286 417 278 441 c 132,-1,23
 270 465 270 465 265 489 c 5,24,25
 259 465 259 465 251.5 442 c 132,-1,26
 244 419 244 419 236 395 c 6,27,-1
 180 236 l 5,28,-1
 349 236 l 5,20,-1
EndSplineSet
EndChar

StartChar: uni069F.fina
Encoding: 65644 -1 390
Width: 1731
VWidth: 1000
GlyphClass: 2
Flags: W
AnchorPoint: "Anchor-3" 508 572 basechar 0
AnchorPoint: "Anchor-2" 264 713 basechar 0
AnchorPoint: "Anchor-0" 264 0 basechar 0
LayerCount: 2
Fore
SplineSet
0 0 m 5
 216 574 l 5
 315 574 l 5
 528 0 l 5
 432 0 l 5
 375 163 l 5
 156 163 l 5
 96 0 l 5
 0 0 l 5
349 236 m 5
 294 396 l 6
 286 417 286 417 278 441 c 4
 270 465 270 465 265 489 c 5
 259 465 259 465 251.5 442 c 4
 244 419 244 419 236 395 c 6
 180 236 l 5
 349 236 l 5
EndSplineSet
Refer: 1408 713 N 1 0 0 1 157.696 73.728 2
EndChar

StartChar: uni06A0.fina
Encoding: 65645 -1 392
Width: 1257
VWidth: 1000
GlyphClass: 2
Flags: W
AnchorPoint: "Anchor-3" 508 572 basechar 0
AnchorPoint: "Anchor-2" 264 572 basechar 0
AnchorPoint: "Anchor-0" 264 -220 basechar 0
LayerCount: 2
Fore
SplineSet
0 0 m 5
 216 574 l 5
 315 574 l 5
 528 0 l 5
 432 0 l 5
 375 163 l 5
 156 163 l 5
 96 0 l 5
 0 0 l 5
349 236 m 5
 294 396 l 6
 286 417 286 417 278 441 c 4
 270 465 270 465 265 489 c 5
 259 465 259 465 251.5 442 c 4
 244 419 244 419 236 395 c 6
 180 236 l 5
 349 236 l 5
EndSplineSet
Refer: 1426 731 N 1 0 0 1 638.976 0 2
EndChar

StartChar: uni06A0.init
Encoding: 65646 -1 393
Width: 1055
VWidth: 1000
GlyphClass: 2
Flags: W
AnchorPoint: "Anchor-3" 508 572 basechar 0
AnchorPoint: "Anchor-2" 264 853 basechar 0
AnchorPoint: "Anchor-0" 264 0 basechar 0
LayerCount: 2
Fore
SplineSet
0 0 m 5
 216 574 l 5
 315 574 l 5
 528 0 l 5
 432 0 l 5
 375 163 l 5
 156 163 l 5
 96 0 l 5
 0 0 l 5
349 236 m 5
 294 396 l 6
 286 417 286 417 278 441 c 4
 270 465 270 465 265 489 c 5
 259 465 259 465 251.5 442 c 4
 244 419 244 419 236 395 c 6
 180 236 l 5
 349 236 l 5
EndSplineSet
Refer: 1425 730 N 1 0 0 1 241.664 73.728 2
EndChar

StartChar: uni06A0.medi
Encoding: 65647 -1 394
Width: 1217
VWidth: 1000
GlyphClass: 2
Flags: W
AnchorPoint: "Anchor-3" 508 572 basechar 0
AnchorPoint: "Anchor-2" 264 936 basechar 0
AnchorPoint: "Anchor-0" 264 0 basechar 0
LayerCount: 2
Fore
SplineSet
439 936 m 5,0,-1
 439 926 l 5,1,2
 426 908 426 908 401.5 879.5 c 132,-1,3
 377 851 377 851 348.5 822.5 c 132,-1,4
 320 794 320 794 296 776 c 5,5,-1
 238 776 l 5,6,-1
 238 788 l 5,7,8
 252 806 252 806 270 832.5 c 132,-1,9
 288 859 288 859 305 886.5 c 132,-1,10
 322 914 322 914 333 936 c 5,11,-1
 439 936 l 5,0,-1
382 637 m 4,12,13
 382 585 382 585 349.5 555 c 132,-1,14
 317 525 317 525 267 525 c 4,15,16
 214 525 214 525 182.5 555 c 132,-1,17
 151 585 151 585 151 636 c 260,18,19
 151 687 151 687 183 717 c 132,-1,20
 215 747 215 747 267 747 c 4,21,22
 316 747 316 747 349 717 c 132,-1,23
 382 687 382 687 382 637 c 4,12,13
327 636 m 4,24,25
 327 663 327 663 309.5 679 c 132,-1,26
 292 695 292 695 267 695 c 4,27,28
 241 695 241 695 224 679 c 132,-1,29
 207 663 207 663 207 636 c 4,30,31
 207 608 207 608 223.5 592 c 132,-1,32
 240 576 240 576 267 576 c 4,33,34
 293 576 293 576 310 592 c 132,-1,35
 327 608 327 608 327 636 c 4,24,25
0 0 m 5,36,-1
 216 574 l 5,37,-1
 315 574 l 5,38,-1
 528 0 l 5,39,-1
 432 0 l 5,40,-1
 375 163 l 5,41,-1
 156 163 l 5,42,-1
 96 0 l 5,43,-1
 0 0 l 5,36,-1
349 236 m 5,44,-1
 294 396 l 6,45,46
 286 417 286 417 278 441 c 132,-1,47
 270 465 270 465 265 489 c 5,48,49
 259 465 259 465 251.5 442 c 132,-1,50
 244 419 244 419 236 395 c 6,51,-1
 180 236 l 5,52,-1
 349 236 l 5,44,-1
EndSplineSet
EndChar

StartChar: uni06A2.fina
Encoding: 65648 -1 397
Width: 0
VWidth: 1000
GlyphClass: 2
Flags: W
AnchorPoint: "Anchor-3" 508 572 basechar 0
AnchorPoint: "Anchor-2" 264 771 basechar 0
AnchorPoint: "Anchor-0" 264 0 basechar 0
LayerCount: 2
Fore
SplineSet
0 0 m 5
 216 574 l 5
 315 574 l 5
 528 0 l 5
 432 0 l 5
 375 163 l 5
 156 163 l 5
 96 0 l 5
 0 0 l 5
349 236 m 5
 294 396 l 6
 286 417 286 417 278 441 c 4
 270 465 270 465 265 489 c 5
 259 465 259 465 251.5 442 c 4
 244 419 244 419 236 395 c 6
 180 236 l 5
 349 236 l 5
EndSplineSet
Refer: 1427 732 N 1 0 0 1 86.016 73.728 2
EndChar

StartChar: uni06A2.init
Encoding: 65649 -1 398
Width: 500
VWidth: 1000
GlyphClass: 2
Flags: W
AnchorPoint: "Anchor-2" 360 572 basechar 0
AnchorPoint: "Anchor-0" 350 0 basechar 0
LayerCount: 2
Fore
SplineSet
347 163 m 1,0,-1
 164 163 l 1,1,-1
 95 0 l 1,2,-1
 -2 0 l 1,3,-1
 253 572 l 1,4,-1
 654 572 l 1,5,-1
 654 501 l 1,6,-1
 434 501 l 1,7,-1
 434 332 l 1,8,-1
 640 332 l 1,9,-1
 640 262 l 1,10,-1
 434 262 l 1,11,-1
 434 71 l 1,12,-1
 654 71 l 1,13,-1
 654 0 l 1,14,-1
 347 0 l 1,15,-1
 347 163 l 1,0,-1
347 500 m 1,16,-1
 308 500 l 1,17,-1
 194 237 l 1,18,-1
 347 237 l 1,19,-1
 347 500 l 1,16,-1
EndSplineSet
EndChar

StartChar: uni06A2.medi
Encoding: 65650 -1 399
Width: 500
VWidth: 1000
GlyphClass: 2
Flags: W
AnchorPoint: "Anchor-2" 350 786 basechar 0
AnchorPoint: "Anchor-0" 350 0 basechar 0
LayerCount: 2
Fore
SplineSet
512 786 m 5,0,-1
 512 776 l 5,1,2
 499 758 499 758 474.5 729.5 c 132,-1,3
 450 701 450 701 421.5 672.5 c 132,-1,4
 393 644 393 644 369 626 c 5,5,-1
 311 626 l 5,6,-1
 311 638 l 5,7,8
 325 656 325 656 343 682.5 c 132,-1,9
 361 709 361 709 378 736.5 c 132,-1,10
 395 764 395 764 406 786 c 5,11,-1
 512 786 l 5,0,-1
347 163 m 5,12,-1
 164 163 l 5,13,-1
 95 0 l 5,14,-1
 -2 0 l 5,15,-1
 253 572 l 5,16,-1
 654 572 l 5,17,-1
 654 501 l 5,18,-1
 434 501 l 5,19,-1
 434 332 l 5,20,-1
 640 332 l 5,21,-1
 640 262 l 5,22,-1
 434 262 l 5,23,-1
 434 71 l 5,24,-1
 654 71 l 5,25,-1
 654 0 l 5,26,-1
 347 0 l 5,27,-1
 347 163 l 5,12,-1
347 500 m 5,28,-1
 308 500 l 5,29,-1
 194 237 l 5,30,-1
 347 237 l 5,31,-1
 347 500 l 5,28,-1
EndSplineSet
EndChar

StartChar: uni06A3.fina
Encoding: 65651 -1 401
Width: 0
VWidth: 1000
GlyphClass: 2
Flags: W
AnchorPoint: "Anchor-3" 505 572 basechar 0
AnchorPoint: "Anchor-2" 263 572 basechar 0
AnchorPoint: "Anchor-0" 263 0 basechar 0
LayerCount: 2
Fore
SplineSet
250 572 m 2,0,1
 365 572 365 572 417 535 c 128,-1,2
 469 498 469 498 469 427 c 0,3,4
 469 375 469 375 439 343 c 128,-1,5
 409 311 409 311 360 302 c 1,6,-1
 360 299 l 1,7,8
 416 289 416 289 448.5 258.5 c 128,-1,9
 481 228 481 228 481 165 c 0,10,11
 481 83 481 83 423.5 41.5 c 128,-1,12
 366 0 366 0 271 0 c 2,13,-1
 74 0 l 1,14,-1
 74 572 l 1,15,-1
 250 572 l 2,0,1
258 328 m 2,16,17
 322 328 322 328 350.5 350.5 c 128,-1,18
 379 373 379 373 379 417 c 0,19,20
 379 503 379 503 250 503 c 2,21,-1
 161 503 l 1,22,-1
 161 328 l 1,23,-1
 258 328 l 2,16,17
267 69 m 2,24,25
 392 69 392 69 392 170 c 0,26,27
 392 214 392 214 360 239 c 128,-1,28
 328 264 328 264 260 264 c 2,29,-1
 161 264 l 1,30,-1
 161 69 l 1,31,-1
 267 69 l 2,24,25
EndSplineSet
EndChar

StartChar: uni06A3.init
Encoding: 65652 -1 402
Width: 500
VWidth: 1000
GlyphClass: 2
Flags: W
AnchorPoint: "Anchor-3" 494 572 basechar 0
AnchorPoint: "Anchor-2" 312 572 basechar 0
AnchorPoint: "Anchor-0" 309 0 basechar 0
LayerCount: 2
Fore
SplineSet
326 506 m 0,0,1
 236 506 236 506 187 446 c 128,-1,2
 138 386 138 386 138 286 c 0,3,4
 138 182 138 182 184 124 c 128,-1,5
 230 66 230 66 325 66 c 0,6,7
 362 66 362 66 396.5 73 c 128,-1,8
 431 80 431 80 464 94 c 1,9,-1
 464 17 l 1,10,11
 401 -8 401 -8 312 -8 c 256,12,13
 223 -8 223 -8 164 29 c 128,-1,14
 105 66 105 66 75.5 132 c 128,-1,15
 46 198 46 198 46 287 c 0,16,17
 46 373 46 373 79.5 439 c 128,-1,18
 113 505 113 505 175.5 542.5 c 128,-1,19
 238 580 238 580 324 580 c 0,20,21
 412 580 412 580 487 544 c 1,22,-1
 458 473 l 1,23,24
 426 488 426 488 393 497 c 128,-1,25
 360 506 360 506 326 506 c 0,0,1
EndSplineSet
EndChar

StartChar: uni06A3.medi
Encoding: 65653 -1 403
Width: 500
VWidth: 1000
GlyphClass: 2
Flags: W
AnchorPoint: "Anchor-3" 494 572 basechar 0
AnchorPoint: "Anchor-2" 312 786 basechar 0
AnchorPoint: "Anchor-0" 309 0 basechar 0
LayerCount: 2
Fore
SplineSet
464 786 m 5,0,-1
 464 776 l 5,1,2
 451 758 451 758 426.5 729.5 c 132,-1,3
 402 701 402 701 373.5 672.5 c 132,-1,4
 345 644 345 644 321 626 c 5,5,-1
 263 626 l 5,6,-1
 263 638 l 5,7,8
 277 656 277 656 295 682.5 c 132,-1,9
 313 709 313 709 330 736.5 c 132,-1,10
 347 764 347 764 358 786 c 5,11,-1
 464 786 l 5,0,-1
326 506 m 4,12,13
 236 506 236 506 187 446 c 132,-1,14
 138 386 138 386 138 286 c 4,15,16
 138 182 138 182 184 124 c 132,-1,17
 230 66 230 66 325 66 c 4,18,19
 362 66 362 66 396.5 73 c 132,-1,20
 431 80 431 80 464 94 c 5,21,-1
 464 17 l 5,22,23
 401 -8 401 -8 312 -8 c 260,24,25
 223 -8 223 -8 164 29 c 132,-1,26
 105 66 105 66 75.5 132 c 132,-1,27
 46 198 46 198 46 287 c 4,28,29
 46 373 46 373 79.5 439 c 132,-1,30
 113 505 113 505 175.5 542.5 c 132,-1,31
 238 580 238 580 324 580 c 4,32,33
 412 580 412 580 487 544 c 5,34,-1
 458 473 l 5,35,36
 426 488 426 488 393 497 c 132,-1,37
 360 506 360 506 326 506 c 4,12,13
EndSplineSet
EndChar

StartChar: uni06A4.fina
Encoding: 65654 -1 404
Width: 0
VWidth: 1000
GlyphClass: 2
Flags: W
AnchorPoint: "Anchor-3" 494 572 basechar 0
AnchorPoint: "Anchor-2" 312 802 basechar 0
AnchorPoint: "Anchor-0" 309 0 basechar 0
LayerCount: 2
Fore
SplineSet
326 506 m 4
 236 506 236 506 187 446 c 4
 138 386 138 386 138 286 c 4
 138 182 138 182 184 124 c 4
 230 66 230 66 325 66 c 4
 362 66 362 66 396.5 73 c 4
 431 80 431 80 464 94 c 5
 464 17 l 5
 401 -8 401 -8 312 -8 c 260
 223 -8 223 -8 164 29 c 4
 105 66 105 66 75.5 132 c 4
 46 198 46 198 46 287 c 4
 46 373 46 373 79.5 439 c 4
 113 505 113 505 175.5 542.5 c 4
 238 580 238 580 324 580 c 4
 412 580 412 580 487 544 c 5
 458 473 l 5
 426 488 426 488 393 497 c 4
 360 506 360 506 326 506 c 4
EndSplineSet
Refer: 1406 711 N 1 0 0 1 210.944 73.728 2
EndChar

StartChar: uni06A4.init
Encoding: 65655 -1 405
Width: 500
VWidth: 1000
GlyphClass: 2
Flags: W
AnchorPoint: "Anchor-3" 494 572 basechar 0
AnchorPoint: "Anchor-2" 312 572 basechar 0
AnchorPoint: "Anchor-0" 309 -240 basechar 0
LayerCount: 2
Fore
SplineSet
326 506 m 4
 236 506 236 506 187 446 c 4
 138 386 138 386 138 286 c 4
 138 182 138 182 184 124 c 4
 230 66 230 66 325 66 c 4
 362 66 362 66 396.5 73 c 4
 431 80 431 80 464 94 c 5
 464 17 l 5
 401 -8 401 -8 312 -8 c 260
 223 -8 223 -8 164 29 c 4
 105 66 105 66 75.5 132 c 4
 46 198 46 198 46 287 c 4
 46 373 46 373 79.5 439 c 4
 113 505 113 505 175.5 542.5 c 4
 238 580 238 580 324 580 c 4
 412 580 412 580 487 544 c 5
 458 473 l 5
 426 488 426 488 393 497 c 4
 360 506 360 506 326 506 c 4
EndSplineSet
Refer: 879 184 N 1 0 0 1 405.504 0 2
EndChar

StartChar: uni06A4.medi
Encoding: 65656 -1 406
Width: 500
VWidth: 1000
GlyphClass: 2
Flags: W
AnchorPoint: "Anchor-3" 494 572 basechar 0
AnchorPoint: "Anchor-2" 312 802 basechar 0
AnchorPoint: "Anchor-0" 309 0 basechar 0
LayerCount: 2
Fore
SplineSet
326 506 m 4
 236 506 236 506 187 446 c 4
 138 386 138 386 138 286 c 4
 138 182 138 182 184 124 c 4
 230 66 230 66 325 66 c 4
 362 66 362 66 396.5 73 c 4
 431 80 431 80 464 94 c 5
 464 17 l 5
 401 -8 401 -8 312 -8 c 260
 223 -8 223 -8 164 29 c 4
 105 66 105 66 75.5 132 c 4
 46 198 46 198 46 287 c 4
 46 373 46 373 79.5 439 c 4
 113 505 113 505 175.5 542.5 c 4
 238 580 238 580 324 580 c 4
 412 580 412 580 487 544 c 5
 458 473 l 5
 426 488 426 488 393 497 c 4
 360 506 360 506 326 506 c 4
EndSplineSet
Refer: 1405 710 N 1 0 0 1 215.04 73.728 2
EndChar

StartChar: uni06A5.fina
Encoding: 65657 -1 408
Width: 0
VWidth: 1000
GlyphClass: 2
Flags: W
AnchorPoint: "Anchor-3" 494 572 basechar 0
AnchorPoint: "Anchor-2" 312 755 basechar 0
AnchorPoint: "Anchor-0" 309 0 basechar 0
LayerCount: 2
Fore
SplineSet
312 643 m 4,0,1
 290 643 290 643 275 656.5 c 132,-1,2
 260 670 260 670 260 699 c 260,3,4
 260 728 260 728 275 741.5 c 132,-1,5
 290 755 290 755 312 755 c 4,6,7
 332 755 332 755 347.5 741.5 c 132,-1,8
 363 728 363 728 363 699 c 260,9,10
 363 670 363 670 347.5 656.5 c 132,-1,11
 332 643 332 643 312 643 c 4,0,1
326 506 m 4,12,13
 236 506 236 506 187 446 c 132,-1,14
 138 386 138 386 138 286 c 4,15,16
 138 182 138 182 184 124 c 132,-1,17
 230 66 230 66 325 66 c 4,18,19
 362 66 362 66 396.5 73 c 132,-1,20
 431 80 431 80 464 94 c 5,21,-1
 464 17 l 5,22,23
 401 -8 401 -8 312 -8 c 260,24,25
 223 -8 223 -8 164 29 c 132,-1,26
 105 66 105 66 75.5 132 c 132,-1,27
 46 198 46 198 46 287 c 4,28,29
 46 373 46 373 79.5 439 c 132,-1,30
 113 505 113 505 175.5 542.5 c 132,-1,31
 238 580 238 580 324 580 c 4,32,33
 412 580 412 580 487 544 c 5,34,-1
 458 473 l 5,35,36
 426 488 426 488 393 497 c 132,-1,37
 360 506 360 506 326 506 c 4,12,13
EndSplineSet
EndChar

StartChar: uni06A5.init
Encoding: 65658 -1 409
Width: 500
VWidth: 1000
GlyphClass: 2
Flags: W
AnchorPoint: "Anchor-3" 562 572 basechar 0
AnchorPoint: "Anchor-2" 291 572 basechar 0
AnchorPoint: "Anchor-1" 291 286 basechar 0
AnchorPoint: "Anchor-0" 291 0 basechar 0
LayerCount: 2
Fore
SplineSet
535 293 m 0,0,1
 535 148 535 148 456 74 c 128,-1,2
 377 0 377 0 233 0 c 2,3,-1
 74 0 l 1,4,-1
 74 572 l 1,5,-1
 248 572 l 2,6,7
 388 572 388 572 461.5 500.5 c 128,-1,8
 535 429 535 429 535 293 c 0,0,1
444 290 m 0,9,10
 444 394 444 394 393 446.5 c 128,-1,11
 342 499 342 499 244 499 c 2,12,-1
 161 499 l 1,13,-1
 161 73 l 1,14,-1
 233 73 l 2,15,16
 444 73 444 73 444 290 c 0,9,10
EndSplineSet
EndChar

StartChar: uni06A5.medi
Encoding: 65659 -1 410
Width: 500
VWidth: 1000
GlyphClass: 2
Flags: W
AnchorPoint: "Anchor-2" 291 572 basechar 0
AnchorPoint: "Anchor-0" 291 0 basechar 0
LayerCount: 2
Fore
SplineSet
74 0 m 1,0,-1
 74 251 l 1,1,-1
 12 251 l 1,2,-1
 12 316 l 1,3,-1
 74 316 l 1,4,-1
 74 572 l 1,5,-1
 248 572 l 2,6,7
 388 572 388 572 461.5 500.5 c 128,-1,8
 535 429 535 429 535 293 c 0,9,10
 535 148 535 148 456 74 c 128,-1,11
 377 0 377 0 233 0 c 2,12,-1
 74 0 l 1,0,-1
161 73 m 1,13,-1
 233 73 l 2,14,15
 444 73 444 73 444 290 c 0,16,17
 444 394 444 394 393 446.5 c 128,-1,18
 342 499 342 499 244 499 c 2,19,-1
 161 499 l 1,20,-1
 161 316 l 1,21,-1
 265 316 l 1,22,-1
 265 251 l 1,23,-1
 161 251 l 1,24,-1
 161 73 l 1,13,-1
EndSplineSet
EndChar

StartChar: uni06A6.fina
Encoding: 65660 -1 412
Width: 0
VWidth: 1000
GlyphClass: 2
Flags: W
AnchorPoint: "Anchor-3" 562 572 basechar 0
AnchorPoint: "Anchor-2" 291 802 basechar 0
AnchorPoint: "Anchor-1" 291 286 basechar 0
AnchorPoint: "Anchor-0" 291 0 basechar 0
LayerCount: 2
Fore
SplineSet
535 293 m 4
 535 148 535 148 456 74 c 4
 377 0 377 0 233 0 c 6
 74 0 l 5
 74 572 l 5
 248 572 l 6
 388 572 388 572 461.5 500.5 c 4
 535 429 535 429 535 293 c 4
444 290 m 4
 444 394 444 394 393 446.5 c 4
 342 499 342 499 244 499 c 6
 161 499 l 5
 161 73 l 5
 233 73 l 6
 444 73 444 73 444 290 c 4
EndSplineSet
Refer: 1406 711 N 1 0 0 1 163.84 73.728 2
EndChar

StartChar: uni06A6.init
Encoding: 65661 -1 413
Width: 500
VWidth: 1000
GlyphClass: 2
Flags: W
AnchorPoint: "Anchor-2" 291 572 basechar 0
AnchorPoint: "Anchor-0" 291 0 basechar 0
LayerCount: 2
Fore
SplineSet
74 0 m 5,0,-1
 74 251 l 5,1,-1
 12 251 l 5,2,-1
 12 316 l 5,3,-1
 74 316 l 5,4,-1
 74 572 l 5,5,-1
 248 572 l 6,6,7
 388 572 388 572 461.5 500.5 c 132,-1,8
 535 429 535 429 535 293 c 4,9,10
 535 148 535 148 456 74 c 132,-1,11
 377 0 377 0 233 0 c 6,12,-1
 74 0 l 5,0,-1
161 73 m 5,13,-1
 233 73 l 6,14,15
 444 73 444 73 444 290 c 4,16,17
 444 394 444 394 393 446.5 c 132,-1,18
 342 499 342 499 244 499 c 6,19,-1
 161 499 l 5,20,-1
 161 316 l 5,21,-1
 265 316 l 5,22,-1
 265 251 l 5,23,-1
 161 251 l 5,24,-1
 161 73 l 5,13,-1
EndSplineSet
EndChar

StartChar: uni06A6.medi
Encoding: 65662 -1 414
Width: 500
VWidth: 1000
GlyphClass: 2
Flags: W
AnchorPoint: "Anchor-3" 427 572 basechar 0
AnchorPoint: "Anchor-2" 241 572 basechar 0
AnchorPoint: "Anchor-0" 246 0 basechar 0
LayerCount: 2
Fore
SplineSet
74 572 m 1,0,-1
 402 572 l 1,1,-1
 402 501 l 1,2,-1
 161 501 l 1,3,-1
 161 332 l 1,4,-1
 387 332 l 1,5,-1
 387 262 l 1,6,-1
 161 262 l 1,7,-1
 161 71 l 1,8,-1
 402 71 l 1,9,-1
 402 0 l 1,10,-1
 74 0 l 1,11,-1
 74 572 l 1,0,-1
EndSplineSet
EndChar

StartChar: uni06A7.fina
Encoding: 65663 -1 416
Width: 0
VWidth: 1000
GlyphClass: 2
Flags: W
AnchorPoint: "Anchor-3" 427 572 basechar 0
AnchorPoint: "Anchor-2" 241 786 basechar 0
AnchorPoint: "Anchor-0" 246 0 basechar 0
LayerCount: 2
Fore
SplineSet
393 786 m 5,0,-1
 393 776 l 5,1,2
 380 758 380 758 355.5 729.5 c 132,-1,3
 331 701 331 701 302.5 672.5 c 132,-1,4
 274 644 274 644 250 626 c 5,5,-1
 192 626 l 5,6,-1
 192 638 l 5,7,8
 206 656 206 656 224 682.5 c 132,-1,9
 242 709 242 709 259 736.5 c 132,-1,10
 276 764 276 764 287 786 c 5,11,-1
 393 786 l 5,0,-1
74 572 m 5,12,-1
 402 572 l 5,13,-1
 402 501 l 5,14,-1
 161 501 l 5,15,-1
 161 332 l 5,16,-1
 387 332 l 5,17,-1
 387 262 l 5,18,-1
 161 262 l 5,19,-1
 161 71 l 5,20,-1
 402 71 l 5,21,-1
 402 0 l 5,22,-1
 74 0 l 5,23,-1
 74 572 l 5,12,-1
EndSplineSet
EndChar

StartChar: uni06A8.fina
Encoding: 65664 -1 418
Width: 0
VWidth: 1000
GlyphClass: 2
Flags: W
AnchorPoint: "Anchor-3" 427 572 basechar 0
AnchorPoint: "Anchor-2" 241 776 basechar 0
AnchorPoint: "Anchor-0" 246 0 basechar 0
LayerCount: 2
Fore
SplineSet
74 572 m 5
 402 572 l 5
 402 501 l 5
 161 501 l 5
 161 332 l 5
 387 332 l 5
 387 262 l 5
 161 262 l 5
 161 71 l 5
 402 71 l 5
 402 0 l 5
 74 0 l 5
 74 572 l 5
EndSplineSet
Refer: 1423 728 N 1 0 0 1 102.4 73.728 2
EndChar

StartChar: uni06AA
Encoding: 1706 1706 419
Width: 2320
GlyphClass: 2
Flags: W
AnchorPoint: "Anchor-1" 1200 -160 basechar 0
AnchorPoint: "Anchor-0" 940 1400 basechar 0
LayerCount: 2
Fore
SplineSet
776 0 m 2,0,1
 587 0 587 0 370 39.5 c 128,-1,2
 153 79 153 79 41 129 c 1,3,-1
 61 221 l 1,4,5
 203 187 203 187 310 173.5 c 128,-1,6
 417 160 417 160 637 160 c 2,7,-1
 1993 160 l 1,8,-1
 1993 217 l 2,9,10
 1993 371 1993 371 1899.5 442.5 c 128,-1,11
 1806 514 1806 514 1616 514 c 2,12,-1
 514 514 l 1,13,-1
 514 682 l 1,14,15
 614 892 614 892 819.5 1079 c 128,-1,16
 1025 1266 1025 1266 1235 1348 c 1,17,-1
 1300 1192 l 1,18,19
 1109 1115 1109 1115 932 966.5 c 128,-1,20
 755 818 755 818 684 674 c 1,21,-1
 1616 674 l 2,22,23
 1885 674 1885 674 2026 563 c 128,-1,24
 2167 452 2167 452 2167 248 c 2,25,-1
 2167 0 l 1,26,-1
 776 0 l 2,0,1
EndSplineSet
Substitution2: "'medi' Medial Forms in Arabic lookup 4 subtable" uni06AA.medi
Substitution2: "'init' Initial Forms in Arabic lookup 3 subtable" uni06AA.init
Substitution2: "'fina' Terminal Forms in Arabic lookup 2 subtable" uni06AA.fina
EndChar

StartChar: uni06AA.fina
Encoding: 65665 -1 420
Width: 447
VWidth: 1000
GlyphClass: 2
Flags: W
AnchorPoint: "Anchor-3" 427 572 basechar 0
AnchorPoint: "Anchor-2" 241 802 basechar 0
AnchorPoint: "Anchor-0" 246 0 basechar 0
LayerCount: 2
Fore
SplineSet
74 572 m 5
 402 572 l 5
 402 501 l 5
 161 501 l 5
 161 332 l 5
 387 332 l 5
 387 262 l 5
 161 262 l 5
 161 71 l 5
 402 71 l 5
 402 0 l 5
 74 0 l 5
 74 572 l 5
EndSplineSet
Refer: 1406 711 N 1 0 0 1 65.536 73.728 2
EndChar

StartChar: uni06AA.init
Encoding: 65666 -1 421
Width: 447
VWidth: 1000
GlyphClass: 2
Flags: W
AnchorPoint: "Anchor-3" 427 572 basechar 0
AnchorPoint: "Anchor-2" 241 802 basechar 0
AnchorPoint: "Anchor-0" 246 0 basechar 0
LayerCount: 2
Fore
SplineSet
74 572 m 5
 402 572 l 5
 402 501 l 5
 161 501 l 5
 161 332 l 5
 387 332 l 5
 387 262 l 5
 161 262 l 5
 161 71 l 5
 402 71 l 5
 402 0 l 5
 74 0 l 5
 74 572 l 5
EndSplineSet
Refer: 1405 710 N 1 0 0 1 69.632 73.728 2
EndChar

StartChar: uni06AA.medi
Encoding: 65667 -1 422
Width: 447
VWidth: 1000
GlyphClass: 2
Flags: W
AnchorPoint: "Anchor-3" 427 572 basechar 0
AnchorPoint: "Anchor-2" 241 749 basechar 0
AnchorPoint: "Anchor-0" 246 0 basechar 0
LayerCount: 2
Fore
SplineSet
98 698 m 4,0,1
 98 725 98 725 111 737 c 132,-1,2
 124 749 124 749 144 749 c 260,3,4
 164 749 164 749 177 736.5 c 132,-1,5
 190 724 190 724 190 698 c 260,6,7
 190 672 190 672 177 659.5 c 132,-1,8
 164 647 164 647 144 647 c 260,9,10
 124 647 124 647 111 659.5 c 132,-1,11
 98 672 98 672 98 698 c 4,0,1
290 698 m 4,12,13
 290 725 290 725 303 737 c 132,-1,14
 316 749 316 749 337 749 c 4,15,16
 356 749 356 749 369.5 736.5 c 132,-1,17
 383 724 383 724 383 698 c 260,18,19
 383 672 383 672 369.5 659.5 c 132,-1,20
 356 647 356 647 337 647 c 4,21,22
 316 647 316 647 303 659.5 c 132,-1,23
 290 672 290 672 290 698 c 4,12,13
74 572 m 5,24,-1
 402 572 l 5,25,-1
 402 501 l 5,26,-1
 161 501 l 5,27,-1
 161 332 l 5,28,-1
 387 332 l 5,29,-1
 387 262 l 5,30,-1
 161 262 l 5,31,-1
 161 71 l 5,32,-1
 402 71 l 5,33,-1
 402 0 l 5,34,-1
 74 0 l 5,35,-1
 74 572 l 5,24,-1
EndSplineSet
EndChar

StartChar: uni06AB
Encoding: 1707 1707 423
Width: 1655
GlyphClass: 2
Flags: W
AnchorPoint: "Anchor-1" 800 -160 basechar 0
AnchorPoint: "Anchor-0" 700 1500 basechar 0
LayerCount: 2
Fore
SplineSet
1182 1051 m 0,0,1
 1090 1051 1090 1051 1029.5 1098 c 128,-1,2
 969 1145 969 1145 958 1233 c 1,3,4
 827 1106 827 1106 772 993 c 1,5,-1
 950 993 l 2,6,7
 1218 993 1218 993 1359.5 883 c 128,-1,8
 1501 773 1501 773 1501 567 c 2,9,-1
 1501 0 l 1,10,-1
 516 0 l 2,11,12
 330 0 330 0 231.5 95 c 128,-1,13
 133 190 133 190 133 367 c 0,14,15
 133 419 133 419 144 496 c 128,-1,16
 155 573 155 573 174 643 c 1,17,-1
 338 643 l 1,18,19
 307 473 307 473 307 387 c 0,20,21
 307 281 307 281 361.5 220.5 c 128,-1,22
 416 160 416 160 510 160 c 2,23,-1
 1327 160 l 1,24,-1
 1327 537 l 2,25,26
 1327 690 1327 690 1235 762 c 128,-1,27
 1143 834 1143 834 950 834 c 2,28,-1
 602 834 l 1,29,-1
 602 1001 l 1,30,31
 668 1139 668 1139 784 1272.5 c 128,-1,32
 900 1406 900 1406 1043.5 1510.5 c 128,-1,33
 1187 1615 1187 1615 1323 1667 c 1,34,-1
 1389 1511 l 1,35,36
 1314 1479 1314 1479 1282 1462 c 1,37,38
 1341 1439 1341 1439 1376 1389 c 128,-1,39
 1411 1339 1411 1339 1411 1268 c 0,40,41
 1411 1171 1411 1171 1349.5 1111 c 128,-1,42
 1288 1051 1288 1051 1182 1051 c 0,0,1
1182 1153 m 0,43,44
 1231 1153 1231 1153 1262.5 1182.5 c 128,-1,45
 1294 1212 1294 1212 1294 1266 c 256,46,47
 1294 1320 1294 1320 1262.5 1349 c 128,-1,48
 1231 1378 1231 1378 1182 1378 c 0,49,50
 1132 1378 1132 1378 1100.5 1349 c 128,-1,51
 1069 1320 1069 1320 1069 1266 c 256,52,53
 1069 1212 1069 1212 1097.5 1182.5 c 128,-1,54
 1126 1153 1126 1153 1182 1153 c 0,43,44
EndSplineSet
Substitution2: "'medi' Medial Forms in Arabic lookup 4 subtable" uni06AB.medi
Substitution2: "'init' Initial Forms in Arabic lookup 3 subtable" uni06AB.init
Substitution2: "'fina' Terminal Forms in Arabic lookup 2 subtable" uni06AB.fina
EndChar

StartChar: uni06AB.fina
Encoding: 65668 -1 424
Width: 447
VWidth: 1000
GlyphClass: 2
Flags: W
AnchorPoint: "Anchor-3" 427 572 basechar 0
AnchorPoint: "Anchor-2" 241 773 basechar 0
AnchorPoint: "Anchor-0" 246 0 basechar 0
LayerCount: 2
Fore
SplineSet
74 572 m 5
 402 572 l 5
 402 501 l 5
 161 501 l 5
 161 332 l 5
 387 332 l 5
 387 262 l 5
 161 262 l 5
 161 71 l 5
 402 71 l 5
 402 0 l 5
 74 0 l 5
 74 572 l 5
EndSplineSet
Refer: 1424 729 N 1 0 0 1 311.296 73.728 2
EndChar

StartChar: uni06AB.init
Encoding: 65669 -1 425
Width: 447
VWidth: 1000
GlyphClass: 2
Flags: W
AnchorPoint: "Anchor-3" 427 572 basechar 0
AnchorPoint: "Anchor-2" 241 789 basechar 0
AnchorPoint: "Anchor-0" 246 0 basechar 0
LayerCount: 2
Fore
SplineSet
235 629 m 5,0,1
 210 648 210 648 178 676.5 c 132,-1,2
 146 705 146 705 116 733 c 132,-1,3
 86 761 86 761 68 781 c 5,4,-1
 68 789 l 5,5,-1
 181 789 l 5,6,7
 194 769 194 769 216 741.5 c 132,-1,8
 238 714 238 714 261 686.5 c 132,-1,9
 284 659 284 659 302 640 c 5,10,-1
 302 629 l 5,11,-1
 235 629 l 5,0,1
74 572 m 5,12,-1
 402 572 l 5,13,-1
 402 501 l 5,14,-1
 161 501 l 5,15,-1
 161 332 l 5,16,-1
 387 332 l 5,17,-1
 387 262 l 5,18,-1
 161 262 l 5,19,-1
 161 71 l 5,20,-1
 402 71 l 5,21,-1
 402 0 l 5,22,-1
 74 0 l 5,23,-1
 74 572 l 5,12,-1
EndSplineSet
EndChar

StartChar: uni06AB.medi
Encoding: 65670 -1 426
Width: 447
VWidth: 1000
GlyphClass: 2
Flags: W
AnchorPoint: "Anchor-3" 427 572 basechar 0
AnchorPoint: "Anchor-2" 241 713 basechar 0
AnchorPoint: "Anchor-0" 246 0 basechar 0
LayerCount: 2
Fore
SplineSet
74 572 m 5
 402 572 l 5
 402 501 l 5
 161 501 l 5
 161 332 l 5
 387 332 l 5
 387 262 l 5
 161 262 l 5
 161 71 l 5
 402 71 l 5
 402 0 l 5
 74 0 l 5
 74 572 l 5
EndSplineSet
Refer: 1408 713 N 1 0 0 1 106.496 73.728 2
EndChar

StartChar: uni06AC.fina
Encoding: 65671 -1 428
Width: 1681
VWidth: 1000
GlyphClass: 2
Flags: W
AnchorPoint: "Anchor-3" 427 572 basechar 0
AnchorPoint: "Anchor-2" 241 572 basechar 0
AnchorPoint: "Anchor-0" 246 -220 basechar 0
LayerCount: 2
Fore
SplineSet
74 572 m 5
 402 572 l 5
 402 501 l 5
 161 501 l 5
 161 332 l 5
 387 332 l 5
 387 262 l 5
 161 262 l 5
 161 71 l 5
 402 71 l 5
 402 0 l 5
 74 0 l 5
 74 572 l 5
EndSplineSet
Refer: 1426 731 N 1 0 0 1 251.904 0 2
EndChar

StartChar: uni06AC.init
Encoding: 65672 -1 429
Width: 1180
VWidth: 1000
GlyphClass: 2
Flags: W
AnchorPoint: "Anchor-3" 400 572 basechar 0
AnchorPoint: "Anchor-2" 236 572 basechar 0
AnchorPoint: "Anchor-0" 210 0 basechar 0
LayerCount: 2
Fore
SplineSet
74 572 m 1,0,-1
 401 572 l 1,1,-1
 401 501 l 1,2,-1
 161 501 l 1,3,-1
 161 309 l 1,4,-1
 386 309 l 1,5,-1
 386 238 l 1,6,-1
 161 238 l 1,7,-1
 161 0 l 1,8,-1
 74 0 l 1,9,-1
 74 572 l 1,0,-1
EndSplineSet
EndChar

StartChar: uni06AC.medi
Encoding: 65673 -1 430
Width: 1282
VWidth: 1000
GlyphClass: 2
Flags: W
AnchorPoint: "Anchor-3" 572 572 basechar 0
AnchorPoint: "Anchor-2" 321 572 basechar 0
AnchorPoint: "Anchor-0" 327 0 basechar 0
LayerCount: 2
Fore
SplineSet
532 27 m 1,0,1
 488 10 488 10 437 1 c 128,-1,2
 386 -8 386 -8 329 -8 c 0,3,4
 196 -8 196 -8 121.5 67 c 128,-1,5
 47 142 47 142 47 285 c 0,6,7
 47 370 47 370 81 436.5 c 128,-1,8
 115 503 115 503 181.5 541 c 128,-1,9
 248 579 248 579 346 579 c 0,10,11
 447 579 447 579 523 544 c 1,12,-1
 493 473 l 1,13,14
 422 506 422 506 345 506 c 0,15,16
 244 506 244 506 191 445 c 128,-1,17
 138 384 138 384 138 286 c 0,18,19
 138 176 138 176 190 120.5 c 128,-1,20
 242 65 242 65 342 65 c 0,21,22
 403 65 403 65 448 81 c 1,23,-1
 448 235 l 1,24,-1
 304 235 l 1,25,-1
 304 306 l 1,26,-1
 532 306 l 1,27,-1
 532 27 l 1,0,1
EndSplineSet
EndChar

StartChar: uni06AD.fina
Encoding: 65674 -1 432
Width: 1681
VWidth: 1000
GlyphClass: 2
Flags: W
AnchorPoint: "Anchor-3" 572 572 basechar 0
AnchorPoint: "Anchor-2" 321 776 basechar 0
AnchorPoint: "Anchor-0" 327 0 basechar 0
LayerCount: 2
Fore
SplineSet
532 27 m 5
 488 10 488 10 437 1 c 4
 386 -8 386 -8 329 -8 c 4
 196 -8 196 -8 121.5 67 c 4
 47 142 47 142 47 285 c 4
 47 370 47 370 81 436.5 c 4
 115 503 115 503 181.5 541 c 4
 248 579 248 579 346 579 c 4
 447 579 447 579 523 544 c 5
 493 473 l 5
 422 506 422 506 345 506 c 4
 244 506 244 506 191 445 c 4
 138 384 138 384 138 286 c 4
 138 176 138 176 190 120.5 c 4
 242 65 242 65 342 65 c 4
 403 65 403 65 448 81 c 5
 448 235 l 5
 304 235 l 5
 304 306 l 5
 532 306 l 5
 532 27 l 5
EndSplineSet
Refer: 1423 728 N 1 0 0 1 266.24 73.728 2
EndChar

StartChar: uni06AD.init
Encoding: 65675 -1 433
Width: 1180
VWidth: 1000
GlyphClass: 2
Flags: W
AnchorPoint: "Anchor-3" 572 572 basechar 0
AnchorPoint: "Anchor-2" 321 802 basechar 0
AnchorPoint: "Anchor-0" 327 0 basechar 0
LayerCount: 2
Fore
SplineSet
532 27 m 5
 488 10 488 10 437 1 c 4
 386 -8 386 -8 329 -8 c 4
 196 -8 196 -8 121.5 67 c 4
 47 142 47 142 47 285 c 4
 47 370 47 370 81 436.5 c 4
 115 503 115 503 181.5 541 c 4
 248 579 248 579 346 579 c 4
 447 579 447 579 523 544 c 5
 493 473 l 5
 422 506 422 506 345 506 c 4
 244 506 244 506 191 445 c 4
 138 384 138 384 138 286 c 4
 138 176 138 176 190 120.5 c 4
 242 65 242 65 342 65 c 4
 403 65 403 65 448 81 c 5
 448 235 l 5
 304 235 l 5
 304 306 l 5
 532 306 l 5
 532 27 l 5
EndSplineSet
Refer: 1405 710 N 1 0 0 1 233.472 73.728 2
EndChar

StartChar: uni06AD.medi
Encoding: 65676 -1 434
Width: 1282
VWidth: 1000
GlyphClass: 2
Flags: W
AnchorPoint: "Anchor-3" 572 572 basechar 0
AnchorPoint: "Anchor-2" 321 579 basechar 0
AnchorPoint: "Anchor-0" 327 -221 basechar 0
LayerCount: 2
Fore
SplineSet
391 -61 m 5,0,-1
 391 -70 l 5,1,2
 386 -88 386 -88 374 -115.5 c 132,-1,3
 362 -143 362 -143 345.5 -171.5 c 132,-1,4
 329 -200 329 -200 311 -221 c 5,5,-1
 263 -221 l 5,6,-1
 263 -209 l 5,7,8
 270 -192 270 -192 279 -165.5 c 132,-1,9
 288 -139 288 -139 295 -110.5 c 132,-1,10
 302 -82 302 -82 304 -61 c 5,11,-1
 391 -61 l 5,0,-1
532 27 m 5,12,13
 488 10 488 10 437 1 c 132,-1,14
 386 -8 386 -8 329 -8 c 4,15,16
 196 -8 196 -8 121.5 67 c 132,-1,17
 47 142 47 142 47 285 c 4,18,19
 47 370 47 370 81 436.5 c 132,-1,20
 115 503 115 503 181.5 541 c 132,-1,21
 248 579 248 579 346 579 c 4,22,23
 447 579 447 579 523 544 c 5,24,-1
 493 473 l 5,25,26
 422 506 422 506 345 506 c 4,27,28
 244 506 244 506 191 445 c 132,-1,29
 138 384 138 384 138 286 c 4,30,31
 138 176 138 176 190 120.5 c 132,-1,32
 242 65 242 65 342 65 c 4,33,34
 403 65 403 65 448 81 c 5,35,-1
 448 235 l 5,36,-1
 304 235 l 5,37,-1
 304 306 l 5,38,-1
 532 306 l 5,39,-1
 532 27 l 5,12,13
EndSplineSet
EndChar

StartChar: uni06AE.fina
Encoding: 65677 -1 436
Width: 1681
VWidth: 1000
GlyphClass: 2
Flags: W
AnchorPoint: "Anchor-3" 572 572 basechar 0
AnchorPoint: "Anchor-2" 321 755 basechar 0
AnchorPoint: "Anchor-0" 327 0 basechar 0
LayerCount: 2
Fore
SplineSet
321 643 m 4,0,1
 299 643 299 643 284 656.5 c 132,-1,2
 269 670 269 670 269 699 c 260,3,4
 269 728 269 728 284 741.5 c 132,-1,5
 299 755 299 755 321 755 c 4,6,7
 341 755 341 755 356.5 741.5 c 132,-1,8
 372 728 372 728 372 699 c 260,9,10
 372 670 372 670 356.5 656.5 c 132,-1,11
 341 643 341 643 321 643 c 4,0,1
532 27 m 5,12,13
 488 10 488 10 437 1 c 132,-1,14
 386 -8 386 -8 329 -8 c 4,15,16
 196 -8 196 -8 121.5 67 c 132,-1,17
 47 142 47 142 47 285 c 4,18,19
 47 370 47 370 81 436.5 c 132,-1,20
 115 503 115 503 181.5 541 c 132,-1,21
 248 579 248 579 346 579 c 4,22,23
 447 579 447 579 523 544 c 5,24,-1
 493 473 l 5,25,26
 422 506 422 506 345 506 c 4,27,28
 244 506 244 506 191 445 c 132,-1,29
 138 384 138 384 138 286 c 4,30,31
 138 176 138 176 190 120.5 c 132,-1,32
 242 65 242 65 342 65 c 4,33,34
 403 65 403 65 448 81 c 5,35,-1
 448 235 l 5,36,-1
 304 235 l 5,37,-1
 304 306 l 5,38,-1
 532 306 l 5,39,-1
 532 27 l 5,12,13
EndSplineSet
EndChar

StartChar: uni06AE.init
Encoding: 65678 -1 437
Width: 1180
VWidth: 1000
GlyphClass: 2
Flags: W
AnchorPoint: "Anchor-3" 579 572 basechar 0
AnchorPoint: "Anchor-2" 300 572 basechar 0
AnchorPoint: "Anchor-1" 300 286 basechar 0
AnchorPoint: "Anchor-0" 300 0 basechar 0
LayerCount: 2
Fore
SplineSet
524 572 m 1,0,-1
 524 0 l 1,1,-1
 437 0 l 1,2,-1
 437 261 l 1,3,-1
 161 261 l 1,4,-1
 161 0 l 1,5,-1
 74 0 l 1,6,-1
 74 572 l 1,7,-1
 161 572 l 1,8,-1
 161 334 l 1,9,-1
 437 334 l 1,10,-1
 437 572 l 1,11,-1
 524 572 l 1,0,-1
EndSplineSet
EndChar

StartChar: uni06AE.medi
Encoding: 65679 -1 438
Width: 1282
VWidth: 1000
GlyphClass: 2
Flags: W
AnchorPoint: "Anchor-2" 300 572 basechar 0
AnchorPoint: "Anchor-0" 300 0 basechar 0
LayerCount: 2
Fore
SplineSet
595 421 m 1,0,-1
 525 421 l 1,1,-1
 525 0 l 1,2,-1
 438 0 l 1,3,-1
 438 256 l 1,4,-1
 162 256 l 1,5,-1
 162 0 l 1,6,-1
 75 0 l 1,7,-1
 75 421 l 1,8,-1
 5 421 l 1,9,-1
 5 484 l 1,10,-1
 75 484 l 1,11,-1
 75 572 l 1,12,-1
 162 572 l 1,13,-1
 162 484 l 1,14,-1
 438 484 l 1,15,-1
 438 572 l 1,16,-1
 525 572 l 1,17,-1
 525 484 l 1,18,-1
 595 484 l 1,19,-1
 595 421 l 1,0,-1
438 326 m 1,20,-1
 438 421 l 1,21,-1
 162 421 l 1,22,-1
 162 326 l 1,23,-1
 438 326 l 1,20,-1
EndSplineSet
EndChar

